comic-neue_bold.sfdir
StartChar: exclam
Encoding: 33 33 4
Width: 493
GlyphClass: 2
Flags: W
LayerCount: 2
Back
Fore
SplineSet
113 129 m 1,0,1
 117 180 117 180 152 215 c 1,2,3
 189 254 189 254 238 254 c 0,4,5
 291 254 291 254 322 217 c 0,6,7
 357 176 357 176 350 119 c 1,8,-1
 350 117 l 1,9,10
 344 70 344 70 311 37 c 1,11,12
 274 -2 274 -2 223 -2 c 0,13,14
 178 -2 178 -2 143 33 c 1,15,16
 106 74 106 74 113 129 c 1,0,1
129 510 m 2,17,-1
 133 1284 l 2,18,19
 133 1331 133 1331 165 1363 c 128,-1,20
 197 1395 197 1395 244 1395 c 256,21,22
 291 1395 291 1395 322.5 1363 c 128,-1,23
 354 1331 354 1331 354 1284 c 2,24,-1
 354 510 l 2,25,26
 354 463 354 463 321.5 430 c 128,-1,27
 289 397 289 397 242 397 c 256,28,29
 195 397 195 397 162 430 c 128,-1,30
 129 463 129 463 129 510 c 2,17,-1
EndSplineSet
EndChar
StartChar: quotedbl
Encoding: 34 34 114
Width: 339
Flags: MW
HStem: 454 218<79.5 106 227.5 254>
VStem: 45 96<502 624> 193 97<502 624>
LayerCount: 2
Back
Fore
SplineSet
93 454 m 0
 66 454 45 475 45 502 c 2
 45 624 l 2
 45 650 66 672 93 672 c 0
 119 672 141 650 141 624 c 2
 141 502 l 2
 141 475 119 454 93 454 c 0
241 454 m 0
 214 454 193 475 193 502 c 2
 193 624 l 2
 193 650 214 672 241 672 c 0
 267 672 290 650 290 624 c 2
 290 502 l 2
 290 475 267 454 241 454 c 0
EndSplineSet
EndChar
StartChar: numbersign
Encoding: 35 35 86
Width: 772
Flags: MW
HStem: 0 21G<180.5 204.5 372.5 396.5> 191 96<97.5 214 111 186 315 378 111 287 507 585> 390 96<138.5 273 152 244 152 344 373 436 564 626> 651 20G<353 377.5 544 568.5>
LayerCount: 2
Back
Fore
SplineSet
343 72 m 2
 378 191 l 1
 287 191 l 1
 242 34 l 2
 235 11 214 0 195 0 c 0
 166 0 147 23 147 46 c 0
 147 55 149 61 152 71 c 2
 186 191 l 1
 111 191 l 2
 84 191 63 212 63 239 c 0
 63 264 84 287 111 287 c 2
 214 287 l 1
 225 327 232 345 244 390 c 1
 152 390 l 2
 125 390 104 411 104 438 c 0
 104 463 125 486 152 486 c 2
 273 486 l 1
 316 637 l 2
 322 658 343 671 363 671 c 0
 392 671 411 649 411 624 c 0
 411 615 409 610 407 602 c 2
 373 486 l 1
 464 486 l 1
 508 637 l 2
 514 658 534 671 554 671 c 0
 583 671 602 647 602 623 c 0
 602 619 601 610 599 603 c 2
 564 486 l 1
 626 486 l 2
 651 486 674 463 674 438 c 0
 674 411 651 390 626 390 c 2
 536 390 l 1
 507 287 l 1
 585 287 l 2
 611 287 633 264 633 239 c 0
 633 212 611 191 585 191 c 2
 479 191 l 1
 433 34 l 2
 426 10 406 0 387 0 c 0
 358 0 339 23 339 48 c 0
 339 53 340 62 343 72 c 2
406 287 m 1
 436 390 l 1
 344 390 l 1
 315 287 l 1
 406 287 l 1
EndSplineSet
EndChar
StartChar: dollar
Encoding: 36 36 101
Width: 630
Flags: MW
HStem: -67 21G<295 321> 470 192<357 505> 708 20G<295 321>
VStem: 95 103<471.5 498 471.5 542.5> 261 96<-19 3 3 3 101 282 419 564 564 564 662 680> 439 100
LayerCount: 2
Back
Fore
SplineSet
444 511 m 0
 439 551 389 565 357 570 c 1
 357 386 l 1
 481 346 541 283 541 196 c 0
 541 92 467 24 357 4 c 1
 357 -19 l 2
 357 -45 334 -67 308 -67 c 0
 282 -67 261 -45 261 -19 c 2
 261 3 l 1
 169 16 95 68 66 144 c 0
 65 148 62 152 62 166 c 0
 62 184 82 213 113 213 c 0
 136 213 154 198 161 177 c 0
 176 134 216 108 261 98 c 1
 261 312 l 1
 177 341 95 394 95 486 c 0
 95 599 175 648 261 659 c 1
 261 680 l 2
 261 705 282 728 308 728 c 0
 334 728 357 705 357 680 c 2
 357 662 l 1
 442 657 539 618 539 515 c 0
 539 490 517 470 493 470 c 0
 466 470 447 487 444 511 c 0
198 483 m 0
 198 460 219 438 261 419 c 1
 261 564 l 1
 208 549 198 513 198 483 c 0
357 282 m 1
 357 101 l 1
 404 114 439 145 439 202 c 0
 439 219 432 251 357 282 c 1
EndSplineSet
EndChar
StartChar: percent
Encoding: 37 37 8
Width: 1640
GlyphClass: 2
Flags: W
LayerCount: 2
Back
Fore
SplineSet
125 1087 m 256,0,1
 125 1150 125 1150 148.5 1206 c 128,-1,2
 172 1262 172 1262 214 1302.5 c 128,-1,3
 256 1343 256 1343 311.5 1368 c 128,-1,4
 367 1393 367 1393 430 1393 c 256,5,6
 493 1393 493 1393 548.5 1368 c 128,-1,7
 604 1343 604 1343 645 1302.5 c 128,-1,8
 686 1262 686 1262 710.5 1206.5 c 128,-1,9
 735 1151 735 1151 735 1087 c 0,10,11
 735 1024 735 1024 710.5 968.5 c 128,-1,12
 686 913 686 913 645 871 c 128,-1,13
 604 829 604 829 548.5 805.5 c 128,-1,14
 493 782 493 782 430 782 c 256,15,16
 367 782 367 782 311.5 805.5 c 128,-1,17
 256 829 256 829 214 871 c 128,-1,18
 172 913 172 913 148.5 968.5 c 128,-1,19
 125 1024 125 1024 125 1087 c 256,0,1
338 1087 m 0,20,21
 338 1048 338 1048 365.5 1021.5 c 128,-1,22
 393 995 393 995 430 995 c 0,23,24
 469 995 469 995 495.5 1022 c 128,-1,25
 522 1049 522 1049 522 1087 c 0,26,27
 522 1124 522 1124 495.5 1151 c 128,-1,28
 469 1178 469 1178 430 1178 c 0,29,30
 393 1178 393 1178 365.5 1151 c 128,-1,31
 338 1124 338 1124 338 1087 c 0,20,21
391 78 m 0,32,33
 379 117 379 117 399 156 c 1,34,-1
 1053 1335 l 1,35,36
 1084 1388 1084 1388 1145 1389 c 0,37,38
 1170 1389 1170 1389 1194 1374 c 1,39,40
 1229 1356 1229 1356 1243 1313 c 0,41,42
 1255 1274 1255 1274 1235 1235 c 1,43,-1
 582 55 l 1,44,45
 551 2 551 2 492 2 c 0,46,47
 463 2 463 2 440 16 c 1,48,49
 405 34 405 34 391 78 c 0,32,33
889 305 m 256,50,51
 889 368 889 368 912.5 423.5 c 128,-1,52
 936 479 936 479 978 520 c 128,-1,53
 1020 561 1020 561 1075 585.5 c 128,-1,54
 1130 610 1130 610 1194 610 c 0,55,56
 1257 610 1257 610 1312.5 585.5 c 128,-1,57
 1368 561 1368 561 1410 520 c 128,-1,58
 1452 479 1452 479 1475.5 424 c 128,-1,59
 1499 369 1499 369 1499 305 c 0,60,61
 1499 242 1499 242 1475.5 186.5 c 128,-1,62
 1452 131 1452 131 1410 89 c 128,-1,63
 1368 47 1368 47 1312.5 23.5 c 128,-1,64
 1257 0 1257 0 1194 0 c 256,65,66
 1131 0 1131 0 1075.5 23.5 c 128,-1,67
 1020 47 1020 47 978 89 c 128,-1,68
 936 131 936 131 912.5 186.5 c 128,-1,69
 889 242 889 242 889 305 c 256,50,51
1104 305 m 256,70,71
 1104 266 1104 266 1130.5 239.5 c 128,-1,72
 1157 213 1157 213 1194 213 c 0,73,74
 1233 213 1233 213 1259.5 239.5 c 128,-1,75
 1286 266 1286 266 1286 305 c 256,76,77
 1286 344 1286 344 1259.5 370.5 c 128,-1,78
 1233 397 1233 397 1194 397 c 0,79,80
 1157 397 1157 397 1130.5 370.5 c 128,-1,81
 1104 344 1104 344 1104 305 c 256,70,71
EndSplineSet
EndChar
StartChar: ampersand
Encoding: 38 38 9
Width: 1355
GlyphClass: 2
Flags: W
LayerCount: 2
Back
Fore
SplineSet
125 397 m 0,0,1
 125 563 125 563 233 678 c 0,2,3
 268 715 268 715 310 744.5 c 128,-1,4
 352 774 352 774 395 799 c 1,5,6
 379 822 379 822 365.5 841 c 128,-1,7
 352 860 352 860 342 883 c 1,8,9
 285 983 285 983 285 1075 c 0,10,11
 285 1208 285 1208 389 1303 c 0,12,13
 436 1346 436 1346 494.5 1369.5 c 128,-1,14
 553 1393 553 1393 612 1393 c 0,15,16
 673 1393 673 1393 733 1368 c 128,-1,17
 793 1343 793 1343 840 1298 c 1,18,19
 887 1251 887 1251 913.5 1195 c 128,-1,20
 940 1139 940 1139 940 1079 c 0,21,22
 940 1038 940 1038 932 989 c 128,-1,23
 924 940 924 940 889 891 c 1,24,25
 842 819 842 819 725 741 c 1,26,-1
 889 545 l 1,27,28
 893 555 893 555 895 562 c 128,-1,29
 897 569 897 569 899 580 c 2,30,-1
 905 602 l 2,31,32
 915 637 915 637 944 658.5 c 128,-1,33
 973 680 973 680 1008 680 c 0,34,35
 1051 680 1051 680 1081.5 649 c 128,-1,36
 1112 618 1112 618 1112 573 c 0,37,38
 1112 567 1112 567 1112 560 c 128,-1,39
 1112 553 1112 553 1108 545 c 1,40,-1
 1102 522 l 2,41,42
 1090 479 1090 479 1074.5 439 c 128,-1,43
 1059 399 1059 399 1042 362 c 1,44,-1
 1196 178 l 2,45,46
 1221 149 1221 149 1221 111 c 0,47,48
 1221 68 1221 68 1190 37 c 128,-1,49
 1159 6 1159 6 1116 6 c 0,50,51
 1063 6 1063 6 1034 45 c 1,52,-1
 922 178 l 1,53,54
 867 117 867 117 809.5 81 c 128,-1,55
 752 45 752 45 701.5 26.5 c 128,-1,56
 651 8 651 8 612 3 c 128,-1,57
 573 -2 573 -2 555 -2 c 0,58,59
 477 -2 477 -2 400.5 25.5 c 128,-1,60
 324 53 324 53 264 102 c 0,61,62
 196 159 196 159 160.5 235 c 128,-1,63
 125 311 125 311 125 397 c 0,0,1
334 397 m 0,64,65
 334 309 334 309 408 258 c 1,66,67
 445 229 445 229 485.5 219 c 128,-1,68
 526 209 526 209 555 209 c 0,69,70
 565 209 565 209 591.5 212 c 128,-1,71
 618 215 618 215 653 231 c 0,72,73
 725 264 725 264 784 342 c 1,74,-1
 539 637 l 1,75,76
 498 614 498 614 461 591.5 c 128,-1,77
 424 569 424 569 395 543 c 1,78,79
 334 482 334 482 334 397 c 0,64,65
496 1075 m 0,80,81
 496 1036 496 1036 522.5 989 c 128,-1,82
 549 942 549 942 584 901 c 1,83,84
 611 917 611 917 636.5 934.5 c 128,-1,85
 662 952 662 952 682 971.5 c 128,-1,86
 702 991 702 991 715.5 1016.5 c 128,-1,87
 729 1042 729 1042 729 1073 c 0,88,89
 729 1120 729 1120 691 1150 c 128,-1,90
 653 1180 653 1180 612 1180 c 0,91,92
 569 1180 569 1180 532.5 1149 c 128,-1,93
 496 1118 496 1118 496 1075 c 0,80,81
EndSplineSet
EndChar
StartChar: quotesingle
Encoding: 39 39 10
Width: 292
GlyphClass: 2
Flags: W
LayerCount: 2
Back
Fore
SplineSet
41 1092 m 2,0,-1
 41 1364 l 2,1,2
 41 1407 41 1407 72.5 1437.5 c 128,-1,3
 104 1468 104 1468 147 1468 c 256,4,5
 190 1468 190 1468 221 1437.5 c 128,-1,6
 252 1407 252 1407 252 1364 c 2,7,-1
 252 1092 l 2,8,9
 252 1049 252 1049 221 1017 c 128,-1,10
 190 985 190 985 147 985 c 256,11,12
 104 985 104 985 72.5 1017 c 128,-1,13
 41 1049 41 1049 41 1092 c 2,0,-1
EndSplineSet
EndChar
StartChar: parenleft
Encoding: 40 40 103
Width: 395
Flags: MW
HStem: -98 21G<250 271.5> 748 20G<267 285>
VStem: 58 96<266 409.5 266 422.5> 58 250
LayerCount: 2
Back
Fore
SplineSet
219 -78 m 0xd0
 187 -39 58 116 58 342 c 0
 58 503 130 650 236 750 c 0
 250 763 262 768 272 768 c 0
 298 768 320 745 320 719 c 0
 320 705 315 692 302 682 c 0
 219 615 154 477 154 342 c 0xe0
 154 190 228 53 293 -15 c 0
 303 -25 308 -37 308 -51 c 0
 308 -77 283 -98 260 -98 c 0
 240 -98 228 -88 219 -78 c 0xd0
EndSplineSet
EndChar
StartChar: parenright
Encoding: 41 41 102
Width: 395
Flags: MW
HStem: -98 21G<106.5 128> 748 20G<93 111>
VStem: 70 250 224 96<266 409.5>
LayerCount: 2
Back
Fore
SplineSet
159 -78 m 0xd0
 150 -88 138 -98 118 -98 c 0
 95 -98 70 -77 70 -51 c 0xe0
 70 -37 75 -25 85 -15 c 0
 150 53 224 190 224 342 c 0
 224 477 159 615 76 682 c 0
 63 692 58 705 58 719 c 0
 58 745 80 768 106 768 c 0
 116 768 128 763 142 750 c 0
 248 650 320 503 320 342 c 0
 320 116 191 -39 159 -78 c 0xd0
EndSplineSet
EndChar
StartChar: asterisk
Encoding: 42 42 105
Width: 423
Flags: MW
HStem: 421 191<137.5 296 244 296> 652 20G<188 214>
VStem: 103 196<456.5 473 456 473.5> 154 177<556 625 556 638>
LayerCount: 2
Back
Fore
SplineSet
248 603 m 1xd0
 270 610 l 2
 277 612 280 612 284 612 c 0
 308 612 331 594 331 566 c 0xd0
 331 546 318 527 299 521 c 2
 278 514 l 1
 290 496 l 2
 296 487 299 478 299 468 c 0
 299 444 278 421 252 421 c 0
 236 421 225 429 215 441 c 2
 201 458 l 1
 188 440 l 2
 179 427 165 421 151 421 c 0
 124 421 103 444 103 469 c 0xe0
 103 478 106 488 112 496 c 2
 125 513 l 1
 104 520 l 2
 84 526 72 545 72 565 c 0
 72 593 95 611 118 611 c 0
 123 611 126 611 133 609 c 2
 154 603 l 1
 154 625 l 2
 154 651 175 672 201 672 c 0
 227 672 248 651 248 625 c 2
 248 603 l 1xd0
EndSplineSet
EndChar
StartChar: plus
Encoding: 43 43 104
Width: 469
Flags: MW
HStem: 77 221<97 237> 203 95<83.5 177 97 177 271 352 97 271> 203 212<83.5 237 97 237 211 352 211 271>
VStem: 49 222<111 264> 177 94<124 203 111 203 298 368> 177 222<124 264 203 264 237.5 368 237.5 381>
LayerCount: 2
Back
Fore
SplineSet
352 203 m 2x84
 271 203 l 1x50
 271 124 l 2
 271 98 250 77 224 77 c 0x90
 198 77 177 98 177 124 c 2
 177 203 l 1x48
 97 203 l 2
 70 203 49 224 49 251 c 0x50
 49 277 70 298 97 298 c 2
 177 298 l 1x88
 177 368 l 2
 177 394 198 415 224 415 c 0x28
 250 415 271 394 271 368 c 2
 271 298 l 1x90
 352 298 l 2
 378 298 399 277 399 251 c 0
 399 224 378 203 352 203 c 2x84
EndSplineSet
EndChar
StartChar: comma
Encoding: 44 44 72
Width: 287
Flags: MW
HStem: -84 199<134.5 135>
VStem: 91 111<53.5 68.5>
LayerCount: 2
Back
Fore
SplineSet
202 64 m 0
 202 43 184 -7 168 -45 c 0
 159 -66 148 -84 122 -84 c 0
 97 -84 78 -65 78 -42 c 0
 78 -35 79 -31 81 -26 c 2
 99 21 l 1
 94 30 91 40 91 52 c 0
 91 85 119 115 150 115 c 0
 179 115 202 92 202 64 c 0
EndSplineSet
EndChar
StartChar: hyphen
Encoding: 45 45 16
Width: 980
GlyphClass: 2
Flags: W
LayerCount: 2
Back
Fore
SplineSet
145 508 m 256,0,1
 145 553 145 553 177 583.5 c 128,-1,2
 209 614 209 614 252 614 c 2,3,-1
 733 614 l 2,4,5
 778 614 778 614 809 583.5 c 128,-1,6
 840 553 840 553 840 508 c 256,7,8
 840 463 840 463 809 432 c 128,-1,9
 778 401 778 401 733 401 c 2,10,-1
 252 401 l 2,11,12
 209 401 209 401 177 432 c 128,-1,13
 145 463 145 463 145 508 c 256,0,1
EndSplineSet
EndChar
StartChar: period
Encoding: 46 46 17
Width: 538
GlyphClass: 2
Flags: W
LayerCount: 2
Back
Fore
SplineSet
143 123 m 1,0,-1
 152 199 l 1,1,2
 156 248 156 248 192.5 280.5 c 128,-1,3
 229 313 229 313 279 309 c 0,4,5
 328 305 328 305 360.5 269 c 128,-1,6
 393 233 393 233 391 184 c 1,7,-1
 381 109 l 1,8,9
 377 62 377 62 341 28 c 128,-1,10
 305 -6 305 -6 256 -2 c 256,11,12
 207 2 207 2 174 38 c 128,-1,13
 141 74 141 74 143 123 c 1,0,-1
EndSplineSet
EndChar
StartChar: slash
Encoding: 47 47 18
Width: 1159
GlyphClass: 2
Flags: W
LayerCount: 2
Back
Fore
SplineSet
144.5 79 m 128,-1,1
 131 121 131 121 154 162 c 2,2,-1
 817 1356 l 2,3,4
 831 1383 831 1383 857 1397 c 128,-1,5
 883 1411 883 1411 911 1411 c 0,6,7
 940 1411 940 1411 965 1399 c 1,8,9
 1004 1376 1004 1376 1016 1333 c 256,10,11
 1028 1290 1028 1290 1006 1251 c 2,12,-1
 344 55 l 2,13,14
 330 30 330 30 304.5 15 c 128,-1,15
 279 0 279 0 250 0 c 0,16,17
 219 0 219 0 197 14 c 0,18,0
 158 37 158 37 144.5 79 c 128,-1,1
EndSplineSet
EndChar
StartChar: zero
Encoding: 48 48 19
Width: 1255
GlyphClass: 2
Flags: W
LayerCount: 2
Back
Fore
SplineSet
141 700 m 0,0,1
 145 835 145 835 182 957 c 128,-1,2
 219 1079 219 1079 285 1176 c 0,3,4
 357 1282 357 1282 450 1338.5 c 128,-1,5
 543 1395 543 1395 647 1395 c 0,6,7
 727 1395 727 1395 800.5 1359 c 128,-1,8
 874 1323 874 1323 934 1257 c 1,9,10
 1026 1159 1026 1159 1073 1010.5 c 128,-1,11
 1120 862 1120 862 1114 692 c 0,12,13
 1110 559 1110 559 1072 437 c 128,-1,14
 1034 315 1034 315 969 219 c 0,15,16
 897 113 897 113 803.5 56.5 c 128,-1,17
 710 0 710 0 606 0 c 0,18,19
 444 0 444 0 319 137 c 0,20,21
 229 235 229 235 182 383.5 c 128,-1,22
 135 532 135 532 141 700 c 0,0,1
352 692 m 1,23,24
 350 569 350 569 381 459 c 1,25,26
 397 406 397 406 420.5 362.5 c 128,-1,27
 444 319 444 319 473 289 c 1,28,29
 534 221 534 221 606 221 c 0,30,31
 659 221 659 221 709.5 254 c 128,-1,32
 760 287 760 287 801 352 c 1,33,34
 848 422 848 422 872.5 511 c 128,-1,35
 897 600 897 600 901 700 c 0,36,37
 907 825 907 825 872 936 c 1,38,39
 841 1042 841 1042 780 1106 c 1,40,41
 721 1174 721 1174 647 1174 c 0,42,43
 538 1174 538 1174 453 1040 c 0,44,45
 408 970 408 970 382 881.5 c 128,-1,46
 356 793 356 793 352 692 c 1,23,24
EndSplineSet
EndChar
StartChar: one
Encoding: 49 49 20
Width: 913
GlyphClass: 2
Flags: W
LayerCount: 2
Back
Fore
SplineSet
125 1003 m 128,-1,1
 123 1049 123 1049 156 1083 c 1,2,-1
 406 1354 l 2,3,4
 439 1391 439 1391 487 1391 c 0,5,6
 497 1391 497 1391 507.5 1388.5 c 128,-1,7
 518 1386 518 1386 528 1382 c 0,8,9
 561 1368 561 1368 580.5 1339.5 c 128,-1,10
 600 1311 600 1311 600 1276 c 2,11,-1
 582 225 l 1,12,-1
 666 225 l 2,13,14
 713 225 713 225 745.5 192.5 c 128,-1,15
 778 160 778 160 778 113 c 256,16,17
 778 66 778 66 745.5 33 c 128,-1,18
 713 0 713 0 666 0 c 2,19,-1
 244 0 l 2,20,21
 197 0 197 0 164 33 c 128,-1,22
 131 66 131 66 131 113 c 256,23,24
 131 160 131 160 164 192.5 c 128,-1,25
 197 225 197 225 244 225 c 2,26,-1
 358 225 l 1,27,-1
 371 985 l 1,28,-1
 319 932 l 1,29,30
 288 895 288 895 238 895 c 0,31,32
 193 895 193 895 162 926 c 1,33,0
 127 957 127 957 125 1003 c 128,-1,1
EndSplineSet
EndChar
StartChar: two
Encoding: 50 50 56
Width: 554
Flags: MW
HStem: 0 95<163 424 163 424> 481 179<93.5 327> 564 96<237.5 297.5>
VStem: 368 96<453.5 507.5>
LayerCount: 2
Back
Fore
SplineSet
150 503 m 0xb0
 140 492 131 481 108 481 c 0xd0
 79 481 60 506 60 530 c 0
 60 546 67 558 92 582 c 0
 127 616 188 660 270 660 c 0
 384 660 464 581 464 484 c 0
 464 372 379 315 302 266 c 0
 240 226 177 182 163 95 c 1
 424 95 l 2
 449 95 472 74 472 47 c 0
 472 21 449 0 424 0 c 2
 64 0 l 1
 64 47 l 2
 64 220 157 288 242 342 c 0
 315 390 368 423 368 484 c 0
 368 531 325 564 270 564 c 0
 205 564 157 511 150 503 c 0xb0
EndSplineSet
EndChar
StartChar: three
Encoding: 51 51 57
Width: 569
Flags: MW
HStem: -5 96<232 293 232 311> -5 185<98.5 311> 321 96<238 269.5> 526 141<122.5 322.5> 570 97<242 299.5>
VStem: 368 96<482 521.5> 382 97<165 238.5 127 252>
LayerCount: 2
Back
Fore
SplineSet
170 539 m 0xac
 158 531 152 526 139 526 c 0
 106 526 91 551 91 574 c 0
 91 590 98 608 132 629 c 0
 161 647 210 667 267 667 c 0
 378 667 464 597 464 506 c 0xb4
 464 452 438 406 395 372 c 1
 451 335 479 273 479 204 c 0
 479 50 354 -5 268 -5 c 0
 182 -5 101 40 72 104 c 0
 67 115 64 128 64 134 c 0
 64 160 85 180 112 180 c 0x72
 132 180 145 170 154 154 c 0
 164 136 198 91 266 91 c 0
 320 91 382 126 382 204 c 0xb2
 382 300 288 321 251 321 c 0
 224 321 203 343 203 369 c 0
 203 396 224 417 252 417 c 0
 306 417 368 458 368 506 c 0
 368 537 332 570 267 570 c 0
 217 570 186 551 170 539 c 0xac
EndSplineSet
EndChar
StartChar: four
Encoding: 52 52 23
Width: 1081
GlyphClass: 2
Flags: W
LayerCount: 2
Back
Fore
SplineSet
113 430.5 m 128,-1,1
 113 459 113 459 129 483 c 1,2,-1
 649 1341 l 2,3,4
 663 1366 663 1366 688 1380.5 c 128,-1,5
 713 1395 713 1395 741 1395 c 0,6,7
 751 1395 751 1395 772 1391 c 1,8,9
 807 1381 807 1381 828.5 1351 c 128,-1,10
 850 1321 850 1321 850 1286 c 2,11,-1
 850 526 l 1,12,-1
 860 524 l 1,13,14
 907 524 907 524 938 492.5 c 128,-1,15
 969 461 969 461 969 416 c 1,16,17
 967 393 967 393 959.5 373.5 c 128,-1,18
 952 354 952 354 936 340 c 1,19,20
 903 307 903 307 860 307 c 2,21,-1
 858 307 l 1,22,-1
 850 309 l 1,23,-1
 850 109 l 2,24,25
 850 62 850 62 818 31 c 128,-1,26
 786 0 786 0 741 0 c 256,27,28
 696 0 696 0 664.5 30.5 c 128,-1,29
 633 61 633 61 633 109 c 2,30,-1
 633 311 l 1,31,-1
 219 319 l 2,32,33
 190 319 190 319 165.5 334.5 c 128,-1,34
 141 350 141 350 127 375 c 0,35,0
 113 402 113 402 113 430.5 c 128,-1,1
412 532 m 1,36,-1
 633 528 l 1,37,-1
 633 897 l 1,38,-1
 412 532 l 1,36,-1
EndSplineSet
EndChar
StartChar: five
Encoding: 53 53 59
Width: 585
Flags: MW
HStem: -3 97<242.5 303.5 242.5 328> -3 183<99.5 328> 388 96<269.5 327> 560 97<204 425 204 204>
VStem: 402 96<209.5 286.5>
LayerCount: 2
Back
Fore
SplineSet
69 109 m 0xb8
 66 116 64 124 64 132 c 0
 64 157 87 180 112 180 c 0x78
 135 180 143 170 153 156 c 0
 181 116 217 94 268 94 c 0
 339 94 402 166 402 253 c 0
 402 320 367 388 287 388 c 0
 222 388 181 344 172 335 c 0
 161 324 150 320 136 320 c 0
 102 320 85 345 88 375 c 2
 112 614 l 2
 114 638 136 657 160 657 c 2
 425 657 l 2
 450 657 473 634 473 609 c 0
 473 581 450 560 425 560 c 2
 204 560 l 1
 194 466 l 1
 220 477 252 484 287 484 c 0
 407 484 498 392 498 253 c 0
 498 112 388 -3 268 -3 c 0
 154 -3 84 77 69 109 c 0xb8
EndSplineSet
EndChar
StartChar: six
Encoding: 54 54 25
Width: 1157
GlyphClass: 2
Flags: W
LayerCount: 2
Back
Fore
SplineSet
125 524 m 0,0,1
 125 653 125 653 151.5 758.5 c 128,-1,2
 178 864 178 864 220 948 c 128,-1,3
 262 1032 262 1032 314.5 1096.5 c 128,-1,4
 367 1161 367 1161 416 1208 c 1,5,6
 494 1280 494 1280 563.5 1323 c 128,-1,7
 633 1366 633 1366 672 1382 c 1,8,-1
 676 1384 l 1,9,-1
 678 1386 l 1,10,11
 696 1392 696 1392 715 1393 c 1,12,13
 760 1393 760 1393 790.5 1362 c 128,-1,14
 821 1331 821 1331 821 1286 c 0,15,16
 821 1255 821 1255 804.5 1229.5 c 128,-1,17
 788 1204 788 1204 760 1192 c 1,18,-1
 752 1188 l 2,19,20
 721 1172 721 1172 667.5 1140 c 128,-1,21
 614 1108 614 1108 555 1053 c 0,22,23
 489 992 489 992 449 926 c 1,24,25
 523 946 523 946 608 946 c 0,26,27
 618 946 618 946 641 945 c 128,-1,28
 664 944 664 944 693.5 938 c 128,-1,29
 723 932 723 932 758 920.5 c 128,-1,30
 793 909 793 909 829 889 c 1,31,32
 870 864 870 864 905 830.5 c 128,-1,33
 940 797 940 797 963 756 c 1,34,35
 1022 656 1022 656 1022 514 c 0,36,37
 1022 434 1022 434 1007.5 369.5 c 128,-1,38
 993 305 993 305 969.5 255 c 128,-1,39
 946 205 946 205 917.5 169 c 128,-1,40
 889 133 889 133 862 109 c 0,41,42
 794 50 794 50 719.5 25 c 128,-1,43
 645 0 645 0 590 0 c 256,44,45
 535 0 535 0 458 16.5 c 128,-1,46
 381 33 381 33 309 86 c 0,47,48
 217 154 217 154 170 266 c 0,49,50
 147 321 147 321 136 386 c 128,-1,51
 125 451 125 451 125 524 c 0,0,1
334 524 m 0,52,53
 334 344 334 344 418 266 c 1,54,55
 479 211 479 211 590 211 c 0,56,57
 610 211 610 211 647 222 c 128,-1,58
 684 233 684 233 721 266 c 0,59,60
 813 346 813 346 813 514 c 0,61,62
 813 649 813 649 731 702 c 0,63,64
 696 725 696 725 660.5 730 c 128,-1,65
 625 735 625 735 608 735 c 0,66,67
 508 735 508 735 424 690 c 0,68,69
 369 660 369 660 342 633 c 1,70,71
 338 606 338 606 336 579.5 c 128,-1,72
 334 553 334 553 334 524 c 0,52,53
EndSplineSet
EndChar
StartChar: seven
Encoding: 55 55 61
Width: 527
Flags: MW
HStem: 1 21G<141.5 163> 558 96<95.5 436 109 359>
LayerCount: 2
Back
Fore
SplineSet
155 1 m 0
 128 1 107 24 107 49 c 0
 107 55 109 63 113 70 c 2
 359 558 l 1
 109 558 l 2
 82 558 61 579 61 606 c 0
 61 631 82 654 109 654 c 2
 436 654 l 2
 463 654 484 632 484 605 c 0
 484 599 482 591 479 584 c 2
 198 27 l 2
 189 8 171 1 155 1 c 0
EndSplineSet
EndChar
StartChar: eight
Encoding: 56 56 62
Width: 573
Flags: MW
HStem: -3 96<241 299.5 241 333> 572 97<282 307.5>
VStem: 63 95<154.5 185> 93 65 93 94<471 530.5 471 543> 372 95<489 526.5> 388 94<158 222.5>
LayerCount: 2
Back
Fore
SplineSet
273 -3 m 0xe2
 150 -3 63 77 63 185 c 0xe2
 65 272 114 324 164 357 c 1
 122 384 93 422 93 486 c 0
 93 600 181 669 283 669 c 0
 391 669 467 600 467 501 c 0xd4
 467 435 432 392 390 363 c 1
 448 322 482 263 482 194 c 0
 482 82 393 -3 273 -3 c 0xe2
283 310 m 1
 225 284 158 255 158 180 c 0
 158 129 209 93 273 93 c 0
 326 93 388 124 388 192 c 0
 388 253 336 292 283 310 c 1
283 572 m 0
 281 572 187 571 187 490 c 0
 187 452 213 430 277 411 c 1
 353 442 372 472 372 506 c 0xcc
 372 547 332 572 283 572 c 0
EndSplineSet
EndChar
StartChar: nine
Encoding: 57 57 28
Width: 1142
GlyphClass: 2
Flags: W
LayerCount: 2
Back
Fore
SplineSet
125 885 m 0,0,1
 125 965 125 965 139.5 1028.5 c 128,-1,2
 154 1092 154 1092 176.5 1141 c 128,-1,3
 199 1190 199 1190 226.5 1225 c 128,-1,4
 254 1260 254 1260 281 1284 c 0,5,6
 347 1343 347 1343 421.5 1368 c 128,-1,7
 496 1393 496 1393 549 1393 c 0,8,9
 606 1393 606 1393 681 1377.5 c 128,-1,10
 756 1362 756 1362 827 1309 c 1,11,12
 918 1239 918 1239 965 1128 c 1,13,14
 1008 1019 1008 1019 1008 877 c 0,15,16
 1008 750 1008 750 982 645.5 c 128,-1,17
 956 541 956 541 914 458 c 128,-1,18
 872 375 872 375 822 311.5 c 128,-1,19
 772 248 772 248 723 203 c 0,20,21
 670 154 670 154 619.5 118 c 128,-1,22
 569 82 569 82 529 60.5 c 128,-1,23
 489 39 489 39 463.5 27.5 c 128,-1,24
 438 16 438 16 436 16 c 2,25,-1
 406 6 l 1,26,27
 365 -10 365 -10 326 9.5 c 128,-1,28
 287 29 287 29 270 70 c 0,29,30
 254 111 254 111 273.5 150.5 c 128,-1,31
 293 190 293 190 334 207 c 1,32,-1
 365 219 l 2,33,34
 367 219 367 219 386.5 227.5 c 128,-1,35
 406 236 406 236 436.5 253 c 128,-1,36
 467 270 467 270 505 297 c 128,-1,37
 543 324 543 324 582 360 c 1,38,39
 639 415 639 415 680 477 c 1,40,41
 645 467 645 467 607 462 c 128,-1,42
 569 457 569 457 530 457 c 0,43,44
 510 457 510 457 447.5 466 c 128,-1,45
 385 475 385 475 315 516 c 1,46,47
 229 561 229 561 182 647 c 1,48,49
 125 743 125 743 125 885 c 0,0,1
336 885 m 0,50,51
 336 756 336 756 414 702 c 1,52,53
 449 679 449 679 481.5 675.5 c 128,-1,54
 514 672 514 672 530 672 c 0,55,56
 628 672 628 672 713 717 c 0,57,58
 740 731 740 731 758.5 745.5 c 128,-1,59
 777 760 777 760 791 772 c 1,60,61
 797 821 797 821 797 877 c 0,62,63
 797 1055 797 1055 715 1124 c 1,64,65
 656 1179 656 1179 549 1180 c 0,66,67
 531 1180 531 1180 495 1168.5 c 128,-1,68
 459 1157 459 1157 424 1126 c 0,69,70
 336 1046 336 1046 336 885 c 0,50,51
EndSplineSet
EndChar
StartChar: colon
Encoding: 58 58 71
Width: 261
Flags: MW
HStem: 0 121<100.5 123.5> 325 121<126.5 150.5>
VStem: 57 110<47 73.5> 83 111<372.5 398.5>
LayerCount: 2
Back
Fore
SplineSet
108 0 m 0xe0
 77 0 57 25 57 57 c 0
 57 90 85 121 116 121 c 0
 145 121 167 96 167 65 c 0
 167 29 139 0 108 0 c 0xe0
135 325 m 0
 104 325 83 351 83 382 c 0
 83 415 111 446 142 446 c 0
 171 446 194 422 194 391 c 0xd0
 194 354 166 325 135 325 c 0
EndSplineSet
EndChar
StartChar: semicolon
Encoding: 59 59 30
Width: 636
GlyphClass: 2
Flags: W
LayerCount: 2
Back
Fore
SplineSet
184 -84 m 2,0,-1
 219 4 l 1,1,2
 201 37 201 37 205 80 c 0,3,4
 209 129 209 129 244 164 c 0,5,6
 283 203 283 203 330 203 c 0,7,8
 381 203 381 203 414 164 c 1,9,10
 449 125 449 125 443 67 c 0,11,12
 441 57 441 57 437.5 45 c 128,-1,13
 434 33 434 33 432 29 c 0,14,15
 412 -22 412 -22 397 -62 c 1,16,17
 389 -78 389 -78 383 -94.5 c 128,-1,18
 377 -111 377 -111 373 -123 c 1,19,20
 367 -137 367 -137 363 -152 c 1,21,22
 351 -185 351 -185 316 -203 c 128,-1,23
 281 -221 281 -221 240 -205 c 0,24,25
 203 -191 203 -191 186.5 -156 c 128,-1,26
 170 -121 170 -121 184 -84 c 2,0,-1
260 725 m 1,27,-1
 269 801 l 1,28,29
 273 850 273 850 309.5 882.5 c 128,-1,30
 346 915 346 915 396 911 c 0,31,32
 445 907 445 907 477.5 871 c 128,-1,33
 510 835 510 835 508 786 c 1,34,-1
 498 711 l 1,35,36
 494 664 494 664 458 630 c 128,-1,37
 422 596 422 596 373 600 c 256,38,39
 324 604 324 604 291 640 c 128,-1,40
 258 676 258 676 260 725 c 1,27,-1
EndSplineSet
EndChar
StartChar: less
Encoding: 60 60 109
Width: 566
Flags: MW
HStem: 7 21G<402 418.5> 472 20G<418.5 436>
LayerCount: 2
Back
Fore
SplineSet
379 15 m 2
 89 207 l 2
 74 217 68 231 68 248 c 0
 68 263 73 277 90 288 c 2
 397 484 l 2
 405 489 414 492 423 492 c 0
 449 492 471 471 471 443 c 0
 471 428 462 411 449 403 c 2
 204 247 l 1
 432 95 l 2
 446 85 454 71 454 55 c 0
 454 30 431 7 406 7 c 0
 398 7 387 10 379 15 c 2
EndSplineSet
EndChar
StartChar: equal
Encoding: 61 61 32
Width: 1062
GlyphClass: 2
Flags: W
LayerCount: 2
Back
Fore
SplineSet
158 342 m 256,0,1
 158 387 158 387 188.5 419 c 128,-1,2
 219 451 219 451 266 451 c 2,3,-1
 803 451 l 2,4,5
 848 451 848 451 878.5 419 c 128,-1,6
 909 387 909 387 909 342 c 256,7,8
 909 297 909 297 878.5 266.5 c 128,-1,9
 848 236 848 236 803 236 c 2,10,-1
 266 236 l 2,11,12
 219 236 219 236 188.5 266.5 c 128,-1,13
 158 297 158 297 158 342 c 256,0,1
158 680 m 256,14,15
 158 725 158 725 188.5 756.5 c 128,-1,16
 219 788 219 788 266 788 c 2,17,-1
 803 788 l 2,18,19
 848 788 848 788 878.5 756.5 c 128,-1,20
 909 725 909 725 909 680 c 256,21,22
 909 635 909 635 878.5 603 c 128,-1,23
 848 571 848 571 803 571 c 2,24,-1
 266 571 l 2,25,26
 219 571 219 571 188.5 603 c 128,-1,27
 158 635 158 635 158 680 c 256,14,15
EndSplineSet
EndChar
StartChar: greater
Encoding: 62 62 65
Width: 566
Flags: MW
HStem: 7 21G<125.5 142> 472 20G<108 125.5>
LayerCount: 2
Back
Fore
SplineSet
455 207 m 2
 165 15 l 2
 157 10 146 7 138 7 c 0
 113 7 90 30 90 55 c 0
 90 71 98 85 112 95 c 2
 340 247 l 1
 95 403 l 2
 82 411 73 428 73 443 c 0
 73 471 95 492 121 492 c 0
 130 492 139 489 147 484 c 2
 454 288 l 2
 471 277 476 263 476 248 c 0
 476 231 470 217 455 207 c 2
EndSplineSet
EndChar
StartChar: question
Encoding: 63 63 108
Width: 559
Flags: MW
HStem: 0 121<164 187.5> 522 169<92.5 314.5> 597 94<222 296>
VStem: 120 111<47 73.5> 378 93<442 509>
LayerCount: 2
Back
Fore
SplineSet
173 242 m 0xd8
 227 287 378 403 378 481 c 0
 378 537 344 597 248 597 c 0xb8
 196 597 162 563 137 535 c 0
 129 526 117 522 105 522 c 0
 80 522 57 541 57 570 c 0
 57 586 70 602 82 616 c 0
 114 650 172 691 248 691 c 0
 381 691 471 607 471 481 c 0
 471 371 397 316 342 265 c 0
 230 161 215 159 203 159 c 0
 177 159 156 180 156 206 c 0
 156 219 162 233 173 242 c 0xd8
172 0 m 0
 141 0 120 25 120 57 c 0
 120 90 149 121 179 121 c 0
 209 121 231 96 231 65 c 0
 231 29 203 0 172 0 c 0
EndSplineSet
EndChar
StartChar: at
Encoding: 64 64 85
Width: 854
Flags: MW
HStem: -85 93<368.5 456 368.5 464.5> -85 132<326.5 594> 86 95<572 587.5 572 598> 99 94<339.5 367.5 339.5 370> 342 93<375 409.5> 512 95<359.5 500>
VStem: 71 95<173 338 173 354> 221 94<221.5 265.5 221.5 290> 655 95<236.5 340>
LayerCount: 2
Back
Fore
SplineSet
549 35 m 0xaf80
 563 44 571 47 581 47 c 0
 607 47 628 26 628 0 c 0
 628 -15 623 -27 603 -42 c 0
 564 -70 507 -85 422 -85 c 0
 231 -85 71 60 71 253 c 0
 71 455 221 607 424 607 c 0
 606 607 750 467 750 283 c 0
 750 101 615 86 581 86 c 0x6f80
 523 86 477 113 452 147 c 1
 424 119 391 99 349 99 c 0x9f80
 259 99 221 162 221 239 c 0
 221 341 298 435 398 435 c 0
 430 435 462 426 494 406 c 0
 517 391 524 377 524 362 c 0
 524 343 513 327 498 320 c 1
 514 312 526 295 526 276 c 0
 526 261 519 248 519 230 c 0
 519 204 535 182 572 181 c 0
 603 181 655 190 655 283 c 0
 655 397 576 512 424 512 c 0
 295 512 166 423 166 253 c 0
 166 93 310 8 427 8 c 0
 485 8 519 16 549 35 c 0xaf80
435 293 m 0
 441 306 448 314 457 319 c 1
 441 330 420 342 399 342 c 0
 351 342 315 292 315 239 c 0
 315 204 330 193 349 193 c 0x9f80
 386 193 425 267 435 293 c 0
EndSplineSet
EndChar
StartChar: A
Encoding: 65 65 36
Width: 1290
GlyphClass: 2
Flags: W
LayerCount: 2
Back
Fore
SplineSet
106 444 m 0,0,1
 103 456 103 456 103 468 c 0,2,3
 104 498 104 498 122 524 c 0,4,5
 148 561 148 561 190 571 c 1,6,-1
 289 592 l 1,7,8
 363 791 363 791 422 948 c 0,9,10
 447 1016 447 1016 471.5 1079.5 c 128,-1,11
 496 1143 496 1143 514 1193 c 128,-1,12
 532 1243 532 1243 544 1275 c 2,13,-1
 557 1307 l 1,14,15
 569 1346 569 1346 603 1370.5 c 128,-1,16
 637 1395 637 1395 678 1395 c 0,17,18
 725 1395 725 1395 759 1366 c 128,-1,19
 793 1337 793 1337 803 1294 c 1,20,-1
 1182 139 l 2,21,22
 1188 122 1188 122 1188 106 c 0,23,24
 1188 82 1188 82 1176 58 c 0,25,26
 1156 18 1156 18 1114 4 c 1,27,28
 1098 0 1098 0 1083 0 c 0,29,30
 1057 0 1057 0 1032 12 c 0,31,32
 993 32 993 32 979 74 c 2,33,-1
 844 487 l 1,34,-1
 449 406 l 1,35,-1
 322 68 l 2,36,37
 306 26 306 26 266 8 c 0,38,39
 244 -2 244 -2 222 -1 c 0,40,41
 203 -1 203 -1 184 6 c 0,42,43
 144 22 144 22 124 62 c 0,44,45
 114 83 114 83 113 105 c 0,46,47
 113 124 113 124 121 143 c 2,48,-1
 201 358 l 1,49,50
 166 362 166 362 140.5 386 c 128,-1,51
 115 410 115 410 106 444 c 0,0,1
537 643 m 1,52,-1
 776 692 l 1,53,-1
 674 1004 l 1,54,-1
 537 643 l 1,52,-1
EndSplineSet
EndChar
StartChar: B
Encoding: 66 66 37
Width: 1234
GlyphClass: 2
Flags: W
LayerCount: 2
Back
Fore
SplineSet
133 113 m 2,0,-1
 133 1288 l 2,1,2
 133 1333 133 1333 164 1365 c 128,-1,3
 195 1397 195 1397 240 1397 c 2,4,-1
 573 1397 l 2,5,6
 780 1397 780 1397 899 1294 c 1,7,8
 1024 1192 1024 1192 1024 1006 c 0,9,10
 1024 904 1024 904 967 821 c 1,11,12
 957 809 957 809 945.5 796.5 c 128,-1,13
 934 784 934 784 922 770 c 1,14,15
 973 743 973 743 1010 709 c 0,16,17
 1069 656 1069 656 1101 586 c 128,-1,18
 1133 516 1133 516 1133 442 c 0,19,20
 1133 295 1133 295 1026 193 c 1,21,22
 946 115 946 115 797 66 c 0,23,24
 672 25 672 25 541 12.5 c 128,-1,25
 410 0 410 0 311 0 c 2,26,-1
 268 0 l 2,27,28
 254 0 254 0 240 2 c 1,29,30
 195 2 195 2 164 34 c 128,-1,31
 133 66 133 66 133 113 c 2,0,-1
346 221 m 1,32,33
 416 223 416 223 516 232.5 c 128,-1,34
 616 242 616 242 713 270 c 0,35,36
 768 286 768 286 809 305 c 128,-1,37
 850 324 850 324 877 350 c 1,38,39
 920 389 920 389 920 442 c 0,40,41
 920 491 920 491 896 525 c 128,-1,42
 872 559 872 559 825 584 c 1,43,44
 786 602 786 602 734 613.5 c 128,-1,45
 682 625 682 625 623 625 c 2,46,-1
 346 625 l 1,47,-1
 346 221 l 1,32,33
346 842 m 1,48,-1
 543 842 l 2,49,50
 598 842 598 842 648 853 c 128,-1,51
 698 864 698 864 733 881 c 1,52,53
 811 922 811 922 811 1006 c 0,54,55
 811 1082 811 1082 772 1118 c 1,56,57
 717 1177 717 1177 573 1178 c 1,58,-1
 346 1178 l 1,59,-1
 346 842 l 1,48,-1
EndSplineSet
EndChar
StartChar: C
Encoding: 67 67 38
Width: 1271
GlyphClass: 2
Flags: W
LayerCount: 2
Back
Fore
SplineSet
104 590 m 1,0,1
 103 606 103 606 103 622 c 0,2,3
 104 714 104 714 124 791 c 0,4,5
 148 881 148 881 166 928 c 0,6,7
 172 942 172 942 184.5 973 c 128,-1,8
 197 1004 197 1004 218.5 1043.5 c 128,-1,9
 240 1083 240 1083 269.5 1128.5 c 128,-1,10
 299 1174 299 1174 340 1217 c 1,11,12
 375 1258 375 1258 414 1287.5 c 128,-1,13
 453 1317 453 1317 494 1339 c 1,14,15
 586 1392 586 1392 692 1393 c 0,16,17
 774 1393 774 1393 848 1371.5 c 128,-1,18
 922 1350 922 1350 977 1315 c 128,-1,19
 1032 1280 1032 1280 1065 1235 c 128,-1,20
 1098 1190 1098 1190 1098 1143 c 2,21,-1
 1098 1090 l 2,22,23
 1098 1049 1098 1049 1069 1018 c 128,-1,24
 1040 987 1040 987 999 987 c 0,25,26
 960 987 960 987 930.5 1012.5 c 128,-1,27
 901 1038 901 1038 901 1079 c 0,28,29
 901 1106 901 1106 848 1140 c 128,-1,30
 795 1174 795 1174 694 1174 c 0,31,32
 659 1174 659 1174 629.5 1162.5 c 128,-1,33
 600 1151 600 1151 574.5 1135.5 c 128,-1,34
 549 1120 549 1120 529.5 1100.5 c 128,-1,35
 510 1081 510 1081 496 1067 c 0,36,37
 455 1022 455 1022 419 966.5 c 128,-1,38
 383 911 383 911 360 854 c 1,39,40
 342 806 342 806 326 738 c 0,41,42
 312 678 312 678 312 614 c 0,43,44
 312 606 312 606 313 597 c 0,45,46
 315 524 315 524 340 453.5 c 128,-1,47
 365 383 365 383 430 326 c 1,48,-1
 430 324 l 1,49,50
 541 220 541 220 662 217 c 1,51,-1
 686 219 l 1,52,-1
 692 219 l 1,53,54
 778 223 778 223 848 259 c 128,-1,55
 918 295 918 295 965 354 c 1,56,-1
 977 373 l 1,57,58
 1004 410 1004 410 1047 417 c 0,59,60
 1056 419 1056 419 1065 419 c 0,61,62
 1097 419 1097 419 1124 399 c 1,63,64
 1158 370 1158 370 1166 326 c 0,65,66
 1168 317 1168 317 1168 308 c 0,67,68
 1168 275 1168 275 1147 246 c 1,69,-1
 1135 225 l 1,70,71
 1067 137 1067 137 971 78 c 1,72,73
 912 43 912 43 843 23.5 c 128,-1,74
 774 4 774 4 700 0 c 1,75,-1
 672 0 l 2,76,77
 465 0 465 0 291 158 c 1,78,79
 191 252 191 252 145 369 c 1,80,81
 104 469 104 469 104 590 c 1,0,1
EndSplineSet
EndChar
StartChar: D
Encoding: 68 68 39
Width: 1261
GlyphClass: 2
Flags: W
LayerCount: 2
Back
Fore
SplineSet
133 109 m 2,0,-1
 133 1280 l 2,1,2
 133 1327 133 1327 164 1360 c 128,-1,3
 195 1393 195 1393 242 1393 c 2,4,-1
 260 1393 l 2,5,6
 291 1393 291 1393 342 1389.5 c 128,-1,7
 393 1386 393 1386 457.5 1375 c 128,-1,8
 522 1364 522 1364 595 1343.5 c 128,-1,9
 668 1323 668 1323 741 1288 c 0,10,11
 931 1196 931 1196 1038 1024 c 1,12,13
 1138 852 1138 852 1139 629 c 0,14,15
 1139 445 1139 445 1077 313 c 0,16,17
 1014 178 1014 178 885 94 c 1,18,19
 716 -20 716 -20 454 -20 c 0,20,21
 452 -20 452 -20 449 -20 c 0,22,23
 379 -20 379 -20 323.5 -14 c 128,-1,24
 268 -8 268 -8 240 -4 c 1,25,26
 234 -2 234 -2 228.5 -2 c 128,-1,27
 223 -2 223 -2 219 0 c 1,28,29
 213 0 213 0 211 2 c 1,30,31
 176 12 176 12 154.5 41 c 128,-1,32
 133 70 133 70 133 109 c 2,0,-1
346 203 m 1,33,34
 369 201 369 201 394.5 200 c 128,-1,35
 420 199 420 199 449 199 c 0,36,37
 517 199 517 199 606.5 213 c 128,-1,38
 696 227 696 227 770 276 c 256,39,40
 844 325 844 325 885 412 c 1,41,42
 924 498 924 498 924 629 c 0,43,44
 924 793 924 793 856 909 c 0,45,46
 788 1024 788 1024 649 1092 c 1,47,48
 567 1131 567 1131 486.5 1148 c 128,-1,49
 406 1165 406 1165 346 1169 c 1,50,-1
 346 203 l 1,33,34
EndSplineSet
EndChar
StartChar: E
Encoding: 69 69 40
Width: 1239
GlyphClass: 2
Flags: W
LayerCount: 2
Back
Fore
SplineSet
133 111 m 2,0,-1
 133 1284 l 2,1,2
 133 1329 133 1329 164 1361 c 128,-1,3
 195 1393 195 1393 238 1393 c 2,4,-1
 1012 1393 l 2,5,6
 1055 1393 1055 1393 1085.5 1361 c 128,-1,7
 1116 1329 1116 1329 1116 1284 c 0,8,9
 1116 1237 1116 1237 1085.5 1205.5 c 128,-1,10
 1055 1174 1055 1174 1012 1174 c 2,11,-1
 344 1174 l 1,12,-1
 344 827 l 1,13,-1
 924 827 l 2,14,15
 967 827 967 827 997.5 795.5 c 128,-1,16
 1028 764 1028 764 1028 717 c 0,17,18
 1028 672 1028 672 997.5 640 c 128,-1,19
 967 608 967 608 924 608 c 2,20,-1
 344 608 l 1,21,-1
 344 219 l 1,22,-1
 1008 219 l 2,23,24
 1051 219 1051 219 1082.5 187.5 c 128,-1,25
 1114 156 1114 156 1114 111 c 0,26,27
 1114 64 1114 64 1082.5 32 c 128,-1,28
 1051 0 1051 0 1008 0 c 2,29,-1
 238 0 l 2,30,31
 195 0 195 0 164 31.5 c 128,-1,32
 133 63 133 63 133 111 c 2,0,-1
EndSplineSet
EndChar
StartChar: F
Encoding: 70 70 52
Width: 571
Flags: MW
HStem: -1 21G<92 120> 301 100<156 422 156 422> 581 100<156 505 156 156>
VStem: 56 100<49 301 401 581>
LayerCount: 2
Back
Fore
SplineSet
156 301 m 1
 156 49 l 2
 156 21 134 -1 106 -1 c 0
 78 -1 56 21 56 49 c 2
 56 631 l 2
 56 659 78 681 106 681 c 2
 505 681 l 2
 533 681 554 659 554 631 c 0
 554 605 533 581 505 581 c 2
 156 581 l 1
 156 401 l 1
 422 401 l 2
 450 401 471 378 471 350 c 0
 471 324 450 301 422 301 c 2
 156 301 l 1
EndSplineSet
EndChar
StartChar: G
Encoding: 71 71 32
Width: 777
Flags: MW
HStem: -1 100<292.5 405 292.5 435.5> 206 116<415.5 567> 438 245<279 612.5> 583 100<296 429>
VStem: 58 100<281.5 370.5 281.5 415>
LayerCount: 2
Back
Fore
SplineSet
660 305 m 0xd8
 683 298 692 279 692 258 c 0
 692 229 669 210 645 209 c 1
 609 90 509 -1 362 -1 c 0
 175 -1 58 162 58 332 c 0
 58 498 181 683 377 683 c 0
 570 683 646 527 646 484 c 0
 646 456 627 438 598 438 c 0xe8
 575 438 559 448 550 470 c 0
 530 524 481 583 377 583 c 0
 215 583 158 409 158 332 c 0
 158 231 223 99 362 99 c 0
 448 99 515 145 545 223 c 1
 501 222 472 215 453 210 c 0
 444 208 437 206 428 206 c 0
 403 206 379 224 379 256 c 0
 379 277 391 296 414 304 c 0
 434 314 494 322 549 322 c 0
 585 322 622 317 660 305 c 0xd8
EndSplineSet
EndChar
StartChar: H
Encoding: 72 72 33
Width: 711
Flags: MW
HStem: 0 21G<97 125 562 589> 661 20G<97 125 562 589>
VStem: 62 100<49 271 372 632> 526 100<49 322 322 322 423 632>
LayerCount: 2
Back
Fore
SplineSet
576 681 m 0
 602 681 626 660 626 632 c 2
 626 49 l 2
 626 23 602 0 576 0 c 0
 548 0 526 23 526 49 c 2
 526 322 l 1
 162 271 l 1
 162 49 l 2
 162 23 139 0 111 0 c 0
 83 0 62 23 62 49 c 2
 62 632 l 2
 62 660 83 681 111 681 c 0
 139 681 162 660 162 632 c 2
 162 372 l 1
 526 423 l 1
 526 632 l 2
 526 660 548 681 576 681 c 0
EndSplineSet
EndChar
StartChar: I
Encoding: 73 73 44
Width: 917
GlyphClass: 2
Flags: W
LayerCount: 2
Back
Fore
SplineSet
123 104 m 0,0,1
 123 149 123 149 153.5 180 c 128,-1,2
 184 211 184 211 227 211 c 2,3,-1
 354 211 l 1,4,-1
 354 1186 l 1,5,-1
 227 1186 l 2,6,7
 184 1186 184 1186 153.5 1216.5 c 128,-1,8
 123 1247 123 1247 123 1290 c 0,9,10
 123 1335 123 1335 153.5 1366 c 128,-1,11
 184 1397 184 1397 227 1397 c 2,12,-1
 690 1397 l 2,13,14
 733 1397 733 1397 764 1366 c 128,-1,15
 795 1335 795 1335 795 1290 c 0,16,17
 795 1247 795 1247 764 1216.5 c 128,-1,18
 733 1186 733 1186 690 1186 c 2,19,-1
 565 1186 l 1,20,-1
 565 211 l 1,21,-1
 690 211 l 2,22,23
 733 211 733 211 764 180.5 c 128,-1,24
 795 150 795 150 795 104 c 0,25,26
 795 61 795 61 764 30.5 c 128,-1,27
 733 0 733 0 690 0 c 2,28,-1
 227 0 l 2,29,30
 184 0 184 0 153.5 30.5 c 128,-1,31
 123 61 123 61 123 104 c 0,0,1
EndSplineSet
EndChar
StartChar: J
Encoding: 74 74 35
Width: 498
Flags: MW
HStem: 0 100<207.5 271 207.5 301> 0 233<79.5 301> 578 99<212 417 226 317 417 430>
VStem: 45 100<159 195.5> 175 242 317 100<171 578> 317 149<171 641 578 641>
LayerCount: 2
Back
Fore
SplineSet
226 677 m 2xb8
 417 677 l 2xb8
 443 677 466 654 466 628 c 0xb2
 466 600 443 578 417 578 c 1
 417 171 l 2
 417 93 368 0 234 0 c 0
 67 0 45 137 45 181 c 0
 45 210 64 233 95 233 c 0x78
 123 233 145 211 145 183 c 0
 145 124 181 100 234 100 c 0
 308 100 317 150 317 171 c 2
 317 578 l 1xb4
 226 578 l 2
 198 578 175 600 175 628 c 0
 175 654 198 677 226 677 c 2xb8
EndSplineSet
EndChar
StartChar: K
Encoding: 75 75 36
Width: 596
Flags: MW
HStem: -1 21G<475 494.5> 0 21G<95.5 122> 661 20G<95.5 122> 662 20G<456.5 475.5>
VStem: 60 98<49 238 436 632>
LayerCount: 2
Back
Fore
SplineSet
451 9 m 2x98
 158 238 l 1
 158 49 l 2
 158 23 135 0 109 0 c 0
 82 0 60 23 60 49 c 2
 60 632 l 2
 60 660 82 681 109 681 c 0x68
 135 681 158 660 158 632 c 2
 158 436 l 1
 431 670 l 2
 439 677 450 682 463 682 c 0
 488 682 511 657 511 632 c 0
 511 618 507 606 494 595 c 2
 192 336 l 1
 511 87 l 2
 527 75 530 61 530 48 c 0
 530 20 508 -1 481 -1 c 0
 469 -1 459 3 451 9 c 2x98
EndSplineSet
EndChar
StartChar: L
Encoding: 76 76 37
Width: 503
Flags: MW
HStem: 11 100 661 20G<95 122>
VStem: 59 99<102 632 102 632 102 645>
LayerCount: 2
Back
Fore
SplineSet
434 22 m 2
 111 0 l 2
 84 -2 59 22 59 49 c 2
 59 632 l 2
 59 658 81 681 109 681 c 0
 135 681 158 658 158 632 c 2
 158 102 l 1
 426 121 l 2
 456 123 479 103 479 72 c 0
 479 48 459 24 434 22 c 2
EndSplineSet
EndChar
StartChar: M
Encoding: 77 77 48
Width: 1679
GlyphClass: 2
Flags: W
LayerCount: 2
Back
Fore
SplineSet
106 135 m 2,0,-1
 354 1307 l 2,1,2
 362 1344 362 1344 389 1367.5 c 128,-1,3
 416 1391 416 1391 453 1393 c 1,4,-1
 457 1393 l 2,5,6
 492 1393 492 1393 519.5 1372.5 c 128,-1,7
 547 1352 547 1352 557 1317 c 2,8,-1
 819 451 l 1,9,-1
 1122 1321 l 1,10,11
 1132 1354 1132 1354 1159 1373.5 c 128,-1,12
 1186 1393 1186 1393 1221 1393 c 2,13,-1
 1227 1393 l 1,14,15
 1262 1389 1262 1389 1288.5 1365 c 128,-1,16
 1315 1341 1315 1341 1321 1307 c 1,17,-1
 1573 135 l 2,18,19
 1576 122 1576 122 1576 110 c 0,20,21
 1576 81 1576 81 1560 54 c 0,22,23
 1536 16 1536 16 1495 6 c 0,24,25
 1487 4 1487 4 1473 4 c 0,26,27
 1436 4 1436 4 1407 27 c 1,28,29
 1376 56 1376 56 1370 88 c 2,30,-1
 1196 895 l 1,31,-1
 911 74 l 1,32,33
 901 41 901 41 874.5 21.5 c 128,-1,34
 848 2 848 2 813 2 c 2,35,-1
 811 2 l 1,36,37
 776 4 776 4 749.5 23.5 c 128,-1,38
 723 43 723 43 713 78 c 2,39,-1
 475 864 l 1,40,-1
 311 88 l 2,41,42
 303 51 303 51 274.5 27.5 c 128,-1,43
 246 4 246 4 209 4 c 0,44,45
 195 4 195 4 186 6 c 0,46,47
 144 16 144 16 120 54 c 0,48,49
 103 81 103 81 103 110 c 0,50,51
 103 123 103 123 106 135 c 2,0,-1
EndSplineSet
EndChar
StartChar: N
Encoding: 78 78 49
Width: 1249
GlyphClass: 2
Flags: W
LayerCount: 2
Back
Fore
SplineSet
133 1264 m 1,0,-1
 133 1268 l 2,1,2
 133 1321 133 1321 169 1358 c 128,-1,3
 205 1395 205 1395 256 1395 c 0,4,5
 299 1395 299 1395 332 1368 c 1,6,-1
 342 1358 l 1,7,8
 350 1348 350 1348 360 1333 c 0,9,10
 362 1331 362 1331 387 1290 c 128,-1,11
 412 1249 412 1249 450.5 1184.5 c 128,-1,12
 489 1120 489 1120 538.5 1038 c 128,-1,13
 588 956 588 956 639 870 c 0,14,15
 760 669 760 669 911 418 c 1,16,-1
 911 1288 l 2,17,18
 911 1333 911 1333 942 1364 c 128,-1,19
 973 1395 973 1395 1014 1395 c 0,20,21
 1057 1395 1057 1395 1086.5 1364 c 128,-1,22
 1116 1333 1116 1333 1116 1288 c 2,23,-1
 1116 133 l 2,24,25
 1116 78 1116 78 1078 38 c 128,-1,26
 1040 -2 1040 -2 987 -2 c 0,27,28
 952 -2 952 -2 922.5 15.5 c 128,-1,29
 893 33 893 33 877 66 c 1,30,-1
 340 967 l 1,31,-1
 340 106 l 2,32,33
 340 61 340 61 310.5 29.5 c 128,-1,34
 281 -2 281 -2 238 -2 c 256,35,36
 195 -2 195 -2 165 29.5 c 128,-1,37
 135 61 135 61 135 106 c 2,38,-1
 133 1264 l 1,0,-1
EndSplineSet
EndChar
StartChar: O
Encoding: 79 79 50
Width: 1335
GlyphClass: 2
Flags: W
LayerCount: 2
Back
Fore
SplineSet
125 707 m 0,0,1
 133 844 133 844 180 968 c 128,-1,2
 227 1092 227 1092 307 1190 c 1,3,4
 389 1286 389 1286 487 1339 c 1,5,6
 589 1396 589 1396 705 1397 c 0,7,8
 799 1397 799 1397 885 1356 c 128,-1,9
 971 1315 971 1315 1040 1241 c 1,10,11
 1132 1140 1132 1140 1176 996 c 0,12,13
 1212 881 1212 881 1212 755 c 0,14,15
 1212 724 1212 724 1210 692 c 0,16,17
 1200 555 1200 555 1153 431 c 128,-1,18
 1106 307 1106 307 1026 209 c 1,19,20
 942 111 942 111 848 59 c 1,21,22
 742 2 742 2 631 2 c 0,23,24
 535 2 535 2 448.5 42 c 128,-1,25
 362 82 362 82 295 158 c 1,26,27
 203 260 203 260 159 404 c 0,28,29
 123 521 123 521 123 648 c 0,30,31
 123 677 123 677 125 707 c 0,0,1
336 692 m 0,32,33
 335 672 335 672 335 653 c 0,34,35
 335 556 335 556 360 469 c 0,36,37
 389 367 389 367 449 303 c 0,38,39
 529 217 529 217 631 217 c 0,40,41
 697 217 697 217 758 253 c 128,-1,42
 819 289 819 289 872 356 c 1,43,44
 925 426 925 426 958 516 c 128,-1,45
 991 606 991 606 997 707 c 0,46,47
 998 726 998 726 998 746 c 0,48,49
 998 780 998 780 994 813 c 0,50,51
 987 866 987 866 971 920 c 0,52,53
 936 1031 936 1031 872 1094 c 1,54,55
 794 1180 794 1180 692 1180 c 0,56,57
 629 1180 629 1180 568.5 1145 c 128,-1,58
 508 1110 508 1110 459 1044 c 0,59,60
 406 974 406 974 374 884.5 c 128,-1,61
 342 795 342 795 336 692 c 0,32,33
EndSplineSet
EndChar
StartChar: P
Encoding: 80 80 51
Width: 1118
GlyphClass: 2
Flags: W
LayerCount: 2
Back
Fore
SplineSet
133 109 m 2,0,-1
 133 1278 l 2,1,2
 133 1321 133 1321 159.5 1351.5 c 128,-1,3
 186 1382 186 1382 227 1386 c 1,4,5
 231 1388 231 1388 267 1390.5 c 128,-1,6
 303 1393 303 1393 360 1393 c 0,7,8
 395 1393 395 1393 427 1392 c 128,-1,9
 459 1391 459 1391 492 1389 c 0,10,11
 793 1364 793 1364 940 1227 c 1,12,13
 969 1198 969 1198 990.5 1167.5 c 128,-1,14
 1012 1137 1012 1137 1026 1102 c 1,15,16
 1057 1034 1057 1034 1057 950 c 0,17,18
 1057 811 1057 811 973 702 c 0,19,20
 869 567 869 567 641 502 c 1,21,22
 555 475 555 475 475 465 c 128,-1,23
 395 455 395 455 342 451 c 1,24,-1
 342 109 l 2,25,26
 342 62 342 62 311.5 30 c 128,-1,27
 281 -2 281 -2 238 -2 c 256,28,29
 195 -2 195 -2 164 29.5 c 128,-1,30
 133 61 133 61 133 109 c 2,0,-1
342 670 m 1,31,32
 387 674 387 674 452.5 682 c 128,-1,33
 518 690 518 690 586 711 c 1,34,35
 713 748 713 748 778 807 c 1,36,37
 846 866 846 866 846 950 c 0,38,39
 846 1020 846 1020 799 1065 c 0,40,41
 756 1106 756 1106 672 1133.5 c 128,-1,42
 588 1161 588 1161 475 1169 c 1,43,44
 420 1175 420 1175 362 1176 c 1,45,-1
 342 1176 l 1,46,-1
 342 670 l 1,31,32
EndSplineSet
EndChar
StartChar: Q
Encoding: 81 81 42
Width: 740
Flags: MW
HStem: -22 21G<612 629> -2 97<282 347 282 364> -2 227<252 394.5> 583 97<314 427>
VStem: 49 103<255 390.5 255 413> 562 103<324.5 417.5>
LayerCount: 2
Back
Fore
SplineSet
573 114 m 1x5c
 645 68 l 2
 661 58 666 42 666 26 c 0
 666 -5 641 -22 617 -22 c 0x9c
 607 -22 598 -20 590 -15 c 2
 497 48 l 1
 448 16 393 -2 335 -2 c 0
 169 -2 49 143 49 313 c 0
 49 513 203 680 379 680 c 0
 544 680 665 536 665 364 c 0
 665 266 632 180 573 114 c 1x5c
403 108 m 1
 363 135 l 2
 344 148 341 160 341 176 c 0
 341 204 364 225 389 225 c 0x3c
 400 225 411 222 421 215 c 2
 489 170 l 1
 532 219 562 288 562 361 c 0
 562 474 482 583 372 583 c 0
 256 583 152 464 152 317 c 0
 152 193 229 95 335 95 c 0x5c
 359 95 382 100 403 108 c 1
EndSplineSet
EndChar
StartChar: R
Encoding: 82 82 53
Width: 1212
GlyphClass: 2
Flags: W
LayerCount: 2
Back
Fore
SplineSet
133 109 m 2,0,-1
 133 1278 l 2,1,2
 133 1319 133 1319 158.5 1350.5 c 128,-1,3
 184 1382 184 1382 225 1386 c 0,4,5
 229 1386 229 1386 270 1389.5 c 128,-1,6
 311 1393 311 1393 375 1393 c 0,7,8
 404 1393 404 1393 433.5 1392 c 128,-1,9
 463 1391 463 1391 492 1389 c 0,10,11
 797 1366 797 1366 942 1231 c 1,12,13
 999 1180 999 1180 1032 1104 c 1,14,15
 1063 1030 1063 1030 1063 946 c 0,16,17
 1063 782 1063 782 942 662 c 1,18,19
 881 605 881 605 784 555 c 1,20,21
 854 498 854 498 940 400.5 c 128,-1,22
 1026 303 1026 303 1098 158 c 1,23,24
 1109 133 1109 133 1109 108 c 0,25,26
 1109 91 1109 91 1104 74 c 0,27,28
 1092 31 1092 31 1051 12 c 1,29,30
 1028 0 1028 0 1004 0 c 0,31,32
 941 0 941 0 911 59 c 1,33,34
 870 145 870 145 822 209.5 c 128,-1,35
 774 274 774 274 728 320.5 c 128,-1,36
 682 367 682 367 643 396.5 c 128,-1,37
 604 426 604 426 580 440 c 0,38,39
 537 467 537 467 465 467 c 0,40,41
 455 467 455 467 443.5 466 c 128,-1,42
 432 465 432 465 420 463 c 0,43,44
 397 461 397 461 377.5 459 c 128,-1,45
 358 457 358 457 342 455 c 1,46,-1
 342 109 l 2,47,48
 342 62 342 62 311.5 31 c 128,-1,49
 281 0 281 0 238 0 c 256,50,51
 195 0 195 0 164 30.5 c 128,-1,52
 133 61 133 61 133 109 c 2,0,-1
342 668 m 1,53,54
 408 672 408 672 484.5 686 c 128,-1,55
 561 700 561 700 631 725 c 0,56,57
 742 766 742 766 799 819 c 1,58,59
 854 874 854 874 854 946 c 0,60,61
 854 1020 854 1020 803 1069 c 1,62,63
 758 1110 758 1110 674 1136.5 c 128,-1,64
 590 1163 590 1163 477 1174 c 0,65,66
 452 1176 452 1176 426.5 1177 c 128,-1,67
 401 1178 401 1178 375 1178 c 0,68,69
 367 1178 367 1178 358.5 1178 c 128,-1,70
 350 1178 350 1178 342 1176 c 1,71,-1
 342 668 l 1,53,54
EndSplineSet
EndChar
StartChar: S
Encoding: 83 83 44
Width: 624
Flags: MW
HStem: 0 96<276.5 335 276.5 359.5> 0 220<92.5 359.5> 483 199<269 509> 589 93<290.5 352.5>
VStem: 88 107<482 535 482 570> 441 106<161.5 212.5>
LayerCount: 2
Back
Fore
SplineSet
301 309 m 0xac
 202 335 88 387 88 500 c 0
 88 640 210 682 328 682 c 0
 405 682 544 655 544 535 c 0
 544 505 523 483 495 483 c 0xac
 470 483 451 502 447 525 c 0
 440 567 380 589 325 589 c 0
 256 589 195 566 195 504 c 0
 195 460 239 431 326 407 c 0
 474 366 547 299 547 201 c 0
 547 63 413 0 306 0 c 0
 194 0 97 62 61 145 c 0
 58 152 56 162 56 170 c 0
 56 197 78 220 107 220 c 0x5c
 132 220 149 205 157 183 c 0
 178 123 248 96 305 96 c 0
 365 96 441 127 441 196 c 0
 441 229 432 274 301 309 c 0xac
EndSplineSet
EndChar
StartChar: T
Encoding: 84 84 45
Width: 548
Flags: MW
HStem: 0 21G<245.5 272.5> 582 99<45 472 58 209 308 472 308 308>
VStem: 209 99<49 582>
LayerCount: 2
Back
Fore
SplineSet
472 681 m 2
 500 681 521 660 521 632 c 0
 521 605 500 582 472 582 c 2
 308 582 l 1
 308 49 l 2
 308 23 286 0 259 0 c 0
 232 0 209 23 209 49 c 2
 209 582 l 1
 58 582 l 2
 32 582 9 605 9 632 c 0
 9 660 32 681 58 681 c 2
 472 681 l 2
EndSplineSet
EndChar
StartChar: U
Encoding: 85 85 56
Width: 1372
GlyphClass: 2
Flags: W
LayerCount: 2
Back
Fore
SplineSet
134 926 m 0,0,1
 134 976 134 976 134 1024.5 c 128,-1,2
 134 1073 134 1073 134 1120 c 0,3,4
 135 1214 135 1214 137 1284 c 1,5,6
 137 1331 137 1331 168 1363 c 128,-1,7
 199 1395 199 1395 242 1395 c 256,8,9
 285 1395 285 1395 314.5 1363 c 128,-1,10
 344 1331 344 1331 346 1286 c 1,11,-1
 346 1282 l 1,12,13
 344 1214 344 1214 343 1122 c 0,14,15
 343 1091 343 1091 343 1060 c 0,16,17
 343 998 343 998 344 933 c 0,18,19
 346 836 346 836 349 743.5 c 128,-1,20
 352 651 352 651 360 582 c 1,21,22
 378 404 378 404 463 301 c 1,23,24
 547 205 547 205 668 205 c 2,25,-1
 705 205 l 2,26,27
 828 205 828 205 907 301 c 0,28,29
 993 405 993 405 1012 582 c 0,30,31
 1020 652 1020 652 1023 744 c 128,-1,32
 1026 836 1026 836 1027 932 c 0,33,34
 1027 980 1027 980 1027.5 1027 c 128,-1,35
 1028 1074 1028 1074 1027 1119 c 0,36,37
 1026 1210 1026 1210 1026 1278 c 2,38,-1
 1026 1284 l 2,39,40
 1026 1329 1026 1329 1056.5 1361 c 128,-1,41
 1087 1393 1087 1393 1130 1393 c 256,42,43
 1173 1393 1173 1393 1202 1362 c 1,44,45
 1231 1335 1231 1335 1235 1290 c 1,46,-1
 1235 1286 l 1,47,48
 1237 1216 1237 1216 1238 1121 c 0,49,50
 1238 1073 1238 1073 1238.5 1024.5 c 128,-1,51
 1239 976 1239 976 1238 926 c 0,52,53
 1237 826 1237 826 1233 728.5 c 128,-1,54
 1229 631 1229 631 1221 557 c 0,55,56
 1192 305 1192 305 1057 154 c 0,57,58
 987 76 987 76 898 37 c 128,-1,59
 809 -2 809 -2 705 -2 c 2,60,-1
 668 -2 l 2,61,62
 455 -2 455 -2 315 154 c 1,63,64
 247 228 247 228 206.5 330 c 128,-1,65
 166 432 166 432 152 557 c 0,66,67
 144 631 144 631 139.5 728.5 c 128,-1,68
 135 826 135 826 134 926 c 0,0,1
EndSplineSet
EndChar
StartChar: V
Encoding: 86 86 57
Width: 1075
GlyphClass: 2
Flags: W
LayerCount: 2
Back
Fore
SplineSet
27 1247 m 2,0,1
 21 1264 21 1264 21 1282 c 0,2,3
 21 1306 21 1306 32 1329 c 0,4,5
 51 1370 51 1370 92 1384 c 1,6,7
 106 1390 106 1390 125 1391 c 1,8,9
 160 1391 160 1391 186.5 1370.5 c 128,-1,10
 213 1350 213 1350 223 1317 c 2,11,-1
 512 426 l 1,12,-1
 852 1323 l 2,13,14
 864 1354 864 1354 889.5 1372.5 c 128,-1,15
 915 1391 915 1391 950 1391 c 0,16,17
 970 1391 970 1391 987 1382 c 1,18,19
 1028 1366 1028 1366 1046 1325 c 0,20,21
 1055 1304 1055 1304 1055 1282 c 0,22,23
 1055 1262 1055 1262 1047 1241 c 2,24,-1
 602 68 l 2,25,26
 590 37 590 37 564.5 18.5 c 128,-1,27
 539 0 539 0 506 0 c 2,28,-1
 502 0 l 2,29,30
 469 0 469 0 442.5 20.5 c 128,-1,31
 416 41 416 41 406 74 c 2,32,-1
 27 1247 l 2,0,1
EndSplineSet
EndChar
StartChar: W
Encoding: 87 87 58
Width: 1724
GlyphClass: 2
Flags: W
LayerCount: 2
Back
Fore
SplineSet
27 1253 m 2,0,1
 22 1269 22 1269 22 1285 c 0,2,3
 22 1311 22 1311 35 1336 c 0,4,5
 55 1376 55 1376 98 1389 c 1,6,7
 112 1395 112 1395 131 1395 c 0,8,9
 166 1395 166 1395 194.5 1373.5 c 128,-1,10
 223 1352 223 1352 233 1317 c 2,11,-1
 485 473 l 1,12,-1
 756 1319 l 1,13,14
 766 1354 766 1354 794.5 1374.5 c 128,-1,15
 823 1395 823 1395 858 1395 c 2,16,-1
 860 1395 l 1,17,18
 895 1393 895 1393 922.5 1371.5 c 128,-1,19
 950 1350 950 1350 961 1315 c 1,20,-1
 1192 469 l 1,21,-1
 1495 1323 l 1,22,23
 1505 1356 1505 1356 1533 1375.5 c 128,-1,24
 1561 1395 1561 1395 1595 1395 c 0,25,26
 1613 1395 1613 1395 1632 1389 c 1,27,28
 1675 1373 1675 1373 1694 1331 c 0,29,30
 1703 1310 1703 1310 1703 1285 c 0,31,32
 1703 1267 1703 1267 1698 1247 c 1,33,-1
 1280 70 l 2,34,35
 1268 37 1268 37 1240.5 17.5 c 128,-1,36
 1213 -2 1213 -2 1178 -2 c 2,37,-1
 1174 -2 l 1,38,39
 1139 0 1139 0 1111 21.5 c 128,-1,40
 1083 43 1083 43 1073 78 c 2,41,-1
 850 903 l 1,42,-1
 586 74 l 1,43,44
 576 39 576 39 547 18.5 c 128,-1,45
 518 -2 518 -2 483 -2 c 2,46,-1
 481 -2 l 2,47,48
 446 -2 446 -2 417.5 19.5 c 128,-1,49
 389 41 389 41 379 76 c 2,50,-1
 27 1253 l 2,0,1
EndSplineSet
EndChar
StartChar: X
Encoding: 88 88 49
Width: 707
Flags: MW
HStem: 0 21G<83 105 574.5 595.5> 661 20G<105 125 579 599>
LayerCount: 2
Back
Fore
SplineSet
410 345 m 1
 621 79 l 2
 629 69 630 60 630 49 c 0
 630 23 609 0 582 0 c 0
 567 0 553 6 543 18 c 2
 344 266 l 1
 135 18 l 2
 123 4 112 0 98 0 c 0
 68 0 48 24 48 49 c 0
 48 61 53 74 59 81 c 2
 282 346 l 1
 79 601 l 2
 73 609 67 619 67 632 c 0
 67 660 92 681 118 681 c 0
 132 681 146 675 156 663 c 2
 347 424 l 1
 548 663 l 2
 558 675 572 681 586 681 c 0
 612 681 636 658 636 632 c 0
 636 620 630 608 624 600 c 2
 410 345 l 1
EndSplineSet
EndChar
StartChar: Y
Encoding: 89 89 60
Width: 1234
GlyphClass: 2
Flags: W
LayerCount: 2
Back
Fore
SplineSet
46 1316 m 0,0,1
 57 1360 57 1360 96 1382 c 1,2,3
 125 1396 125 1396 152 1397 c 1,4,5
 213 1397 213 1397 246 1341 c 2,6,-1
 633 674 l 1,7,-1
 1030 1341 l 2,8,9
 1044 1366 1044 1366 1069 1380.5 c 128,-1,10
 1094 1395 1094 1395 1122 1395 c 0,11,12
 1153 1395 1153 1395 1180 1380 c 0,13,14
 1219 1357 1219 1357 1229 1313 c 1,15,16
 1234 1298 1234 1298 1234 1283 c 0,17,18
 1234 1256 1234 1256 1217 1231 c 1,19,-1
 518 53 l 1,20,21
 504 26 504 26 478.5 12 c 128,-1,22
 453 -2 453 -2 424 -2 c 256,23,24
 395 -2 395 -2 369 14 c 0,25,26
 330 37 330 37 319 82 c 0,27,28
 315 97 315 97 315 111 c 0,29,30
 315 138 315 138 330 164 c 2,31,-1
 506 459 l 1,32,-1
 57 1233 l 2,33,34
 42 1259 42 1259 42 1287 c 0,35,36
 42 1301 42 1301 46 1316 c 0,0,1
EndSplineSet
EndChar
StartChar: Z
Encoding: 90 90 61
Width: 1323
GlyphClass: 2
Flags: W
LayerCount: 2
Back
Fore
SplineSet
98 104 m 0,0,1
 98 135 98 135 117 164 c 1,2,-1
 891 1161 l 1,3,-1
 254 1161 l 2,4,5
 209 1161 209 1161 178 1195 c 128,-1,6
 147 1229 147 1229 147 1276 c 256,7,8
 147 1323 147 1323 176 1358 c 128,-1,9
 205 1393 205 1393 236 1393 c 2,10,-1
 1122 1393 l 2,11,12
 1163 1393 1163 1393 1192 1362 c 128,-1,13
 1221 1331 1221 1331 1221 1288 c 0,14,15
 1221 1251 1221 1251 1196 1221 c 1,16,-1
 428 231 l 1,17,-1
 1065 231 l 2,18,19
 1110 231 1110 231 1140.5 197.5 c 128,-1,20
 1171 164 1171 164 1171 117 c 256,21,22
 1171 70 1171 70 1140.5 35 c 128,-1,23
 1110 0 1110 0 1065 0 c 2,24,-1
 197 0 l 1,25,-1
 195 0 l 2,26,27
 154 0 154 0 126 30.5 c 128,-1,28
 98 61 98 61 98 104 c 0,0,1
EndSplineSet
EndChar
StartChar: bracketleft
Encoding: 91 91 77
Width: 341
Flags: MW
HStem: -113 97<92.5 216 154 216 154 216> 681 97<154 230 154 154>
VStem: 58 96<-16 681 -16 729 -16 742> 58 206<-64 -51.5 -78 729> 58 220<715.5 729 729 742>
LayerCount: 2
Back
Fore
SplineSet
216 -113 m 2xd0
 106 -113 l 2
 79 -113 58 -92 58 -64 c 2
 58 729 l 2
 58 755 79 778 106 778 c 2
 230 778 l 2
 256 778 278 755 278 729 c 0xc8
 278 702 256 681 230 681 c 2
 154 681 l 1
 154 -16 l 1xe0
 216 -16 l 2
 241 -16 264 -39 264 -64 c 0
 264 -92 241 -113 216 -113 c 2xd0
EndSplineSet
EndChar
StartChar: backslash
Encoding: 92 92 63
Width: 1159
GlyphClass: 2
Flags: W
LayerCount: 2
Back
Fore
SplineSet
143 1333 m 256,0,1
 131 1290 131 1290 153 1251 c 2,2,-1
 815 55 l 2,3,4
 829 30 829 30 854.5 15 c 128,-1,5
 880 0 880 0 909 0 c 0,6,7
 940 0 940 0 962 14 c 0,8,9
 1001 37 1001 37 1014.5 79 c 128,-1,10
 1028 121 1028 121 1005 162 c 2,11,-1
 342 1356 l 2,12,13
 328 1383 328 1383 302 1397 c 128,-1,14
 276 1411 276 1411 248 1411 c 0,15,16
 219 1411 219 1411 194 1399 c 1,17,18
 155 1376 155 1376 143 1333 c 256,0,1
EndSplineSet
EndChar
StartChar: bracketright
Encoding: 93 93 76
Width: 341
Flags: MW
HStem: -113 97<89 178 102 178 102 226> 681 97<103.5 226 116 178>
VStem: 54 220<-77 -64 -64 -50.5> 68 206<716.5 729> 178 96<-16 681 681 681>
LayerCount: 2
Back
Fore
SplineSet
116 778 m 2xd0
 226 778 l 2
 253 778 274 757 274 729 c 2
 274 -64 l 2
 274 -90 253 -113 226 -113 c 2
 102 -113 l 2
 76 -113 54 -90 54 -64 c 0xe0
 54 -37 76 -16 102 -16 c 2
 178 -16 l 1
 178 681 l 1xc8
 116 681 l 2
 91 681 68 704 68 729 c 0
 68 757 91 778 116 778 c 2xd0
EndSplineSet
EndChar
StartChar: asciicircum
Encoding: 94 94 124
Width: 526
Flags: MW
HStem: 359 21G<126.5 149 353.5 375.5> 628 20G<250 271.5>
LayerCount: 2
Back
Fore
SplineSet
100 431 m 2
 212 619 l 2
 222 636 239 648 261 648 c 0
 282 648 297 640 310 615 c 2
 403 431 l 2
 408 421 410 412 410 406 c 0
 410 380 389 359 362 359 c 0
 345 359 329 364 321 384 c 2
 259 541 l 1
 182 384 l 2
 173 366 158 359 140 359 c 0
 113 359 93 380 93 406 c 0
 93 414 95 422 100 431 c 2
EndSplineSet
EndChar
StartChar: underscore
Encoding: 95 95 95
Width: 516
Flags: MW
HStem: -51 96<10.5 469 24 469>
LayerCount: 2
Back
Fore
SplineSet
469 -51 m 2
 24 -51 l 2
 -3 -51 -24 -30 -24 -3 c 0
 -24 23 -3 45 24 45 c 2
 469 45 l 2
 495 45 517 23 517 -3 c 0
 517 -30 495 -51 469 -51 c 2
EndSplineSet
EndChar
StartChar: grave
Encoding: 96 96 138
Width: 526
Flags: MW
HStem: 521 21G<298.5 318> 719 20G<189 212>
LayerCount: 2
Back
Fore
SplineSet
272 536 m 2
 165 647 l 2
 155 657 149 669 149 685 c 0
 149 713 175 739 203 739 c 0
 221 739 237 729 247 717 c 2
 342 598 l 2
 351 586 354 578 354 568 c 0
 354 541 330 521 306 521 c 0
 291 521 280 527 272 536 c 2
EndSplineSet
EndChar
StartChar: a
Encoding: 97 97 2
Width: 531
Flags: MW
HStem: 0 21G<386 413> 7 96<204 259 204 260> 417 95<235.5 299.5>
VStem: 47 97<201 261.5 201 277.5> 350 97
LayerCount: 2
Back
Fore
SplineSet
447 466 m 1x78
 447 50 l 2
 447 24 427 0 399 0 c 0xb8
 373 0 357 15 352 35 c 1
 319 20 280 7 240 7 c 0
 130 7 47 95 47 226 c 0
 47 329 112 512 287 512 c 0
 359 512 429 475 447 466 c 1x78
349 144 m 1
 352 405 l 1
 335 412 310 417 289 417 c 0
 182 417 144 295 144 228 c 0
 144 174 169 103 239 103 c 0x78
 279 103 324 128 349 144 c 1
EndSplineSet
EndChar
StartChar: b
Encoding: 98 98 67
Width: 1095
GlyphClass: 2
Flags: W
LayerCount: 2
Back
Fore
SplineSet
133 109 m 2,0,-1
 133 1303 l 2,1,2
 133 1350 133 1350 165 1381.5 c 128,-1,3
 197 1413 197 1413 242 1413 c 256,4,5
 287 1413 287 1413 318.5 1381.5 c 128,-1,6
 350 1350 350 1350 350 1303 c 2,7,-1
 350 948 l 1,8,9
 360 954 360 954 372.5 961.5 c 128,-1,10
 385 969 385 969 397 973 c 1,11,12
 448 998 448 998 504.5 1010 c 128,-1,13
 561 1022 561 1022 618 1022 c 2,14,-1
 653 1022 l 1,15,16
 741 1018 741 1018 809 973 c 1,17,18
 842 953 842 953 868.5 924 c 128,-1,19
 895 895 895 895 918 860 c 1,20,21
 993 735 993 735 993 562 c 0,22,23
 993 524 993 524 989 458 c 0,24,25
 985 394 985 394 963 322 c 1,26,27
 934 232 934 232 879.5 167 c 128,-1,28
 825 102 825 102 748 57 c 1,29,30
 693 28 693 28 637.5 19 c 128,-1,31
 582 10 582 10 541 10 c 0,32,33
 492 10 492 10 442.5 18.5 c 128,-1,34
 393 27 393 27 350 39 c 1,35,-1
 332 45 l 1,36,37
 299 -2 299 -2 242 -2 c 0,38,39
 197 -2 197 -2 165 29.5 c 128,-1,40
 133 61 133 61 133 109 c 2,0,-1
350 258 m 1,41,42
 379 248 379 248 426 237.5 c 128,-1,43
 473 227 473 227 526 227 c 0,44,45
 600 227 600 227 651 254 c 0,46,47
 729 295 729 295 758 377 c 0,48,49
 774 420 774 420 778 468 c 128,-1,50
 782 516 782 516 782 557 c 0,51,52
 782 590 782 590 775 635 c 128,-1,53
 768 680 768 680 750 721 c 1,54,55
 721 780 721 780 688 791.5 c 128,-1,56
 655 803 655 803 643 803 c 2,57,-1
 625 803 l 2,58,59
 504 803 504 803 424 739 c 1,60,61
 350 682 350 682 350 600 c 2,62,-1
 350 258 l 1,41,42
EndSplineSet
EndChar
StartChar: c
Encoding: 99 99 68
Width: 1036
GlyphClass: 2
Flags: W
LayerCount: 2
Back
Fore
SplineSet
104 436 m 0,0,1
 104 444 104 444 104 452 c 0,2,3
 104 518 104 518 118 576 c 0,4,5
 134 640 134 640 152 684 c 0,6,7
 175 743 175 743 211.5 798.5 c 128,-1,8
 248 854 248 854 295 899 c 0,9,10
 420 1020 420 1020 563 1020 c 2,11,-1
 573 1020 l 2,12,13
 663 1020 663 1020 741 983 c 128,-1,14
 819 946 819 946 874 879 c 1,15,-1
 877 877 l 1,16,17
 897 846 897 846 897 813 c 0,18,19
 897 768 897 768 866.5 736.5 c 128,-1,20
 836 705 836 705 791 705 c 0,21,22
 766 705 766 705 744.5 716 c 128,-1,23
 723 727 723 727 709 743 c 1,24,-1
 707 745 l 1,25,26
 682 776 682 776 646 793.5 c 128,-1,27
 610 811 610 811 569 811 c 2,28,-1
 563 811 l 2,29,30
 524 811 524 811 491.5 787.5 c 128,-1,31
 459 764 459 764 440 745 c 0,32,33
 411 716 411 716 388 679.5 c 128,-1,34
 365 643 365 643 350 608 c 1,35,36
 316 522 316 522 316 452 c 0,37,38
 316 414 316 414 326 381 c 1,39,40
 336 340 336 340 355.5 315.5 c 128,-1,41
 375 291 375 291 393 274 c 0,42,43
 428 241 428 241 467 226 c 128,-1,44
 506 211 506 211 547 209 c 1,45,-1
 567 209 l 1,46,47
 637 213 637 213 688 246 c 0,48,49
 717 264 717 264 733 283 c 1,50,-1
 745 295 l 2,51,52
 761 311 761 311 782 322.5 c 128,-1,53
 803 334 803 334 827 334 c 0,54,55
 872 334 872 334 903 302 c 128,-1,56
 934 270 934 270 934 227 c 0,57,58
 934 186 934 186 907 156 c 2,59,-1
 893 141 l 2,60,61
 870 116 870 116 843.5 96 c 128,-1,62
 817 76 817 76 786 59 c 1,63,64
 739 30 739 30 686 17 c 128,-1,65
 633 4 633 4 575 0 c 1,66,-1
 573 0 l 1,67,-1
 553 0 l 2,68,69
 387 0 387 0 252 117 c 1,70,71
 174 183 174 183 137 272 c 0,72,73
 104 350 104 350 104 436 c 0,0,1
EndSplineSet
EndChar
StartChar: d
Encoding: 100 100 69
Width: 1091
GlyphClass: 2
Flags: W
LayerCount: 2
Back
Fore
SplineSet
104 492 m 2,0,-1
 104 496 l 1,1,2
 106 535 106 535 110.5 597 c 128,-1,3
 115 659 115 659 139 729 c 0,4,5
 198 907 198 907 356 987 c 0,6,7
 442 1030 442 1030 549 1030 c 2,8,-1
 559 1030 l 2,9,10
 645 1030 645 1030 735 999 c 1,11,-1
 741 1280 l 1,12,-1
 743 1303 l 1,13,14
 743 1350 743 1350 774 1381.5 c 128,-1,15
 805 1413 805 1413 852 1413 c 0,16,17
 897 1413 897 1413 927.5 1381.5 c 128,-1,18
 958 1350 958 1350 958 1303 c 2,19,-1
 958 1276 l 1,20,-1
 934 156 l 1,21,-1
 934 109 l 2,22,23
 934 62 934 62 902 30 c 128,-1,24
 870 -2 870 -2 825 -2 c 0,25,26
 784 -2 784 -2 752.5 25.5 c 128,-1,27
 721 53 721 53 717 94 c 1,28,29
 604 20 604 20 469 20 c 2,30,-1
 459 20 l 1,31,-1
 444 20 l 1,32,-1
 440 20 l 1,33,34
 350 26 350 26 283 74 c 0,35,36
 224 117 224 117 178 188 c 1,37,38
 142 252 142 252 122 330 c 0,39,40
 104 401 104 401 104 476 c 0,41,42
 104 484 104 484 104 492 c 2,0,-1
319 483 m 0,43,44
 319 476 319 476 319 468 c 0,45,46
 318 439 318 439 324 402 c 0,47,48
 332 356 332 356 348 315 c 1,49,50
 362 284 362 284 377.5 267 c 128,-1,51
 393 250 393 250 406.5 241.5 c 128,-1,52
 420 233 420 233 431 231 c 128,-1,53
 442 229 442 229 449 229 c 2,54,-1
 469 229 l 2,55,56
 571 229 571 229 653 287 c 0,57,58
 688 312 688 312 704.5 335 c 128,-1,59
 721 358 721 358 723 367 c 1,60,-1
 731 770 l 1,61,62
 700 786 700 786 651 801.5 c 128,-1,63
 602 817 602 817 549 817 c 0,64,65
 490 817 490 817 455 797 c 0,66,67
 373 752 373 752 347.5 673 c 128,-1,68
 322 594 322 594 319 483 c 0,43,44
EndSplineSet
EndChar
StartChar: e
Encoding: 101 101 70
Width: 1118
GlyphClass: 2
Flags: W
LayerCount: 2
Back
Fore
SplineSet
102 510 m 0,0,1
 102 610 102 610 138 700.5 c 128,-1,2
 174 791 174 791 236.5 859.5 c 128,-1,3
 299 928 299 928 383 970 c 128,-1,4
 467 1012 467 1012 563 1018 c 0,5,6
 581 1020 581 1020 599 1020 c 0,7,8
 697 1020 697 1020 778 973 c 0,9,10
 874 918 874 918 932 825 c 0,11,12
 942 809 942 809 949 792.5 c 128,-1,13
 956 776 956 776 965 762 c 1,14,15
 975 743 975 743 975 720 c 0,16,17
 975 707 975 707 972 691 c 0,18,19
 963 649 963 649 920 627 c 0,20,21
 883 607 883 607 816.5 569.5 c 128,-1,22
 750 532 750 532 672 489 c 128,-1,23
 594 446 594 446 514 401 c 128,-1,24
 434 356 434 356 371 322 c 1,25,26
 404 281 404 281 446 252 c 0,27,28
 512 207 512 207 596 207 c 0,29,30
 713 207 713 207 799 297 c 2,31,-1
 840 340 l 2,32,33
 869 369 869 369 911 369 c 0,34,35
 954 369 954 369 985 338 c 128,-1,36
 1016 307 1016 307 1016 266 c 0,37,38
 1016 229 1016 229 991 199 c 1,39,-1
 950 156 l 1,40,41
 880 80 880 80 788 39 c 1,42,43
 698 0 698 0 596 0 c 256,44,45
 494 0 494 0 403.5 40 c 128,-1,46
 313 80 313 80 246.5 148.5 c 128,-1,47
 180 217 180 217 141 310 c 128,-1,48
 102 403 102 403 102 510 c 0,0,1
309 524 m 1,49,50
 352 549 352 549 409.5 580.5 c 128,-1,51
 467 612 467 612 524.5 644 c 128,-1,52
 582 676 582 676 634 705.5 c 128,-1,53
 686 735 686 735 723 756 c 1,54,55
 670 809 670 809 600 813 c 1,56,57
 530 811 530 811 478 785.5 c 128,-1,58
 426 760 426 760 389 719 c 0,59,60
 315 635 315 635 309 524 c 1,49,50
EndSplineSet
EndChar
StartChar: f
Encoding: 102 102 8
Width: 397
Flags: MW
HStem: 0 21G<144.5 169.5> 408 92<205 318> 481 20G<62 110 110 110 206 206> 580 93<283.5 330.5 245.5 340>
VStem: 17 188 109 96<46 408> 109 244<46 467 408 467>
LayerCount: 2
Back
Fore
SplineSet
62 501 m 2xb8
 110 501 l 1
 116 630 177 673 314 673 c 0
 347 673 372 664 372 627 c 0
 372 602 355 580 325 580 c 0
 242 580 212 570 206 501 c 1xb8
 308 500 l 2
 328 500 353 480 353 454 c 0xd2
 353 430 333 408 308 408 c 2
 205 408 l 1
 205 46 l 2
 205 22 182 0 157 0 c 0
 132 0 109 22 109 46 c 2
 109 408 l 1
 63 408 l 2xd4
 39 408 17 430 17 454 c 0
 17 479 39 501 62 501 c 2xb8
EndSplineSet
EndChar
StartChar: g
Encoding: 103 103 72
Width: 1081
GlyphClass: 2
Flags: W
LayerCount: 2
Back
Fore
SplineSet
104 428 m 1,0,1
 102 454 102 454 102 479 c 0,2,3
 102 614 102 614 156 731 c 0,4,5
 193 809 193 809 252 872 c 1,6,7
 318 938 318 938 408 979 c 0,8,9
 496 1020 496 1020 588 1020 c 0,10,11
 629 1020 629 1020 664.5 1012 c 128,-1,12
 700 1004 700 1004 733 993 c 1,13,-1
 750 989 l 1,14,15
 764 1012 764 1012 787.5 1026 c 128,-1,16
 811 1040 811 1040 842 1040 c 0,17,18
 887 1040 887 1040 917.5 1009.5 c 128,-1,19
 948 979 948 979 948 934 c 2,20,-1
 948 895 l 1,21,22
 946 842 946 842 945 762 c 128,-1,23
 944 682 944 682 942 593 c 128,-1,24
 940 504 940 504 938 414 c 128,-1,25
 936 324 936 324 934 251 c 128,-1,26
 932 178 932 178 931 129 c 128,-1,27
 930 80 930 80 930 72 c 0,28,29
 924 -10 924 -10 898 -80 c 128,-1,30
 872 -150 872 -150 825 -203 c 256,31,32
 778 -256 778 -256 716.5 -289 c 128,-1,33
 655 -322 655 -322 582 -328 c 1,34,35
 562 -332 562 -332 542 -332 c 128,-1,36
 522 -332 522 -332 500 -332 c 0,37,38
 416 -332 416 -332 348 -319 c 1,39,-1
 317 -315 l 1,40,41
 272 -305 272 -305 246 -268 c 0,42,43
 228 -241 228 -241 228 -211 c 0,44,45
 228 -199 228 -199 231 -186 c 0,46,47
 241 -143 241 -143 278 -118 c 0,48,49
 305 -99 305 -99 334 -99 c 0,50,51
 346 -99 346 -99 358 -102 c 1,52,-1
 377 -104 l 2,53,54
 406 -108 406 -108 436.5 -111.5 c 128,-1,55
 467 -115 467 -115 500 -115 c 0,56,57
 516 -115 516 -115 530.5 -115 c 128,-1,58
 545 -115 545 -115 561 -113 c 0,59,60
 643 -105 643 -105 682 -31 c 0,61,62
 694 -8 694 -8 700.5 16.5 c 128,-1,63
 707 41 707 41 711 59 c 1,64,65
 705 55 705 55 699.5 53 c 128,-1,66
 694 51 694 51 688 47 c 0,67,68
 608 2 608 2 518 2 c 2,69,-1
 510 2 l 2,70,71
 332 2 332 2 215 150 c 0,72,73
 168 209 168 209 140.5 280.5 c 128,-1,74
 113 352 113 352 104 428 c 1,0,1
306 508 m 0,75,76
 306 489 306 489 306 474 c 0,77,78
 306 455 306 455 307 444 c 0,79,80
 311 403 311 403 327.5 361 c 128,-1,81
 344 319 344 319 367 287 c 1,82,83
 424 213 424 213 504 213 c 2,84,-1
 506 213 l 2,85,86
 537 213 537 213 575.5 225.5 c 128,-1,87
 614 238 614 238 649 276 c 1,88,89
 725 364 725 364 725 543 c 2,90,-1
 725 772 l 1,91,92
 707 782 707 782 673 793.5 c 128,-1,93
 639 805 639 805 598 805 c 0,94,95
 545 805 545 805 487 782 c 1,96,97
 366 727 366 727 326 606 c 0,98,99
 308 553 308 553 306 508 c 0,75,76
EndSplineSet
EndChar
StartChar: h
Encoding: 104 104 3
Width: 529
Flags: MW
HStem: -1 21G<96.5 122> 0 21G<394.5 422> 406 95<286.5 321.5> 652 20G<95.5 123.5>
VStem: 61 96<47 49 49 198 408 623> 364 95<139.5 271.5>
LayerCount: 2
Back
Fore
SplineSet
456 45 m 0xbc
 455 20 435 0 409 0 c 0x7c
 380 0 362 21 362 47 c 0
 362 73 364 100 364 163 c 0
 364 380 333 406 310 406 c 0
 245 406 183 297 169 269 c 0
 160 249 157 225 157 198 c 2
 157 49 l 2
 157 17 135 -1 109 -1 c 0
 84 -1 61 22 61 47 c 2
 61 623 l 2
 61 649 82 672 109 672 c 0
 138 672 157 649 157 623 c 2
 157 408 l 1
 199 461 257 501 316 501 c 0
 424 501 459 391 459 170 c 0
 459 109 459 73 456 45 c 0xbc
EndSplineSet
EndChar
StartChar: i
Encoding: 105 105 10
Width: 245
Flags: MW
HStem: 0 21G<99.5 126.5> 541 133<107.5 131.5>
VStem: 66 98
LayerCount: 2
Back
Fore
SplineSet
167 447 m 2
 162 49 l 2
 162 22 140 0 113 0 c 0
 86 0 64 22 64 49 c 2
 69 447 l 2
 69 474 91 496 118 496 c 0
 146 496 167 474 167 447 c 2
118 541 m 0
 92 541 70 564 71 590 c 2
 72 627 l 2
 73 653 95 674 120 674 c 0
 146 674 168 650 167 626 c 2
 166 588 l 2
 165 561 145 541 118 541 c 0
EndSplineSet
EndChar
StartChar: j
Encoding: 106 106 11
Width: 359
Flags: MW
HStem: -164 91<135 167 135 207> -164 209<21.5 207> 481 20G<213.5 240.5> 549 133<225.5 241.5>
VStem: 183 98
LayerCount: 2
Back
Fore
SplineSet
82 11 m 0x78
 94 -24 120 -73 150 -73 c 0xb8
 184 -73 186 -10 186 16 c 0
 186 28 184 122 183 220 c 0
 182 328 180 437 180 452 c 0
 180 480 199 501 228 501 c 0
 253 501 276 479 276 453 c 0
 276 445 278 362 279 272 c 0
 281 164 281 35 281 21 c 0
 281 -45 262 -164 152 -164 c 0
 48 -164 -2 -43 -10 -20 c 0
 -11 -16 -13 -9 -13 -3 c 0
 -13 22 7 45 36 45 c 0
 61 45 76 31 82 11 c 0x78
284 631 m 2
 280 588 l 2
 278 562 252 549 231 549 c 0
 203 549 183 574 185 599 c 2
 189 642 l 2
 192 667 214 682 237 682 c 0
 268 682 286 655 284 631 c 2
EndSplineSet
EndChar
StartChar: k
Encoding: 107 107 12
Width: 520
Flags: MW
HStem: 0 21G<98.5 125> 652 20G<97 124.5>
VStem: 62 96
LayerCount: 2
Back
Fore
SplineSet
455 84 m 0
 461 77 468 67 468 53 c 0
 468 26 449 3 420 3 c 0
 405 3 391 9 382 20 c 0
 327 94 247 197 218 233 c 1
 196 216 174 202 160 193 c 1
 160 48 l 2
 160 23 139 0 111 0 c 0
 86 0 63 23 63 48 c 2
 61 625 l 2
 61 651 84 672 110 672 c 0
 139 672 158 649 158 623 c 2
 159 299 l 1
 214 346 299 432 352 496 c 0
 361 507 373 516 391 516 c 0
 418 516 438 496 438 470 c 0
 438 457 433 447 428 441 c 0
 391 392 331 329 290 291 c 1
 358 206 420 128 455 84 c 0
EndSplineSet
EndChar
StartChar: l
Encoding: 108 108 77
Width: 483
GlyphClass: 2
Flags: W
LayerCount: 2
Back
Fore
SplineSet
133 109 m 2,0,-1
 133 1303 l 2,1,2
 133 1348 133 1348 165 1379.5 c 128,-1,3
 197 1411 197 1411 242 1411 c 0,4,5
 289 1411 289 1411 319.5 1379.5 c 128,-1,6
 350 1348 350 1348 350 1303 c 2,7,-1
 350 109 l 2,8,9
 350 62 350 62 319.5 31 c 128,-1,10
 289 0 289 0 242 0 c 0,11,12
 197 0 197 0 165 30.5 c 128,-1,13
 133 61 133 61 133 109 c 2,0,-1
EndSplineSet
EndChar
StartChar: m
Encoding: 109 109 78
Width: 1619
GlyphClass: 2
Flags: W
LayerCount: 2
Back
Fore
SplineSet
133 109 m 2,0,-1
 133 920 l 2,1,2
 133 965 133 965 165 996.5 c 128,-1,3
 197 1028 197 1028 242 1028 c 256,4,5
 287 1028 287 1028 318.5 996.5 c 128,-1,6
 350 965 350 965 350 920 c 2,7,-1
 350 887 l 1,8,9
 366 905 366 905 383.5 920.5 c 128,-1,10
 401 936 401 936 418 952 c 0,11,12
 531 1050 531 1050 637 1051 c 0,13,14
 739 1051 739 1051 807 1001 c 1,15,16
 858 966 858 966 891 905 c 1,17,18
 936 954 936 954 991 987 c 0,19,20
 1093 1050 1093 1050 1182 1051 c 1,21,22
 1311 1051 1311 1051 1389 969 c 1,23,24
 1487 871 1487 871 1487 659 c 2,25,-1
 1487 109 l 2,26,27
 1487 64 1487 64 1455 32 c 128,-1,28
 1423 0 1423 0 1378 0 c 256,29,30
 1333 0 1333 0 1301.5 31.5 c 128,-1,31
 1270 63 1270 63 1270 109 c 2,32,-1
 1270 672 l 2,33,34
 1270 705 1270 705 1263.5 754 c 128,-1,35
 1257 803 1257 803 1235 829 c 1,36,37
 1217 847 1217 847 1182 848 c 0,38,39
 1157 848 1157 848 1115 829.5 c 128,-1,40
 1073 811 1073 811 1034 776 c 0,41,42
 1001 747 1001 747 971.5 699 c 128,-1,43
 942 651 942 651 942 580 c 2,44,-1
 942 109 l 2,45,46
 942 64 942 64 910.5 32 c 128,-1,47
 879 0 879 0 834 0 c 256,48,49
 789 0 789 0 757 31.5 c 128,-1,50
 725 63 725 63 725 109 c 2,51,-1
 725 672 l 2,52,53
 725 705 725 705 719 754 c 128,-1,54
 713 803 713 803 690 829 c 1,55,56
 672 847 672 847 637 848 c 0,57,58
 602 848 602 848 525.5 790.5 c 128,-1,59
 449 733 449 733 365 594 c 0,60,61
 357 582 357 582 353.5 566.5 c 128,-1,62
 350 551 350 551 350 545 c 2,63,-1
 350 109 l 2,64,65
 350 64 350 64 318.5 32 c 128,-1,66
 287 0 287 0 242 0 c 256,67,68
 197 0 197 0 165 31.5 c 128,-1,69
 133 63 133 63 133 109 c 2,0,-1
EndSplineSet
EndChar
StartChar: n
Encoding: 110 110 15
Width: 561
Flags: MW
HStem: 0 21G<97 125 415 441.5> 404 95<303 335> 480 20G<99 124.5>
VStem: 62 95<46 50 50 134 36 452> 380 95<161 161 161 178 161 288>
LayerCount: 2
Back
Fore
SplineSet
158 452 m 2xb8
 158 395 l 1
 196 451 255 499 323 499 c 0
 456 499 477 392 475 161 c 2
 474 48 l 2
 474 23 455 0 428 0 c 0
 402 0 380 23 380 47 c 2
 380 178 l 2
 380 398 351 404 319 404 c 0xd8
 287 404 247 387 204 308 c 0
 175 254 157 194 157 134 c 2
 157 50 l 2
 157 22 140 0 110 0 c 0
 84 0 62 22 62 46 c 2
 62 452 l 2
 62 479 86 500 112 500 c 0
 137 500 158 479 158 452 c 2xb8
EndSplineSet
EndChar
StartChar: o
Encoding: 111 111 16
Width: 561
Flags: MW
HStem: 0 89<221.5 289.5 221.5 317.5> 411 89<242 309>
VStem: 48 97<194 280.5 194 304.5> 390 99<216.5 302.5>
LayerCount: 2
Back
Fore
SplineSet
254 0 m 0
 137 0 48 104 48 232 c 0
 48 377 155 500 282 500 c 0
 399 500 489 392 489 268 c 0
 489 122 381 0 254 0 c 0
278 411 m 0
 206 411 145 328 145 233 c 0
 145 155 189 89 254 89 c 0
 325 89 390 170 390 263 c 0
 390 342 340 411 278 411 c 0
EndSplineSet
EndChar
StartChar: p
Encoding: 112 112 81
Width: 1079
GlyphClass: 2
Flags: W
LayerCount: 2
Back
Fore
SplineSet
133 -260 m 2,0,-1
 133 918 l 2,1,2
 133 963 133 963 165 994.5 c 128,-1,3
 197 1026 197 1026 242 1026 c 0,4,5
 281 1026 281 1026 309.5 1001.5 c 128,-1,6
 338 977 338 977 348 942 c 1,7,-1
 350 942 l 1,8,9
 467 1010 467 1010 610 1010 c 2,10,-1
 633 1010 l 1,11,12
 721 1006 721 1006 791 961 c 0,13,14
 852 922 852 922 899 848 c 0,15,16
 977 723 977 723 977 547 c 0,17,18
 977 508 977 508 974 446.5 c 128,-1,19
 971 385 971 385 948 313 c 0,20,21
 893 139 893 139 733 53 c 0,22,23
 643 4 643 4 530 4 c 0,24,25
 481 4 481 4 436 12 c 128,-1,26
 391 20 391 20 350 33 c 1,27,-1
 350 -260 l 2,28,29
 350 -305 350 -305 318.5 -337 c 128,-1,30
 287 -369 287 -369 242 -369 c 256,31,32
 197 -369 197 -369 165 -337 c 128,-1,33
 133 -305 133 -305 133 -260 c 2,0,-1
350 264 m 1,34,35
 383 250 383 250 432 236.5 c 128,-1,36
 481 223 481 223 535 223 c 0,37,38
 596 223 596 223 641 246 c 0,39,40
 717 285 717 285 748 369 c 0,41,42
 764 412 764 412 768 459 c 128,-1,43
 772 506 772 506 772 547 c 0,44,45
 772 572 772 572 766 614.5 c 128,-1,46
 760 657 760 657 744.5 699 c 128,-1,47
 729 741 729 741 702.5 772 c 128,-1,48
 676 803 676 803 633 805 c 1,49,-1
 614 805 l 2,50,51
 508 805 508 805 424 752 c 1,52,53
 395 736 395 736 377.5 717 c 128,-1,54
 360 698 360 698 350 686 c 1,55,-1
 350 264 l 1,34,35
EndSplineSet
EndChar
StartChar: q
Encoding: 113 113 82
Width: 1085
GlyphClass: 2
Flags: W
LayerCount: 2
Back
Fore
SplineSet
106 522 m 0,0,1
 137 792 137 792 313 926 c 1,2,3
 452 1028 452 1028 659 1028 c 0,4,5
 679 1028 679 1028 699 1028 c 128,-1,6
 719 1028 719 1028 739 1026 c 2,7,-1
 768 1022 l 1,8,9
 799 1057 799 1057 846 1057 c 0,10,11
 891 1057 891 1057 921.5 1025 c 128,-1,12
 952 993 952 993 952 950 c 1,13,-1
 909 -238 l 1,14,15
 909 -283 909 -283 878.5 -314.5 c 128,-1,16
 848 -346 848 -346 803 -346 c 256,17,18
 758 -346 758 -346 726 -314.5 c 128,-1,19
 694 -283 694 -283 694 -238 c 1,20,-1
 705 39 l 1,21,22
 676 23 676 23 637 12.5 c 128,-1,23
 598 2 598 2 547 2 c 2,24,-1
 522 2 l 1,25,26
 426 8 426 8 347 45 c 128,-1,27
 268 82 268 82 211 152 c 1,28,29
 150 224 150 224 122 322 c 0,30,31
 102 391 102 391 102 461 c 0,32,33
 102 491 102 491 106 522 c 0,0,1
311 498 m 0,34,35
 309 481 309 481 309 464 c 0,36,37
 309 422 309 422 320 382 c 0,38,39
 334 326 334 326 369 285 c 0,40,41
 430 211 430 211 530 211 c 0,42,43
 561 211 561 211 593 217 c 128,-1,44
 625 223 625 223 652.5 241.5 c 128,-1,45
 680 260 680 260 697.5 292 c 128,-1,46
 715 324 715 324 719 375 c 1,47,-1
 733 817 l 1,48,49
 713 819 713 819 694 820 c 128,-1,50
 675 821 675 821 659 821 c 0,51,52
 520 821 520 821 438 760 c 1,53,54
 336 682 336 682 311 498 c 0,34,35
EndSplineSet
EndChar
StartChar: r
Encoding: 114 114 83
Width: 888
GlyphClass: 2
Flags: W
LayerCount: 2
Back
Fore
SplineSet
133 106 m 2,0,-1
 133 932 l 2,1,2
 133 979 133 979 165 1009.5 c 128,-1,3
 197 1040 197 1040 242 1040 c 0,4,5
 289 1040 289 1040 319.5 1009.5 c 128,-1,6
 350 979 350 979 350 932 c 2,7,-1
 350 915 l 1,8,9
 379 946 379 946 415 971.5 c 128,-1,10
 451 997 451 997 492 1010 c 1,11,12
 547 1030 547 1030 600 1030 c 0,13,14
 680 1030 680 1030 735 987 c 0,15,16
 807 932 807 932 807 844 c 2,17,-1
 807 784 l 2,18,19
 807 741 807 741 776 709.5 c 128,-1,20
 745 678 745 678 700 678 c 256,21,22
 655 678 655 678 624.5 709.5 c 128,-1,23
 594 741 594 741 594 784 c 2,24,-1
 594 815 l 1,25,-1
 590 815 l 2,26,27
 586 815 586 815 576.5 814 c 128,-1,28
 567 813 567 813 553 809 c 0,29,30
 518 799 518 799 477 763 c 128,-1,31
 436 727 436 727 403 678 c 256,32,33
 370 629 370 629 361 595 c 128,-1,34
 352 561 352 561 350 553 c 1,35,-1
 350 106 l 2,36,37
 350 61 350 61 319.5 29.5 c 128,-1,38
 289 -2 289 -2 242 -2 c 0,39,40
 197 -2 197 -2 165 29.5 c 128,-1,41
 133 61 133 61 133 106 c 2,0,-1
EndSplineSet
EndChar
StartChar: s
Encoding: 115 115 84
Width: 954
GlyphClass: 2
Flags: W
LayerCount: 2
Back
Fore
SplineSet
102 293 m 0,0,1
 102 328 102 328 122.5 354.5 c 128,-1,2
 143 381 143 381 178 391 c 0,3,4
 194 395 194 395 207 395 c 0,5,6
 238 395 238 395 261.5 374.5 c 128,-1,7
 285 354 285 354 299 324 c 1,8,9
 322 267 322 267 368 230 c 128,-1,10
 414 193 414 193 481 193 c 0,11,12
 501 193 501 193 529 200 c 128,-1,13
 557 207 557 207 581.5 222.5 c 128,-1,14
 606 238 606 238 622.5 260.5 c 128,-1,15
 639 283 639 283 639 313 c 0,16,17
 639 344 639 344 620.5 365.5 c 128,-1,18
 602 387 602 387 574.5 402.5 c 128,-1,19
 547 418 547 418 517 427 c 128,-1,20
 487 436 487 436 467 442 c 0,21,22
 309 487 309 487 238 557 c 1,23,24
 156 633 156 633 156 754 c 0,25,26
 156 901 156 901 287 977 c 0,27,28
 348 1012 348 1012 412.5 1020 c 128,-1,29
 477 1028 477 1028 512 1028 c 0,30,31
 709 1028 709 1028 793 918 c 0,32,33
 844 850 844 850 844 766 c 0,34,35
 844 727 844 727 819.5 699.5 c 128,-1,36
 795 672 795 672 758 666 c 0,37,38
 750 665 750 665 742 665 c 0,39,40
 716 665 716 665 689 679 c 0,41,42
 653 698 653 698 641 756 c 0,43,44
 631 805 631 805 592 824.5 c 128,-1,45
 553 844 553 844 502 844 c 0,46,47
 484 844 484 844 458 839 c 128,-1,48
 432 834 432 834 408.5 823.5 c 128,-1,49
 385 813 385 813 369.5 793.5 c 128,-1,50
 354 774 354 774 354 748 c 0,51,52
 354 719 354 719 373.5 699.5 c 128,-1,53
 393 680 393 680 418.5 666.5 c 128,-1,54
 444 653 444 653 471 646 c 128,-1,55
 498 639 498 639 514 635 c 0,56,57
 688 588 688 588 765 513 c 128,-1,58
 842 438 842 438 842 311 c 0,59,60
 842 186 842 186 739 94 c 1,61,62
 690 47 690 47 623.5 22.5 c 128,-1,63
 557 -2 557 -2 481 -2 c 0,64,65
 377 -2 377 -2 308.5 35 c 128,-1,66
 240 72 240 72 201 109 c 1,67,68
 156 150 156 150 129 201 c 128,-1,69
 102 252 102 252 102 293 c 0,0,1
EndSplineSet
EndChar
StartChar: t
Encoding: 116 116 85
Width: 796
GlyphClass: 2
Flags: W
LayerCount: 2
Back
Fore
SplineSet
41 924 m 0,0,1
 41 969 41 969 72.5 1000.5 c 128,-1,2
 104 1032 104 1032 150 1032 c 2,3,-1
 291 1032 l 1,4,-1
 291 1241 l 2,5,6
 291 1286 291 1286 321.5 1317 c 128,-1,7
 352 1348 352 1348 399 1348 c 0,8,9
 444 1348 444 1348 475 1317 c 128,-1,10
 506 1286 506 1286 506 1241 c 2,11,-1
 506 1032 l 1,12,-1
 647 1032 l 2,13,14
 694 1032 694 1032 725 1000.5 c 128,-1,15
 756 969 756 969 756 924 c 0,16,17
 756 877 756 877 725 846 c 128,-1,18
 694 815 694 815 647 815 c 2,19,-1
 506 815 l 1,20,-1
 506 106 l 2,21,22
 506 61 506 61 475 30.5 c 128,-1,23
 444 0 444 0 399 0 c 0,24,25
 352 0 352 0 321.5 30.5 c 128,-1,26
 291 61 291 61 291 106 c 2,27,-1
 291 815 l 1,28,-1
 150 815 l 2,29,30
 105 815 105 815 73 846 c 128,-1,31
 41 877 41 877 41 924 c 0,0,1
EndSplineSet
EndChar
StartChar: u
Encoding: 117 117 22
Width: 538
Flags: MW
HStem: -3 90<204 247.5> 0 21G<391.5 418> 480 20G<107.5 132.5 393 417.5>
VStem: 62 94<287 287> 357 96
LayerCount: 2
Back
Fore
SplineSet
453 454 m 2xb8
 453 48 l 2
 453 23 431 0 405 0 c 0x78
 378 0 359 17 354 40 c 1
 320 16 273 -3 222 -3 c 0
 123 -3 64 22 62 287 c 0
 61 360 68 414 73 449 c 0
 79 492 95 500 120 500 c 0
 145 500 168 485 168 453 c 0
 168 445 167 439 166 431 c 0
 163 401 156 351 156 288 c 0
 156 114 186 87 222 87 c 0
 276 87 333 125 350 144 c 0
 354 148 356 158 356 169 c 2
 358 454 l 2
 358 481 381 500 405 500 c 0
 430 500 453 481 453 454 c 2xb8
EndSplineSet
EndChar
StartChar: v
Encoding: 118 118 23
Width: 462
Flags: MW
HStem: -1 21G<209 233.5> 479 20G<44.5 69.5> 480 20G<374.5 399.5>
LayerCount: 2
Back
Fore
SplineSet
428 432 m 2xa0
 266 29 l 2
 258 10 246 -1 221 -1 c 0
 197 -1 186 11 177 32 c 2
 12 434 l 2
 10 440 9 446 9 454 c 0
 9 478 31 499 58 499 c 0xc0
 81 499 95 487 103 467 c 2
 221 169 l 1
 340 470 l 2
 347 488 364 500 385 500 c 0
 414 500 433 477 433 453 c 0
 433 446 431 440 428 432 c 2xa0
EndSplineSet
EndChar
StartChar: w
Encoding: 119 119 24
Width: 620
Flags: MW
HStem: 0 21G<133 157.5 391.5 415> 479 20G<521 544.5> 480 20G<47 73 285 308>
LayerCount: 2
Back
Fore
SplineSet
406 202 m 1xa0
 485 462 l 2
 491 482 510 499 532 499 c 0xc0
 557 499 580 480 580 454 c 0
 580 446 579 441 577 435 c 2
 449 36 l 2
 442 15 427 0 403 0 c 0
 380 0 363 11 356 37 c 2
 289 299 l 1
 193 35 l 2
 185 12 168 0 147 0 c 0
 119 0 104 15 99 39 c 2
 16 434 l 2
 14 444 13 450 13 458 c 0
 13 479 34 500 60 500 c 0
 86 500 103 483 107 460 c 2
 158 207 l 1
 248 465 l 2
 255 486 274 500 296 500 c 0
 320 500 338 489 344 465 c 2
 406 202 l 1xa0
EndSplineSet
EndChar
StartChar: x
Encoding: 120 120 25
Width: 536
Flags: MW
HStem: 0 21G<429 448> 1 21G<46 65> 480 20G<83 102>
LayerCount: 2
Back
Fore
SplineSet
487 417 m 2x60
 327 253 l 1
 473 78 l 2
 480 69 483 59 483 48 c 0
 483 21 461 0 435 0 c 0xa0
 423 0 409 5 400 15 c 2
 258 189 l 1
 94 15 l 2
 83 3 71 1 59 1 c 0
 33 1 12 24 12 49 c 0
 12 61 14 72 26 84 c 2
 196 259 l 1
 62 419 l 2
 54 428 49 440 49 451 c 0
 49 477 70 500 96 500 c 0
 108 500 121 497 132 484 c 2
 264 322 l 1
 418 483 l 2
 429 494 441 498 453 498 c 0
 478 498 501 475 501 450 c 0
 501 437 495 425 487 417 c 2x60
EndSplineSet
EndChar
StartChar: y
Encoding: 121 121 90
Width: 1013
GlyphClass: 2
Flags: W
LayerCount: 2
Back
Fore
SplineSet
47 951 m 0,0,1
 61 993 61 993 102 1014 c 1,2,3
 125 1024 125 1024 148 1024 c 0,4,5
 167 1024 167 1024 185 1018 c 0,6,7
 227 1004 227 1004 248 963 c 2,8,-1
 516 424 l 1,9,-1
 764 958 l 1,10,11
 780 999 780 999 822 1016 c 0,12,13
 843 1024 843 1024 864 1024 c 256,14,15
 885 1024 885 1024 905 1016 c 0,16,17
 946 998 946 998 962 956 c 0,18,19
 971 934 971 934 971 913 c 256,20,21
 971 892 971 892 963 872 c 1,22,-1
 434 -270 l 2,23,24
 416 -311 416 -311 374 -326 c 1,25,26
 355 -334 355 -334 335 -334 c 0,27,28
 313 -334 313 -334 291 -324 c 0,29,30
 250 -306 250 -306 234 -264 c 0,31,32
 226 -244 226 -244 226 -224 c 0,33,34
 226 -202 226 -202 236 -180 c 2,35,-1
 399 172 l 1,36,-1
 53 868 l 2,37,38
 41 892 41 892 41 917 c 0,39,40
 41 934 41 934 47 951 c 0,0,1
EndSplineSet
EndChar
StartChar: z
Encoding: 122 122 91
Width: 1064
GlyphClass: 2
Flags: W
LayerCount: 2
Back
Fore
SplineSet
102 100 m 0,0,1
 102 139 102 139 127 168 c 1,2,-1
 633 805 l 1,3,-1
 256 805 l 2,4,5
 211 805 211 805 179 835.5 c 128,-1,6
 147 866 147 866 147 913 c 0,7,8
 147 958 147 958 179 990 c 128,-1,9
 211 1022 211 1022 256 1022 c 2,10,-1
 862 1022 l 2,11,12
 903 1022 903 1022 933 992.5 c 128,-1,13
 963 963 963 963 963 920 c 0,14,15
 963 885 963 885 942 858 c 2,16,-1
 434 217 l 1,17,-1
 834 217 l 2,18,19
 881 217 881 217 911.5 186.5 c 128,-1,20
 942 156 942 156 942 109 c 0,21,22
 942 64 942 64 911.5 32 c 128,-1,23
 881 0 881 0 834 0 c 2,24,-1
 203 0 l 2,25,26
 162 0 162 0 132 29.5 c 128,-1,27
 102 59 102 59 102 100 c 0,0,1
EndSplineSet
EndChar
StartChar: braceleft
Encoding: 123 123 83
Width: 402
Flags: MW
VStem: 125 94<43 228 452 453 453 624> 125 205<-82 229>
LayerCount: 2
Back
Fore
SplineSet
77 383 m 0x40
 116 403 125 423 125 452 c 2
 125 624 l 2
 125 726 210 769 275 779 c 0
 308 785 330 760 330 732 c 0x40
 330 707 316 691 288 685 c 0
 263 680 219 665 219 624 c 2
 219 453 l 2
 219 406 203 368 177 340 c 1
 200 312 219 273 219 228 c 2
 219 43 l 2x80
 219 2 263 -14 289 -18 c 0
 313 -23 330 -42 330 -65 c 0
 330 -99 304 -118 269 -112 c 0
 206 -99 125 -59 125 43 c 2
 125 229 l 2
 125 264 104 287 79 297 c 0
 56 305 48 320 48 339 c 0
 48 364 55 373 77 383 c 0x40
EndSplineSet
EndChar
StartChar: bar
Encoding: 124 124 93
Width: 495
GlyphClass: 2
Flags: W
LayerCount: 2
Back
Fore
SplineSet
139 -176 m 2,0,-1
 139 1573 l 2,1,2
 139 1618 139 1618 171 1648.5 c 128,-1,3
 203 1679 203 1679 248 1679 c 256,4,5
 293 1679 293 1679 323.5 1648.5 c 128,-1,6
 354 1618 354 1618 354 1573 c 2,7,-1
 354 -176 l 2,8,9
 354 -221 354 -221 323.5 -253 c 128,-1,10
 293 -285 293 -285 248 -285 c 256,11,12
 203 -285 203 -285 171 -253 c 128,-1,13
 139 -221 139 -221 139 -176 c 2,0,-1
EndSplineSet
EndChar
StartChar: braceright
Encoding: 125 125 94
Width: 860
GlyphClass: 2
Flags: W
LayerCount: 2
Back
Fore
SplineSet
111 -154 m 0,0,1
 111 -201 111 -201 142.5 -232.5 c 128,-1,2
 174 -264 174 -264 221 -264 c 0,3,4
 233 -264 233 -264 240 -262 c 1,5,-1
 250 -262 l 1,6,7
 293 -252 293 -252 349.5 -231.5 c 128,-1,8
 406 -211 406 -211 457 -168 c 0,9,10
 570 -74 570 -74 570 78 c 2,11,-1
 570 477 l 2,12,13
 570 483 570 483 567 485 c 1,14,15
 567 487 567 487 568.5 501.5 c 128,-1,16
 570 516 570 516 580 535 c 1,17,18
 603 588 603 588 664 612 c 1,19,20
 670 616 670 616 675 618.5 c 128,-1,21
 680 621 680 621 686 625 c 0,22,23
 735 658 735 658 735 717 c 256,24,25
 735 776 735 776 686 809 c 0,26,27
 680 813 680 813 675 815 c 128,-1,28
 670 817 670 817 664 821 c 1,29,30
 603 846 603 846 580 899 c 1,31,32
 570 919 570 919 568.5 933.5 c 128,-1,33
 567 948 567 948 567 950 c 1,34,35
 569 950 569 950 570 956 c 1,36,-1
 570 1325 l 2,37,38
 570 1477 570 1477 457 1571 c 0,39,40
 406 1614 406 1614 349.5 1634.5 c 128,-1,41
 293 1655 293 1655 250 1665 c 1,42,-1
 240 1665 l 1,43,44
 234 1667 234 1667 221 1667 c 0,45,46
 174 1667 174 1667 142.5 1635.5 c 128,-1,47
 111 1604 111 1604 111 1556 c 0,48,49
 111 1515 111 1515 136.5 1484.5 c 128,-1,50
 162 1454 162 1454 203 1448 c 1,51,-1
 209 1446 l 1,52,53
 229 1442 229 1442 255 1433.5 c 128,-1,54
 281 1425 281 1425 303 1409 c 0,55,56
 346 1380 346 1380 346 1325 c 2,57,-1
 346 961 l 1,58,59
 342 910 342 910 361.5 843 c 128,-1,60
 381 776 381 776 434 717 c 1,61,62
 391 668 391 668 371 608 c 1,63,64
 353 561 353 561 349.5 526.5 c 128,-1,65
 346 492 346 492 346 475 c 2,66,-1
 346 78 l 2,67,68
 346 23 346 23 303 -6 c 0,69,70
 280 -22 280 -22 255 -30.5 c 128,-1,71
 230 -39 230 -39 209 -43 c 1,72,-1
 203 -45 l 1,73,74
 162 -51 162 -51 136.5 -82 c 128,-1,75
 111 -113 111 -113 111 -154 c 0,0,1
EndSplineSet
EndChar
StartChar: asciitilde
Encoding: 126 126 95
Width: 1294
GlyphClass: 2
Flags: W
LayerCount: 2
Back
Fore
SplineSet
133 455 m 0,0,1
 133 471 133 471 139 489 c 1,2,-1
 141 494 l 1,3,-1
 141 496 l 1,4,5
 151 521 151 521 160.5 543 c 128,-1,6
 170 565 170 565 182 586 c 0,7,8
 227 672 227 672 299 715 c 1,9,10
 367 762 367 762 455 762 c 0,11,12
 545 762 545 762 623 700 c 0,13,14
 654 675 654 675 677 645.5 c 128,-1,15
 700 616 700 616 721 588 c 0,16,17
 764 529 764 529 783.5 512.5 c 128,-1,18
 803 496 803 496 823 496 c 0,19,20
 862 496 862 496 899 543 c 1,21,22
 917 570 917 570 930.5 597.5 c 128,-1,23
 944 625 944 625 952 647 c 2,24,-1
 956 659 l 2,25,26
 966 690 966 690 993 708.5 c 128,-1,27
 1020 727 1020 727 1053 727 c 0,28,29
 1096 727 1096 727 1125.5 697.5 c 128,-1,30
 1155 668 1155 668 1155 625 c 0,31,32
 1155 609 1155 609 1149 590 c 1,33,-1
 1147 582 l 1,34,35
 1133 545 1133 545 1110 497 c 128,-1,36
 1087 449 1087 449 1051 406 c 0,37,38
 954 291 954 291 823 291 c 0,39,40
 729 291 729 291 655 352 c 1,41,42
 624 379 624 379 599.5 408.5 c 128,-1,43
 575 438 575 438 555 467 c 0,44,45
 518 518 518 518 497.5 537.5 c 128,-1,46
 477 557 477 557 455 557 c 0,47,48
 447 557 447 557 427.5 552 c 128,-1,49
 408 547 408 547 383 518 c 1,50,51
 367 495 367 495 354.5 472 c 128,-1,52
 342 449 342 449 336 430 c 1,53,-1
 334 426 l 1,54,55
 324 391 324 391 297 371.5 c 128,-1,56
 270 352 270 352 236 352 c 0,57,58
 195 352 195 352 164 382 c 128,-1,59
 133 412 133 412 133 455 c 0,0,1
EndSplineSet
EndChar
StartChar: exclamdown
Encoding: 161 161 145
Width: 222
Flags: MW
HStem: -179 21G<81 108.5> 375 121<88.5 111>
VStem: 46 98<-129 279>
LayerCount: 2
Back
Fore
SplineSet
144 279 m 2
 144 -129 l 2
 144 -155 122 -179 95 -179 c 0
 67 -179 46 -155 46 -129 c 2
 46 279 l 2
 46 306 67 328 95 328 c 0
 122 328 144 306 144 279 c 2
44 431 m 0
 44 468 74 496 103 496 c 0
 134 496 155 471 155 440 c 0
 155 406 126 375 96 375 c 0
 65 375 44 402 44 431 c 0
EndSplineSet
EndChar
StartChar: cent
Encoding: 162 162 97
Width: 1173
GlyphClass: 2
Flags: W
LayerCount: 2
Back
Fore
SplineSet
152 627 m 0,0,1
 150 705 150 705 166 770.5 c 128,-1,2
 182 836 182 836 199 881 c 0,3,4
 219 932 219 932 251 982 c 128,-1,5
 283 1032 283 1032 324 1075 c 1,6,7
 404 1163 404 1163 502 1202 c 1,8,-1
 504 1294 l 2,9,10
 504 1333 504 1333 535 1364 c 256,11,12
 566 1395 566 1395 606 1395 c 2,13,-1
 608 1395 l 1,14,15
 651 1393 651 1393 680 1362 c 128,-1,16
 709 1331 709 1331 709 1288 c 1,17,-1
 707 1217 l 1,18,19
 773 1205 773 1205 830 1172 c 128,-1,20
 887 1139 887 1139 928 1087 c 1,21,-1
 946 1067 l 1,22,23
 973 1032 973 1032 965.5 988 c 128,-1,24
 958 944 958 944 924 918 c 0,25,26
 889 891 889 891 845 898 c 128,-1,27
 801 905 801 905 774 940 c 0,28,29
 770 946 770 946 766 950 c 0,30,31
 758 958 758 958 758 961 c 1,32,33
 746 973 746 973 731.5 983 c 128,-1,34
 717 993 717 993 700 999 c 1,35,-1
 684 401 l 1,36,37
 700 405 700 405 713.5 410.5 c 128,-1,38
 727 416 727 416 739 424 c 1,39,40
 792 453 792 453 821 498 c 1,41,42
 821 498 821 498 827 504 c 1,43,-1
 827 506 l 2,44,45
 827 508 827 508 829 508 c 1,46,47
 831 514 831 514 838 516 c 1,48,49
 871 553 871 553 915 553 c 0,50,51
 960 553 960 553 991 522.5 c 128,-1,52
 1022 492 1022 492 1022 446 c 0,53,54
 1022 409 1022 409 995 379 c 1,55,56
 934 289 934 289 842 242 c 1,57,58
 766 201 766 201 678 188 c 1,59,-1
 676 100 l 2,60,61
 676 59 676 59 645 29 c 0,62,63
 616 0 616 0 573 0 c 2,64,-1
 571 0 l 1,65,66
 528 2 528 2 499.5 32.5 c 128,-1,67
 471 63 471 63 471 104 c 1,68,-1
 475 205 l 1,69,70
 383 232 383 232 303 303 c 1,71,72
 262 336 262 336 233.5 376 c 128,-1,73
 205 416 205 416 186 461 c 0,74,75
 170 500 170 500 162 541 c 128,-1,76
 154 582 154 582 152 627 c 0,0,1
371 569 m 0,77,78
 383 528 383 528 403.5 501.5 c 128,-1,79
 424 475 424 475 442 459 c 0,80,81
 452 451 452 451 461.5 443.5 c 128,-1,82
 471 436 471 436 481 430 c 1,83,-1
 494 950 l 1,84,85
 465 921 465 921 439.5 885.5 c 128,-1,86
 414 850 414 850 397 805 c 1,87,88
 342 672 342 672 371 569 c 0,77,78
EndSplineSet
EndChar
StartChar: sterling
Encoding: 163 163 98
Width: 770
Flags: MW
HStem: -9 94<491.5 525 491.5 549> -9 197<484 640> 0 21G<156 175> 297 95<99.5 168 113 168 113 189 284 284 284 460> 463 242<332 594> 610 95<355 438>
VStem: 164 95<451 513 451 542> 204 95<206 225.5>
LayerCount: 2
Back
Fore
SplineSet
625 188 m 0x5a
 655 188 672 164 672 138 c 0
 672 67 588 -9 510 -9 c 0x5a
 458 -9 397 13 346 51 c 0
 334 60 319 64 306 64 c 0
 268 64 234 38 211 21 c 0
 194 8 181 0 169 0 c 0x3a
 143 0 122 21 122 47 c 0
 122 63 130 77 141 85 c 0
 181 118 204 174 204 214 c 0x99
 204 237 201 264 189 297 c 1
 113 297 l 2
 86 297 65 320 65 344 c 0
 65 371 86 392 113 392 c 2
 168 392 l 1
 165 414 164 439 164 461 c 0
 164 623 247 705 417 705 c 0
 547 705 603 602 621 525 c 0
 629 492 612 463 576 463 c 0x9a
 551 463 533 480 528 506 c 0
 516 569 471 610 405 610 c 0
 305 610 259 565 259 461 c 0x96
 259 441 261 418 264 392 c 1
 460 392 l 2
 486 392 507 371 507 344 c 0
 507 320 486 297 460 297 c 2
 284 297 l 1
 291 271 299 243 299 214 c 0
 299 198 297 179 293 159 c 1
 306 159 l 2
 341 159 373 148 402 126 c 0
 437 100 475 85 508 85 c 0x99
 542 85 568 106 578 145 c 0
 585 172 600 188 625 188 c 0x5a
EndSplineSet
EndChar
StartChar: currency
Encoding: 164 164 205
Width: 543
Flags: MW
HStem: 40 21G<82 100.5 420.5 440> 83 91<245 275> 326 92<245.5 274.5 245.5 281> 444 20G<81.5 100.5 420 439>
VStem: 93 92<236.5 266> 336 92<236.5 265.5 236.5 272>
LayerCount: 2
Back
Fore
SplineSet
408 171 m 1
 459 119 l 2
 468 110 472 97 472 86 c 0
 472 63 454 40 426 40 c 0
 415 40 403 46 394 54 c 2
 343 104 l 1
 318 91 290 83 260 83 c 0
 230 83 203 91 178 104 c 1
 128 55 l 2
 119 47 107 40 94 40 c 0
 70 40 48 62 48 86 c 0
 48 98 53 111 61 119 c 2
 113 171 l 1
 100 195 93 222 93 251 c 0
 93 281 100 309 115 333 c 1
 61 386 l 2
 53 394 48 405 48 419 c 0
 48 444 69 464 94 464 c 0
 107 464 117 461 127 451 c 2
 180 398 l 1
 205 412 231 418 260 418 c 0
 289 418 316 412 341 398 c 1
 394 451 l 2
 404 461 414 464 426 464 c 0
 452 464 472 442 472 419 c 0
 472 406 468 395 459 386 c 2
 406 332 l 1
 420 308 428 280 428 251 c 0
 428 222 421 194 408 171 c 1
185 251 m 0
 185 209 219 174 260 174 c 0
 302 174 336 209 336 251 c 0
 336 293 302 326 260 326 c 0
 219 326 185 293 185 251 c 0
EndSplineSet
EndChar
StartChar: yen
Encoding: 165 165 80
Width: 599
Flags: MW
HStem: 0 216<145 289.5> 122 94<132 228 145 228 324 407> 262 94<132 195 145 195 145 228 360 407> 656 20G<443 464.5>
VStem: 98 226<35.5 182> 228 96<48 122 35.5 122 216 262> 228 227<48 182 122 182 156 262 156 262>
LayerCount: 2
Back
Fore
SplineSet
452 676 m 0xb8
 477 676 501 655 501 628 c 0
 501 621 500 612 493 599 c 2
 360 356 l 1
 407 356 l 2
 434 356 455 335 455 309 c 0xb2
 455 283 434 262 407 262 c 2
 324 262 l 1
 324 216 l 1xb8
 407 216 l 2
 434 216 455 195 455 169 c 0xb2
 455 143 434 122 407 122 c 2
 324 122 l 1x78
 324 48 l 2
 324 23 303 0 276 0 c 0xb8
 250 0 228 23 228 48 c 2
 228 122 l 1x74
 145 122 l 2
 119 122 98 143 98 169 c 0x78
 98 195 119 216 145 216 c 2
 228 216 l 1
 228 262 l 1xb4
 145 262 l 2
 119 262 98 283 98 309 c 0
 98 335 119 356 145 356 c 2
 195 356 l 1
 71 605 l 2
 68 612 66 620 66 626 c 0
 66 650 86 674 115 674 c 0
 132 674 148 665 157 648 c 2
 278 406 l 1
 410 650 l 2
 419 667 434 676 452 676 c 0xb8
EndSplineSet
EndChar
StartChar: section
Encoding: 167 167 125
Width: 483
Flags: MW
HStem: 0 90<221 277 221 299.5> 0 188<91 299.5> 441 189<223 392> 541 89<236.5 286>
VStem: 82 93<486.5 512 481.5 551.5> 330 93<143.5 164.5 115 168 503 517>
LayerCount: 2
Back
Fore
SplineSet
149 154 m 0x5c
 161 116 197 90 245 90 c 0
 309 90 330 131 330 156 c 0
 330 180 307 198 239 220 c 0
 136 252 83 295 83 370 c 0
 83 396 90 416 101 433 c 1
 89 452 82 474 82 499 c 0
 82 604 186 630 260 630 c 0
 366 630 423 581 423 506 c 0
 423 464 409 441 375 441 c 0xac
 343 441 328 461 328 483 c 0
 328 493 330 499 330 507 c 0
 330 527 310 541 262 541 c 0
 211 541 175 525 175 499 c 0
 175 464 226 449 256 440 c 0
 350 410 422 388 422 280 c 0
 422 260 417 239 407 220 c 1
 417 201 423 178 423 151 c 0
 423 79 354 0 245 0 c 0
 118 0 57 103 57 141 c 0
 57 167 78 188 104 188 c 0
 127 188 143 173 149 154 c 0x5c
333 272 m 1
 338 281 339 290 339 296 c 0
 339 327 324 342 245 366 c 0
 230 371 198 381 175 387 c 1
 167 379 165 372 165 364 c 0
 165 318 218 310 250 301 c 0
 282 291 310 284 333 272 c 1
EndSplineSet
EndChar
StartChar: dieresis
Encoding: 168 168 208
Width: 526
Flags: MW
HStem: 523 121<142.5 175.5 327 360.5>
VStem: 93 132<568.5 597.5> 277 133<568.5 597.5>
LayerCount: 2
Back
Fore
SplineSet
225 586 m 0
 225 551 195 523 156 523 c 0
 121 523 93 547 93 581 c 0
 93 614 123 644 162 644 c 0
 194 644 225 619 225 586 c 0
410 586 m 0
 410 551 380 523 341 523 c 0
 305 523 277 547 277 581 c 0
 277 614 308 644 346 644 c 0
 379 644 410 619 410 586 c 0
EndSplineSet
EndChar
StartChar: copyright
Encoding: 169 169 100
Width: 1179
GlyphClass: 2
Flags: W
LayerCount: 2
Back
Fore
SplineSet
131 948 m 256,0,1
 131 1044 131 1044 167 1129 c 128,-1,2
 203 1214 203 1214 264.5 1276.5 c 128,-1,3
 326 1339 326 1339 409 1376 c 128,-1,4
 492 1413 492 1413 586 1413 c 256,5,6
 680 1413 680 1413 763 1376 c 128,-1,7
 846 1339 846 1339 907.5 1276.5 c 128,-1,8
 969 1214 969 1214 1004.5 1129 c 128,-1,9
 1040 1044 1040 1044 1040 948 c 256,10,11
 1040 852 1040 852 1004.5 767 c 128,-1,12
 969 682 969 682 907.5 619.5 c 128,-1,13
 846 557 846 557 763 520 c 128,-1,14
 680 483 680 483 586 483 c 256,15,16
 492 483 492 483 409 520 c 128,-1,17
 326 557 326 557 264.5 619.5 c 128,-1,18
 203 682 203 682 167 767 c 128,-1,19
 131 852 131 852 131 948 c 256,0,1
225 948 m 0,20,21
 225 870 225 870 254 803.5 c 128,-1,22
 283 737 283 737 332 686 c 128,-1,23
 381 635 381 635 446.5 606.5 c 128,-1,24
 512 578 512 578 586 578 c 256,25,26
 660 578 660 578 725.5 606.5 c 128,-1,27
 791 635 791 635 840 686 c 128,-1,28
 889 737 889 737 917.5 803.5 c 128,-1,29
 946 870 946 870 946 948 c 0,30,31
 946 1024 946 1024 917.5 1091.5 c 128,-1,32
 889 1159 889 1159 840 1210.5 c 128,-1,33
 791 1262 791 1262 725.5 1290.5 c 128,-1,34
 660 1319 660 1319 586 1319 c 256,35,36
 512 1319 512 1319 446.5 1290.5 c 128,-1,37
 381 1262 381 1262 332 1210.5 c 128,-1,38
 283 1159 283 1159 254 1091.5 c 128,-1,39
 225 1024 225 1024 225 948 c 0,20,21
328 950 m 0,40,41
 328 1069 328 1069 399.5 1139.5 c 128,-1,42
 471 1210 471 1210 592 1210 c 0,43,44
 639 1210 639 1210 678 1193 c 128,-1,45
 717 1176 717 1176 743 1157 c 1,46,-1
 748 1153 l 2,47,48
 768 1137 768 1137 768 1114 c 0,49,50
 768 1094 768 1094 754.5 1080.5 c 128,-1,51
 741 1067 741 1067 721 1067 c 0,52,53
 705 1067 705 1067 690 1077 c 1,54,-1
 686 1081 l 1,55,56
 670 1093 670 1093 645.5 1104.5 c 128,-1,57
 621 1116 621 1116 592 1116 c 0,58,59
 535 1116 535 1116 502 1097.5 c 128,-1,60
 469 1079 469 1079 451.5 1052.5 c 128,-1,61
 434 1026 434 1026 429 997.5 c 128,-1,62
 424 969 424 969 424 950 c 0,63,64
 424 884 424 884 470 845.5 c 128,-1,65
 516 807 516 807 569 807 c 0,66,67
 659 807 659 807 707 862 c 0,68,69
 715 870 715 870 717 874 c 2,70,-1
 723 885 l 2,71,72
 735 908 735 908 764 907 c 0,73,74
 784 907 784 907 797.5 894 c 128,-1,75
 811 881 811 881 811 860 c 0,76,77
 811 848 811 848 805 836 c 2,78,-1
 799 825 l 1,79,80
 770 784 770 784 714.5 748.5 c 128,-1,81
 659 713 659 713 569 713 c 0,82,83
 475 713 475 713 406 776 c 0,84,85
 328 848 328 848 328 950 c 0,40,41
EndSplineSet
EndChar
StartChar: ordfeminine
Encoding: 170 170 129
Width: 276
Flags: MW
HStem: 311 21G<218 237> 315 90<113 135 113 140> 561 91<131.5 159>
VStem: -4 91<450 483.5 450 506> 178 90
LayerCount: 2
Back
Fore
SplineSet
225 311 m 0xb8
 211 311 197 317 189 327 c 1
 172 321 154 315 126 315 c 0x78
 51 315 -4 378 -4 461 c 0
 -4 551 51 652 152 652 c 0
 199 652 249 630 268 615 c 1
 269 356 l 2
 269 332 249 311 225 311 c 0xb8
156 561 m 0
 107 561 87 504 87 463 c 0
 87 437 99 405 127 405 c 0x78
 143 405 164 416 177 423 c 1
 179 558 l 1
 173 560 162 561 156 561 c 0
EndSplineSet
EndChar
StartChar: guillemotleft
Encoding: 171 171 101
Width: 1415
GlyphClass: 2
Flags: W
LayerCount: 2
Back
Fore
SplineSet
160 512 m 0,0,1
 160 461 160 461 197 430 c 1,2,-1
 496 162 l 1,3,4
 529 135 529 135 568 135 c 0,5,6
 617 135 617 135 648 170 c 1,7,8
 677 207 677 207 674 248 c 0,9,10
 670 293 670 293 639 322 c 1,11,-1
 428 508 l 1,12,-1
 666 715 l 1,13,14
 699 742 699 742 703 788 c 0,15,16
 707 831 707 831 678 866 c 1,17,18
 645 903 645 903 596 903 c 0,19,20
 559 903 559 903 527 877 c 1,21,-1
 197 590 l 2,22,23
 160 559 160 559 160 512 c 0,0,1
701 512 m 0,24,25
 701 461 701 461 738 430 c 1,26,-1
 1037 162 l 1,27,28
 1069 135 1069 135 1108 135 c 0,29,30
 1157 135 1157 135 1188 170 c 1,31,32
 1217 207 1217 207 1215 248 c 1,33,34
 1211 293 1211 293 1180 322 c 1,35,-1
 969 508 l 1,36,-1
 1207 715 l 1,37,38
 1240 742 1240 742 1244 788 c 0,39,40
 1248 831 1248 831 1219 866 c 1,41,42
 1186 903 1186 903 1137 903 c 0,43,44
 1100 903 1100 903 1067 877 c 1,45,-1
 738 590 l 2,46,47
 701 559 701 559 701 512 c 0,24,25
EndSplineSet
EndChar
StartChar: logicalnot
Encoding: 172 172 139
Width: 506
Flags: MW
HStem: 114 230<369 381 381 392.5 83 394> 253 91<70 381 83 336>
VStem: 335 92<146.5 159>
LayerCount: 2
Back
Fore
SplineSet
381 114 m 0xa0
 357 114 335 134 335 159 c 2
 336 253 l 1
 83 253 l 2x60
 57 253 37 273 37 298 c 0
 37 322 57 344 83 344 c 2
 381 344 l 2
 404 344 428 326 428 298 c 2
 427 159 l 2
 427 134 407 114 381 114 c 0xa0
EndSplineSet
EndChar
StartChar: uni00AD
Encoding: 173 173 141
Width: 467
Flags: MW
HStem: 203 94<100 337 112 337>
LayerCount: 2
Back
Fore
SplineSet
337 203 m 2
 112 203 l 2
 88 203 65 225 65 250 c 0
 65 276 88 297 112 297 c 2
 337 297 l 2
 363 297 384 276 384 250 c 0
 384 225 363 203 337 203 c 2
EndSplineSet
EndChar
StartChar: registered
Encoding: 174 174 79
Width: 570
Flags: MW
HStem: 177 70<223.5 331 223.5 350> 648 70<223.5 331>
VStem: 12 70<391.5 502.5 391.5 521.5> 472 70<391.5 502.5>
LayerCount: 2
Back
Fore
SplineSet
401 495 m 0
 401 458 372 435 339 421 c 1
 356 409 l 2
 370 399 376 387 376 372 c 0
 376 348 357 329 333 329 c 0
 323 329 315 331 308 336 c 2
 244 381 l 1
 242 368 l 2
 238 345 222 330 198 330 c 0
 172 330 149 354 154 381 c 2
 181 541 l 2
 186 572 186 581 273 581 c 0
 355 581 401 548 401 495 c 0
277 177 m 0
 132 177 12 298 12 447 c 0
 12 596 132 718 277 718 c 0
 423 718 542 596 542 447 c 0
 542 298 423 177 277 177 c 0
277 648 m 0
 170 648 82 558 82 447 c 0
 82 336 170 247 277 247 c 0
 385 247 472 336 472 447 c 0
 472 558 385 648 277 648 c 0
EndSplineSet
EndChar
StartChar: macron
Encoding: 175 175 146
Width: 526
Flags: MW
HStem: 545 92<143.5 346 156 346>
LayerCount: 2
Back
Fore
SplineSet
346 545 m 2
 156 545 l 2
 131 545 111 567 111 591 c 0
 111 617 131 637 156 637 c 2
 346 637 l 2
 371 637 391 617 391 591 c 0
 391 567 371 545 346 545 c 2
EndSplineSet
EndChar
StartChar: degree
Encoding: 176 176 70
Width: 269
Flags: MW
HStem: 422 87<116.5 142 116.5 166> 601 88<116.5 142>
VStem: -4 86<542.5 567.5 542.5 592> 176 86<542.5 567.5>
LayerCount: 2
Back
Fore
SplineSet
129 422 m 0
 56 422 -4 481 -4 555 c 0
 -4 629 56 689 129 689 c 0
 203 689 262 629 262 555 c 0
 262 481 203 422 129 422 c 0
129 601 m 0
 104 601 82 580 82 555 c 0
 82 530 104 509 129 509 c 0
 155 509 176 530 176 555 c 0
 176 580 155 601 129 601 c 0
EndSplineSet
EndChar
StartChar: plusminus
Encoding: 177 177 140
Width: 467
Flags: MW
HStem: -1 94<102 331 114 331> 124 215<99 234.5> 245 94<86 176 99 176 269 346 99 269> 245 206<86 236 99 236 208 346 208 269>
VStem: 53 216<157.5 304> 176 93<170 245 157.5 245 339 405> 176 217<170 305 245 305 279.5 405 279.5 416.5>
LayerCount: 2
Back
Fore
SplineSet
53 292 m 0xa8
 53 316 75 339 99 339 c 2
 176 339 l 1xc4
 176 405 l 2
 176 428 193 451 223 451 c 0x94
 249 451 269 428 269 405 c 2
 269 339 l 1xc8
 346 339 l 2
 369 339 393 318 393 292 c 0xc2
 393 267 369 245 346 245 c 2
 269 245 l 1xa8
 269 170 l 2
 269 145 246 124 223 124 c 0xc8
 197 124 176 146 176 170 c 2
 176 245 l 1xa4
 99 245 l 2
 73 245 53 266 53 292 c 0xa8
68 46 m 0
 68 73 90 93 114 93 c 2
 331 93 l 2
 356 93 377 71 377 46 c 0
 377 18 356 -1 331 -1 c 2
 114 -1 l 2
 90 -1 68 16 68 46 c 0
EndSplineSet
EndChar
StartChar: twosuperior
Encoding: 178 178 142
Width: 266
Flags: MW
HStem: 402 89<93 211 93 211> 663 133<25.5 158> 709 87<116.5 138>
VStem: 163 87<674.5 690>
LayerCount: 2
Back
Fore
SplineSet
211 402 m 2xd0
 -2 402 l 1
 -2 446 l 2
 -2 547 41 588 137 644 c 0
 153 653 163 666 163 683 c 0
 163 697 149 709 127 709 c 0xb0
 106 709 87 694 78 685 c 0
 64 670 57 663 39 663 c 0
 12 663 -4 679 -4 706 c 0
 -4 715 -3 725 6 735 c 0
 25 757 69 796 126 796 c 0
 190 796 250 755 250 683 c 0
 250 614 204 585 159 559 c 0
 133 543 101 519 93 491 c 1
 211 491 l 2
 230 491 255 474 255 446 c 0
 255 423 232 402 211 402 c 2xd0
EndSplineSet
EndChar
StartChar: threesuperior
Encoding: 179 179 143
Width: 262
Flags: MW
HStem: 400 87<115 132 115 158.5> 400 136<25.5 158.5> 688 111<39.5 154> 711 88<113 134.5>
VStem: 10 246<491.5 746.5> 71 185<491.5 623.5> 160 96
LayerCount: 2
Back
Fore
SplineSet
2 468 m 0xa8
 -3 476 -4 486 -4 491 c 0
 -4 516 13 536 38 536 c 0x68
 59 536 70 524 78 511 c 0
 87 496 106 487 124 487 c 0
 140 487 167 494 167 526 c 0
 167 549 153 563 112 567 c 0
 87 569 71 582 71 609 c 0xa4
 71 638 87 649 112 651 c 0
 143 654 160 667 160 685 c 0
 160 703 146 711 123 711 c 0x92
 103 711 91 705 83 699 c 0
 74 692 62 688 50 688 c 0
 29 688 10 703 10 731 c 0
 10 762 61 799 123 799 c 0
 185 799 247 761 247 695 c 0
 247 658 230 627 209 613 c 1
 236 600 256 569 256 531 c 0
 256 452 193 400 124 400 c 0
 57 400 19 441 2 468 c 0xa8
EndSplineSet
EndChar
StartChar: acute
Encoding: 180 180 216
Width: 526
Flags: MW
HStem: 511 21G<186 203.5> 684 20G<312.5 336>
LayerCount: 2
Back
Fore
SplineSet
165 592 m 2
 280 685 l 2
 290 693 304 704 321 704 c 0
 351 704 374 680 374 649 c 0
 374 634 369 619 355 609 c 2
 231 524 l 2
 221 517 209 511 198 511 c 0
 174 511 152 532 152 559 c 0
 152 570 154 583 165 592 c 2
EndSplineSet
EndChar
StartChar: mu
Encoding: 181 181 148
Width: 526
Flags: MW
HStem: -164 21G<131 160> -3 90<213.5 249.5> 0 21G<393.5 420> 480 20G<110.5 139 397 421.5>
VStem: 64 94 360 96
LayerCount: 2
Back
Fore
SplineSet
78 22 m 0xdc
 72 89 68 147 64 252 c 0
 61 325 70 414 75 449 c 0
 81 492 98 500 123 500 c 0
 155 500 170 481 170 453 c 0
 170 445 169 439 168 431 c 0
 165 401 158 351 158 288 c 0
 158 136 170 87 224 87 c 0xdc
 278 87 335 123 352 144 c 0
 356 149 358 156 358 169 c 2
 363 454 l 2
 363 481 385 500 409 500 c 0
 434 500 456 481 456 454 c 2
 456 48 l 2
 456 23 433 0 407 0 c 0xbc
 380 0 361 17 356 40 c 1
 322 16 275 -3 224 -3 c 0
 203 -3 173 4 173 4 c 1
 177 -33 182 -76 188 -109 c 0
 193 -135 178 -164 142 -164 c 0
 120 -164 99 -148 95 -125 c 0
 90 -95 85 -53 78 22 c 0xdc
EndSplineSet
EndChar
StartChar: paragraph
Encoding: 182 182 106
Width: 585
Flags: MW
HStem: -73 21G<216 248> -72 21G<366.5 400>
VStem: 411 86<487 610.5 487 610.5>
LayerCount: 2
Back
Fore
SplineSet
496 673 m 0x60
 497 649 497 622 497 599 c 0
 497 375 476 163 433 -35 c 0
 428 -56 414 -72 386 -72 c 0
 347 -72 345 -47 350 -16 c 0
 381 162 411 362 411 599 c 0
 411 622 410 645 410 669 c 0
 410 694 425 719 452 719 c 0
 479 719 494 699 496 673 c 0x60
379 715 m 0
 379 683 363 670 344 665 c 1
 344 589 l 2
 344 368 318 149 281 -35 c 0
 276 -57 261 -73 235 -73 c 0xa0
 197 -73 190 -46 197 -13 c 0
 210 48 237 230 245 317 c 1
 136 319 36 372 36 501 c 0
 36 646 174 730 327 759 c 0
 356 765 379 749 379 715 c 0
EndSplineSet
EndChar
StartChar: periodcentered
Encoding: 183 183 149
Width: 198
Flags: MW
HStem: 191 121<83.5 106.5>
VStem: 40 110<238 264.5>
LayerCount: 2
Back
Fore
SplineSet
91 191 m 0
 61 191 40 216 40 248 c 0
 40 281 68 312 99 312 c 0
 128 312 150 287 150 256 c 0
 150 220 122 191 91 191 c 0
EndSplineSet
EndChar
StartChar: cedilla
Encoding: 184 184 220
Width: 526
Flags: MW
HStem: -196 87<191.5 275> -196 237<227 242.5 224.5 275>
VStem: 167 184<-164 -85.5>
LayerCount: 2
Back
Fore
SplineSet
237 -126 m 0xa0
 242 -130 248 -132 257 -132 c 0
 273 -132 280 -118 280 -106 c 0
 280 -94 272 -86 256 -83 c 2
 207 -73 l 2
 188 -69 186 -53 191 -35 c 0
 204 13 213 41 236 41 c 0x60
 249 41 260 37 260 -27 c 1
 320 -37 351 -61 351 -110 c 0
 351 -168 304 -196 246 -196 c 0
 208 -196 167 -180 167 -148 c 0
 167 -131 180 -109 203 -109 c 0
 220 -109 227 -118 237 -126 c 0xa0
EndSplineSet
EndChar
StartChar: onesuperior
Encoding: 185 185 147
Width: 192
Flags: MW
HStem: 403 88<25 53 40 53 140 147> 779 20G<94.5 112.5>
VStem: -6 148 54 88 54 136
LayerCount: 2
Back
Fore
SplineSet
147 403 m 2xd0
 40 403 l 2
 10 403 -4 424 -4 447 c 0
 -4 473 17 491 40 491 c 2
 53 491 l 1
 56 645 l 1
 50 643 44 642 37 642 c 0
 18 642 -6 660 -6 685 c 0xe0
 -6 696 -4 706 5 715 c 2
 69 784 l 2
 78 794 89 799 100 799 c 0
 125 799 145 785 145 754 c 2
 140 491 l 1
 152 491 l 2
 174 491 190 470 190 447 c 0xc8
 190 419 168 403 147 403 c 2xd0
EndSplineSet
EndChar
StartChar: ordmasculine
Encoding: 186 186 128
Width: 303
Flags: MW
HStem: 315 87<122.5 152.5 122.5 190> 561 87<135 165.5>
VStem: -3 91<452 496 452 511> 202 92<465 508.5>
LayerCount: 2
Back
Fore
SplineSet
137 315 m 0
 62 315 -3 382 -3 469 c 0
 -3 553 56 648 154 648 c 0
 228 648 294 585 294 491 c 0
 294 422 243 315 137 315 c 0
151 561 m 0
 119 561 88 521 88 471 c 0
 88 433 108 402 137 402 c 0
 168 402 202 439 202 491 c 0
 202 526 180 561 151 561 c 0
EndSplineSet
EndChar
StartChar: guillemotright
Encoding: 187 187 88
Width: 617
Flags: MW
HStem: 69 21G<92.5 111 322.5 341> 419 20G<79 96.5 309 326.5>
LayerCount: 2
Back
Fore
SplineSet
516 213 m 2
 368 81 l 2
 357 72 347 69 335 69 c 0
 310 69 287 90 287 116 c 0
 287 129 292 143 303 153 c 2
 411 249 l 1
 289 354 l 2
 275 366 273 376 273 391 c 0
 273 418 297 439 321 439 c 0
 332 439 341 436 352 427 c 2
 515 286 l 2
 526 277 532 262 532 250 c 0
 532 237 527 223 516 213 c 2
286 213 m 2
 138 81 l 2
 127 72 117 69 105 69 c 0
 80 69 57 90 57 116 c 0
 57 129 62 143 73 153 c 2
 181 249 l 1
 59 354 l 2
 45 366 43 376 43 391 c 0
 43 418 67 439 91 439 c 0
 102 439 111 436 122 427 c 2
 285 286 l 2
 296 277 302 262 302 250 c 0
 302 237 297 223 286 213 c 2
EndSplineSet
EndChar
StartChar: questiondown
Encoding: 191 191 115
Width: 559
Flags: MW
HStem: -170 94<232 306 232 313> -170 169<208.5 435.5> 380 121<335.5 359>
VStem: 57 93<6 65.5 6 81> 292 111<427.5 454>
LayerCount: 2
Back
Fore
SplineSet
350 259 m 0x78
 337 248 318 235 299 219 c 0
 219 153 150 103 150 28 c 0
 150 -16 184 -76 280 -76 c 0xb8
 332 -76 366 -42 391 -14 c 0
 399 -5 411 -1 423 -1 c 0
 448 -1 471 -20 471 -49 c 0
 471 -65 458 -81 446 -95 c 0
 414 -129 351 -170 275 -170 c 0
 142 -170 57 -91 57 35 c 0
 57 127 122 186 178 236 c 0
 296 340 308 342 320 342 c 0
 346 342 367 321 367 295 c 0
 367 282 361 268 350 259 c 0x78
351 501 m 0
 382 501 403 476 403 444 c 0
 403 411 374 380 344 380 c 0
 314 380 292 405 292 436 c 0
 292 472 320 501 351 501 c 0
EndSplineSet
EndChar
StartChar: Agrave
Encoding: 192 192 152
Width: 650
Flags: MW
HStem: -1 21G<519 546> 0 21G<82 109> 668 20G<319 339> 896 20G<262 285>
LayerCount: 2
Back
Fore
SplineSet
375 655 m 2x70
 578 67 l 2
 580 61 581 53 581 48 c 0
 581 22 561 -1 531 -1 c 0xb0
 507 -1 493 8 484 33 c 2
 412 241 l 1
 208 196 l 1
 143 32 l 2
 136 15 121 0 97 0 c 0
 67 0 47 25 47 49 c 0
 47 56 48 62 50 67 c 2
 94 177 l 1
 73 184 59 201 59 225 c 0
 59 249 75 268 97 273 c 2
 134 281 l 1
 282 657 l 2
 290 677 309 688 329 688 c 0
 349 688 367 679 375 655 c 2x70
250 306 m 1
 379 334 l 1
 325 495 l 1
 250 306 l 1
345 713 m 2
 238 824 l 2
 228 834 222 846 222 862 c 0
 222 890 248 916 276 916 c 0
 294 916 310 906 320 894 c 2
 415 775 l 2
 424 763 427 755 427 745 c 0
 427 718 403 698 379 698 c 0
 364 698 353 704 345 713 c 2
EndSplineSet
EndChar
StartChar: Aacute
Encoding: 193 193 153
Width: 650
Flags: MW
HStem: -1 21G<519 546> 0 21G<82 109> 668 20G<319 339> 882 20G<370.5 394>
LayerCount: 2
Back
Fore
SplineSet
375 655 m 2x70
 578 67 l 2
 580 61 581 53 581 48 c 0
 581 22 561 -1 531 -1 c 0xb0
 507 -1 493 8 484 33 c 2
 412 241 l 1
 208 196 l 1
 143 32 l 2
 136 15 121 0 97 0 c 0
 67 0 47 25 47 49 c 0
 47 56 48 62 50 67 c 2
 94 177 l 1
 73 184 59 201 59 225 c 0
 59 249 75 268 97 273 c 2
 134 281 l 1
 282 657 l 2
 290 677 309 688 329 688 c 0
 349 688 367 679 375 655 c 2x70
250 306 m 1
 379 334 l 1
 325 495 l 1
 250 306 l 1
223 790 m 2
 338 883 l 2
 348 891 362 902 379 902 c 0
 409 902 432 878 432 847 c 0
 432 832 427 817 413 807 c 2
 289 722 l 2
 279 715 267 709 256 709 c 0
 232 709 210 730 210 757 c 0
 210 768 212 781 223 790 c 2
EndSplineSet
EndChar
StartChar: Acircumflex
Encoding: 194 194 154
Width: 650
Flags: MW
HStem: -1 21G<519 546> 0 21G<82 109> 668 20G<319 339> 878 20G<332.5 343>
LayerCount: 2
Back
Fore
SplineSet
375 655 m 2x70
 578 67 l 2
 580 61 581 53 581 48 c 0
 581 22 561 -1 531 -1 c 0xb0
 507 -1 493 8 484 33 c 2
 412 241 l 1
 208 196 l 1
 143 32 l 2
 136 15 121 0 97 0 c 0
 67 0 47 25 47 49 c 0
 47 56 48 62 50 67 c 2
 94 177 l 1
 73 184 59 201 59 225 c 0
 59 249 75 268 97 273 c 2
 134 281 l 1
 282 657 l 2
 290 677 309 688 329 688 c 0
 349 688 367 679 375 655 c 2x70
250 306 m 1
 379 334 l 1
 325 495 l 1
 250 306 l 1
186 786 m 2
 305 886 l 2
 316 895 328 898 337 898 c 0
 349 898 363 892 375 880 c 2
 471 784 l 2
 481 774 485 763 485 750 c 0
 485 725 464 703 439 703 c 0
 427 703 417 705 406 715 c 2
 333 781 l 1
 244 712 l 2
 233 704 225 703 215 703 c 0
 190 703 168 723 168 750 c 0
 168 763 174 776 186 786 c 2
EndSplineSet
EndChar
StartChar: Atilde
Encoding: 195 195 155
Width: 650
Flags: MW
HStem: -1 21G<519 546> 0 21G<82 109> 668 20G<319 339> 705 88<390.5 408.5 390.5 430.5> 705 188<364 499.5> 788 89<239.5 264.5>
LayerCount: 2
Back
Fore
SplineSet
459 871 m 0x70
 463 886 475 893 490 893 c 0
 509 893 529 883 529 860 c 0
 529 856 529 849 526 838 c 0
 516 807 481 705 380 705 c 0x68
 348 705 321 722 299 753 c 0
 283 776 272 788 257 788 c 0
 222 788 205 736 200 720 c 0
 195 705 186 698 171 698 c 0
 152 698 132 708 132 731 c 0
 132 735 132 742 135 753 c 0
 152 810 191 877 269 877 c 0x64
 308 877 334 860 356 829 c 0
 372 807 383 793 398 793 c 0
 419 793 445 817 459 871 c 0x70
375 655 m 2
 578 67 l 2
 580 61 581 53 581 48 c 0
 581 22 561 -1 531 -1 c 0xb0
 507 -1 493 8 484 33 c 2
 412 241 l 1
 208 196 l 1
 143 32 l 2
 136 15 121 0 97 0 c 0
 67 0 47 25 47 49 c 0
 47 56 48 62 50 67 c 2
 94 177 l 1
 73 184 59 201 59 225 c 0
 59 249 75 268 97 273 c 2
 134 281 l 1
 282 657 l 2
 290 677 309 688 329 688 c 0
 349 688 367 679 375 655 c 2
250 306 m 1
 379 334 l 1
 325 495 l 1
 250 306 l 1
EndSplineSet
EndChar
StartChar: Adieresis
Encoding: 196 196 156
Width: 650
Flags: MW
HStem: -1 21G<519 546> 0 21G<82 109> 668 20G<319 339> 703 124<216 250 404.5 438>
VStem: 165 136<749.5 779> 353 136<749.5 779>
LayerCount: 2
Back
Fore
SplineSet
301 767 m 0x7c
 301 732 270 703 230 703 c 0
 194 703 165 727 165 762 c 0
 165 796 196 827 236 827 c 0
 269 827 301 801 301 767 c 0x7c
489 767 m 0
 489 732 458 703 418 703 c 0
 382 703 353 727 353 762 c 0
 353 796 385 827 424 827 c 0
 457 827 489 801 489 767 c 0
375 655 m 2
 578 67 l 2
 580 61 581 53 581 48 c 0
 581 22 561 -1 531 -1 c 0xbc
 507 -1 493 8 484 33 c 2
 412 241 l 1
 208 196 l 1
 143 32 l 2
 136 15 121 0 97 0 c 0
 67 0 47 25 47 49 c 0
 47 56 48 62 50 67 c 2
 94 177 l 1
 73 184 59 201 59 225 c 0
 59 249 75 268 97 273 c 2
 134 281 l 1
 282 657 l 2
 290 677 309 688 329 688 c 0
 349 688 367 679 375 655 c 2
250 306 m 1
 379 334 l 1
 325 495 l 1
 250 306 l 1
EndSplineSet
EndChar
StartChar: Aring
Encoding: 197 197 157
Width: 650
Flags: MW
HStem: -1 21G<519 546> 0 21G<82 109> 668 20G<319 339> 712 79<317 343.5 317 360.5> 862 80<322 353.5>
VStem: 194 86<811 829 811 858.5> 387 86<818.5 838.5>
LayerCount: 2
Back
Fore
SplineSet
324 712 m 0x7e
 253 712 194 754 194 820 c 0
 194 897 269 942 344 942 c 0
 412 942 473 900 473 833 c 0
 473 755 397 712 324 712 c 0x7e
340 862 m 0
 304 862 280 838 280 820 c 0
 280 802 302 791 332 791 c 0
 355 791 387 806 387 831 c 0
 387 846 367 862 340 862 c 0
375 655 m 2
 578 67 l 2
 580 61 581 53 581 48 c 0
 581 22 561 -1 531 -1 c 0xbe
 507 -1 493 8 484 33 c 2
 412 241 l 1
 208 196 l 1
 143 32 l 2
 136 15 121 0 97 0 c 0
 67 0 47 25 47 49 c 0
 47 56 48 62 50 67 c 2
 94 177 l 1
 73 184 59 201 59 225 c 0
 59 249 75 268 97 273 c 2
 134 281 l 1
 282 657 l 2
 290 677 309 688 329 688 c 0
 349 688 367 679 375 655 c 2
250 306 m 1
 379 334 l 1
 325 495 l 1
 250 306 l 1
EndSplineSet
EndChar
StartChar: AE
Encoding: 198 198 120
Width: 1066
Flags: MW
HStem: -3 21G<89.5 109> 0 97<505.5 918 567 918 567 918> 288 98<872 885.5> 584 97<567 918 567 567>
VStem: 470 97<97 279 279 279 386 481 481 481>
LayerCount: 2
Back
Fore
SplineSet
246 331 m 1xb8
 480 660 l 2
 486 668 497 681 516 681 c 2
 918 681 l 2
 947 681 967 661 967 632 c 0
 967 607 947 584 918 584 c 2
 567 584 l 1
 567 386 l 1
 872 386 l 2
 899 386 920 362 920 337 c 0
 920 309 899 288 872 288 c 2
 567 289 l 1
 567 97 l 1
 918 97 l 2
 947 97 967 77 967 48 c 0
 967 21 947 0 918 0 c 2
 519 0 l 2x78
 492 0 470 21 470 48 c 2
 470 279 l 1
 301 243 l 1
 141 17 l 2
 131 3 116 -3 102 -3 c 0
 77 -3 54 20 54 45 c 0
 54 55 55 62 63 73 c 2
 173 229 l 1
 159 238 149 254 149 272 c 0
 149 295 165 314 189 319 c 2
 246 331 l 1xb8
384 359 m 1
 470 376 l 1
 470 481 l 1
 384 359 l 1
EndSplineSet
EndChar
StartChar: Ccedilla
Encoding: 199 199 158
Width: 658
Flags: MW
HStem: -196 87<271.5 355> -2 100<339 369 301.5 387.5> 501 159<500 519 500 519> 584 76 584 100<299.5 375 276 377>
VStem: 47 100<227.5 370 227.5 400> 247 184<-164 -85.5>
LayerCount: 2
Back
Fore
SplineSet
339 -2 m 1xd6
 340 -11 340 -18 340 -27 c 1
 400 -37 431 -61 431 -110 c 0
 431 -168 384 -196 326 -196 c 0
 288 -196 247 -180 247 -148 c 0
 247 -131 260 -109 283 -109 c 0
 300 -109 307 -118 317 -126 c 0
 322 -130 328 -132 337 -132 c 0
 353 -132 360 -118 360 -106 c 0
 360 -94 352 -86 336 -83 c 2
 287 -73 l 2
 268 -69 266 -53 271 -35 c 0
 275 -20 278 -7 282 3 c 1
 149 30 47 148 47 299 c 0
 47 501 206 684 346 684 c 0xce
 404 684 449 669 479 653 c 1
 488 659 495 660 505 660 c 0
 533 660 555 639 555 611 c 2
 555 551 l 2
 555 524 533 501 505 501 c 0xe6
 478 501 457 521 455 547 c 1
 437 564 408 584 346 584 c 0
 253 584 147 441 147 299 c 0
 147 156 264 98 339 98 c 0
 399 98 455 119 499 177 c 0
 511 193 523 197 538 197 c 0
 564 197 588 179 588 147 c 0
 588 137 586 127 579 117 c 0
 521 41 436 -2 339 -2 c 1xd6
EndSplineSet
EndChar
StartChar: Egrave
Encoding: 200 200 159
Width: 636
Flags: MW
HStem: 0 100<97 508 160 508 160 508> 302 99<160 464 160 464> 582 100<160 510 160 160> 896 20G<222 245>
VStem: 61 99<100 100 100 302 401 582>
LayerCount: 2
Back
Fore
SplineSet
160 100 m 1
 508 100 l 2
 536 100 557 78 557 50 c 0
 557 22 536 0 508 0 c 2
 111 0 l 2
 83 0 61 22 61 50 c 2
 61 632 l 2
 61 660 83 682 111 682 c 2
 510 682 l 2
 538 682 559 660 559 632 c 0
 559 605 538 582 510 582 c 2
 160 582 l 1
 160 401 l 1
 464 401 l 2
 492 401 513 380 513 352 c 0
 513 324 492 302 464 302 c 2
 160 302 l 1
 160 100 l 1
305 713 m 2
 198 824 l 2
 188 834 182 846 182 862 c 0
 182 890 208 916 236 916 c 0
 254 916 270 906 280 894 c 2
 375 775 l 2
 384 763 387 755 387 745 c 0
 387 718 363 698 339 698 c 0
 324 698 313 704 305 713 c 2
EndSplineSet
EndChar
StartChar: Eacute
Encoding: 201 201 160
Width: 636
Flags: MW
HStem: 0 100<97 508 160 508 160 508> 302 99<160 464 160 464> 582 100<160 510 160 160> 882 20G<365.5 389>
VStem: 61 99<100 100 100 302 401 582>
LayerCount: 2
Back
Fore
SplineSet
160 100 m 1
 508 100 l 2
 536 100 557 78 557 50 c 0
 557 22 536 0 508 0 c 2
 111 0 l 2
 83 0 61 22 61 50 c 2
 61 632 l 2
 61 660 83 682 111 682 c 2
 510 682 l 2
 538 682 559 660 559 632 c 0
 559 605 538 582 510 582 c 2
 160 582 l 1
 160 401 l 1
 464 401 l 2
 492 401 513 380 513 352 c 0
 513 324 492 302 464 302 c 2
 160 302 l 1
 160 100 l 1
218 790 m 2
 333 883 l 2
 343 891 357 902 374 902 c 0
 404 902 427 878 427 847 c 0
 427 832 422 817 408 807 c 2
 284 722 l 2
 274 715 262 709 251 709 c 0
 227 709 205 730 205 757 c 0
 205 768 207 781 218 790 c 2
EndSplineSet
EndChar
StartChar: Ecircumflex
Encoding: 202 202 161
Width: 636
Flags: MW
HStem: 0 100<97 508 160 508 160 508> 100 202<160 464 160 508 160 522> 302 99<160 464 160 464> 582 100<160 510 160 160> 682 21G<197.5 215 428 446.5> 878 20G<327.5 338>
VStem: 61 99<100 100 100 302 401 582>
LayerCount: 2
Back
Fore
SplineSet
160 100 m 1x56
 508 100 l 2
 536 100 557 78 557 50 c 0
 557 22 536 0 508 0 c 2
 111 0 l 2
 83 0 61 22 61 50 c 2
 61 632 l 2
 61 660 83 682 111 682 c 2
 510 682 l 2
 538 682 559 660 559 632 c 0
 559 605 538 582 510 582 c 2
 160 582 l 1
 160 401 l 1
 464 401 l 2xb6
 492 401 513 380 513 352 c 0
 513 324 492 302 464 302 c 2
 160 302 l 1
 160 100 l 1x56
181 786 m 2
 300 886 l 2
 311 895 323 898 332 898 c 0
 344 898 358 892 370 880 c 2
 466 784 l 2
 476 774 480 763 480 750 c 0
 480 725 459 703 434 703 c 0
 422 703 412 705 401 715 c 2
 328 781 l 1
 239 712 l 2
 228 704 220 703 210 703 c 0xae
 185 703 163 723 163 750 c 0
 163 763 169 776 181 786 c 2
EndSplineSet
EndChar
StartChar: Igrave
Encoding: 204 204 163
Width: 459
Flags: MW
HStem: -1 100<89 173 103 173 273 342> 581 100<89 342 103 173 273 273 273 342> 896 20G<154 177>
VStem: 53 220<35 99> 173 218<35 581>
LayerCount: 2
Back
Fore
SplineSet
273 99 m 1xf0
 342 99 l 2
 372 99 391 77 391 49 c 0xe8
 391 21 370 -1 342 -1 c 2
 103 -1 l 2
 75 -1 53 21 53 49 c 0xf0
 53 77 75 99 103 99 c 2
 173 99 l 1
 173 581 l 1xe8
 103 581 l 2
 75 581 53 604 53 632 c 0xf0
 53 660 75 681 103 681 c 2
 342 681 l 2
 370 681 391 660 391 632 c 0xe8
 391 604 370 581 342 581 c 2
 273 581 l 1
 273 99 l 1xf0
237 713 m 2xf0
 130 824 l 2
 120 834 114 846 114 862 c 0
 114 890 140 916 168 916 c 0
 186 916 202 906 212 894 c 2
 307 775 l 2
 316 763 319 755 319 745 c 0
 319 718 295 698 271 698 c 0
 256 698 245 704 237 713 c 2xf0
EndSplineSet
EndChar
StartChar: Iacute
Encoding: 205 205 164
Width: 459
Flags: MW
HStem: -1 100<89 173 103 173 273 342> 581 100<89 342 103 173 273 273 273 342> 882 20G<290.5 314>
VStem: 53 220<35 99> 173 218<35 581>
LayerCount: 2
Back
Fore
SplineSet
273 99 m 1xf0
 342 99 l 2
 372 99 391 77 391 49 c 0xe8
 391 21 370 -1 342 -1 c 2
 103 -1 l 2
 75 -1 53 21 53 49 c 0xf0
 53 77 75 99 103 99 c 2
 173 99 l 1
 173 581 l 1xe8
 103 581 l 2
 75 581 53 604 53 632 c 0xf0
 53 660 75 681 103 681 c 2
 342 681 l 2
 370 681 391 660 391 632 c 0xe8
 391 604 370 581 342 581 c 2
 273 581 l 1
 273 99 l 1xf0
143 790 m 2xf0
 258 883 l 2
 268 891 282 902 299 902 c 0
 329 902 352 878 352 847 c 0
 352 832 347 817 333 807 c 2
 209 722 l 2
 199 715 187 709 176 709 c 0
 152 709 130 730 130 757 c 0
 130 768 132 781 143 790 c 2xf0
EndSplineSet
EndChar
StartChar: Icircumflex
Encoding: 206 206 165
Width: 459
Flags: MW
HStem: -1 100<89 173 103 173 273 342> 581 100<89 342 103 173 273 273 273 342> 681 22<103 120 333 342 342 351.5> 878 20G<232.5 243>
VStem: 53 220<35 99> 173 100<99 581> 173 218<35 581>
LayerCount: 2
Back
Fore
SplineSet
273 99 m 1xd8
 342 99 l 2
 372 99 391 77 391 49 c 0xd2
 391 21 370 -1 342 -1 c 2
 103 -1 l 2
 75 -1 53 21 53 49 c 0xd8
 53 77 75 99 103 99 c 2
 173 99 l 1
 173 581 l 1xd4
 103 581 l 2
 75 581 53 604 53 632 c 0xd8
 53 660 75 681 103 681 c 2
 342 681 l 2
 370 681 391 660 391 632 c 0xd2
 391 604 370 581 342 581 c 2
 273 581 l 1
 273 99 l 1xd8
86 786 m 2xb8
 205 886 l 2
 216 895 228 898 237 898 c 0
 249 898 263 892 275 880 c 2
 371 784 l 2
 381 774 385 763 385 750 c 0
 385 725 364 703 339 703 c 0
 327 703 317 705 306 715 c 2
 233 781 l 1
 144 712 l 2
 133 704 125 703 115 703 c 0
 90 703 68 723 68 750 c 0
 68 763 74 776 86 786 c 2xb8
EndSplineSet
EndChar
StartChar: Idieresis
Encoding: 207 207 166
Width: 459
Flags: MW
HStem: -1 100<89 173 103 173 273 342> 581 100<89 342 103 173 273 273 273 342> 703 124<115.5 150 304 338>
VStem: 53 148<618 784> 65 136<749.5 779> 173 100<99 581> 253 136<749.5 779>
LayerCount: 2
Back
Fore
SplineSet
201 767 m 0xea
 201 732 170 703 130 703 c 0
 94 703 65 727 65 762 c 0
 65 796 96 827 135 827 c 0
 169 827 201 801 201 767 c 0xea
389 767 m 0
 389 732 358 703 318 703 c 0
 282 703 253 727 253 762 c 0
 253 796 284 827 324 827 c 0
 357 827 389 801 389 767 c 0
273 99 m 1xe4
 342 99 l 2
 372 99 391 77 391 49 c 0
 391 21 370 -1 342 -1 c 2
 103 -1 l 2
 75 -1 53 21 53 49 c 0xf2
 53 77 75 99 103 99 c 2
 173 99 l 1
 173 581 l 1xe4
 103 581 l 2
 75 581 53 604 53 632 c 0xf2
 53 660 75 681 103 681 c 2
 342 681 l 2
 370 681 391 660 391 632 c 0
 391 604 370 581 342 581 c 2
 273 581 l 1
 273 99 l 1xe4
EndSplineSet
EndChar
StartChar: Ntilde
Encoding: 209 209 167
Width: 645
Flags: MW
HStem: 0 21G<97 124 506.5 527.5> 662 20G<500 527> 705 88<380.5 398.5 380.5 420.5> 705 188<354 489.5> 788 89<229.5 254.5>
VStem: 61 99<36 49> 464 99<207 632>
LayerCount: 2
Back
Fore
SplineSet
473 22 m 2xe6
 161 473 l 1
 160 49 l 2
 160 21 138 0 110 0 c 0
 84 0 61 23 61 49 c 2
 62 632 l 2
 62 658 81 681 110 681 c 0
 125 681 142 673 151 660 c 2
 464 207 l 1
 464 632 l 2
 464 659 486 682 514 682 c 0
 540 682 563 659 563 632 c 2
 563 49 l 2
 563 20 541 0 514 0 c 0
 499 0 483 8 473 22 c 2xe6
449 871 m 0
 453 886 465 893 480 893 c 0
 499 893 519 883 519 860 c 0
 519 856 519 849 516 838 c 0
 506 807 471 705 370 705 c 0xd6
 338 705 311 722 289 753 c 0
 273 776 262 788 247 788 c 0
 212 788 195 736 190 720 c 0
 185 705 176 698 161 698 c 0
 142 698 122 708 122 731 c 0
 122 735 122 742 125 753 c 0
 142 810 181 877 259 877 c 0xce
 298 877 324 860 346 829 c 0
 362 807 373 793 388 793 c 0
 409 793 435 817 449 871 c 0
EndSplineSet
EndChar
StartChar: Ograve
Encoding: 210 210 168
Width: 686
Flags: MW
HStem: -2 95<266 363.5 266 391> 587 95<293.5 393.5> 896 20G<282 305>
VStem: 57 96<254.5 390.5 254.5 414.5> 511 95<288.5 418>
LayerCount: 2
Back
Fore
SplineSet
312 -2 m 0
 163 -2 57 144 57 315 c 0
 57 514 194 682 351 682 c 0
 498 682 606 538 606 365 c 0
 606 166 470 -2 312 -2 c 0
345 587 m 0
 242 587 153 466 153 315 c 0
 153 194 220 93 312 93 c 0
 415 93 511 216 511 361 c 0
 511 475 442 587 345 587 c 0
365 713 m 2
 258 824 l 2
 248 834 242 846 242 862 c 0
 242 890 268 916 296 916 c 0
 314 916 330 906 340 894 c 2
 435 775 l 2
 444 763 447 755 447 745 c 0
 447 718 423 698 399 698 c 0
 384 698 373 704 365 713 c 2
EndSplineSet
EndChar
StartChar: Oacute
Encoding: 211 211 169
Width: 686
Flags: MW
HStem: -2 95<266 363.5 266 391> 587 95<293.5 393.5> 882 20G<415.5 439>
VStem: 57 96<254.5 390.5 254.5 414.5> 511 95<288.5 418>
LayerCount: 2
Back
Fore
SplineSet
312 -2 m 0
 163 -2 57 144 57 315 c 0
 57 514 194 682 351 682 c 0
 498 682 606 538 606 365 c 0
 606 166 470 -2 312 -2 c 0
345 587 m 0
 242 587 153 466 153 315 c 0
 153 194 220 93 312 93 c 0
 415 93 511 216 511 361 c 0
 511 475 442 587 345 587 c 0
268 790 m 2
 383 883 l 2
 393 891 407 902 424 902 c 0
 454 902 477 878 477 847 c 0
 477 832 472 817 458 807 c 2
 334 722 l 2
 324 715 312 709 301 709 c 0
 277 709 255 730 255 757 c 0
 255 768 257 781 268 790 c 2
EndSplineSet
EndChar
StartChar: Ocircumflex
Encoding: 212 212 170
Width: 686
Flags: MW
HStem: -2 95<266 363.5 266 391> 587 95<293.5 393.5> 682 21G 878 20G<362.5 373>
VStem: 57 96<254.5 390.5 254.5 414.5> 511 95<288.5 418>
LayerCount: 2
Back
Fore
SplineSet
312 -2 m 0xdc
 163 -2 57 144 57 315 c 0
 57 514 194 682 351 682 c 0
 498 682 606 538 606 365 c 0
 606 166 470 -2 312 -2 c 0xdc
345 587 m 0
 242 587 153 466 153 315 c 0
 153 194 220 93 312 93 c 0
 415 93 511 216 511 361 c 0
 511 475 442 587 345 587 c 0
216 786 m 2
 335 886 l 2
 346 895 358 898 367 898 c 0
 379 898 393 892 405 880 c 2
 501 784 l 2
 511 774 515 763 515 750 c 0
 515 725 494 703 469 703 c 0
 457 703 447 705 436 715 c 2
 363 781 l 1
 274 712 l 2
 263 704 255 703 245 703 c 0xbc
 220 703 198 723 198 750 c 0
 198 763 204 776 216 786 c 2
EndSplineSet
EndChar
StartChar: Otilde
Encoding: 213 213 171
Width: 686
Flags: MW
HStem: -2 95<266 363.5 266 391> 587 95<293.5 393.5> 705 88<425.5 443.5 425.5 465.5> 705 188<399 534.5> 788 89<274.5 299.5>
VStem: 57 96<254.5 390.5 254.5 414.5> 511 95<288.5 418>
LayerCount: 2
Back
Fore
SplineSet
312 -2 m 0xe6
 163 -2 57 144 57 315 c 0
 57 514 194 682 351 682 c 0
 498 682 606 538 606 365 c 0
 606 166 470 -2 312 -2 c 0xe6
345 587 m 0
 242 587 153 466 153 315 c 0
 153 194 220 93 312 93 c 0
 415 93 511 216 511 361 c 0
 511 475 442 587 345 587 c 0
494 871 m 0
 498 886 510 893 525 893 c 0
 544 893 564 883 564 860 c 0
 564 856 564 849 561 838 c 0
 551 807 516 705 415 705 c 0xd6
 383 705 356 722 334 753 c 0
 318 776 307 788 292 788 c 0
 257 788 240 736 235 720 c 0
 230 705 221 698 206 698 c 0
 187 698 167 708 167 731 c 0
 167 735 167 742 170 753 c 0
 187 810 226 877 304 877 c 0xce
 343 877 369 860 391 829 c 0
 407 807 418 793 433 793 c 0
 454 793 480 817 494 871 c 0
EndSplineSet
EndChar
StartChar: Odieresis
Encoding: 214 214 172
Width: 686
Flags: MW
HStem: -2 95<266 363.5 266 391> 587 95<293.5 393.5> 703 124<251.5 285 439.5 473>
VStem: 57 96<254.5 390.5 254.5 414.5> 200 136<749.5 779> 388 136<749.5 779> 511 95<288.5 418>
LayerCount: 2
Back
Fore
SplineSet
336 767 m 0xfc
 336 732 305 703 265 703 c 0
 229 703 200 727 200 762 c 0
 200 796 232 827 271 827 c 0
 304 827 336 801 336 767 c 0xfc
524 767 m 0
 524 732 493 703 453 703 c 0
 417 703 388 727 388 762 c 0
 388 796 420 827 459 827 c 0
 492 827 524 801 524 767 c 0
312 -2 m 0
 163 -2 57 144 57 315 c 0
 57 514 194 682 351 682 c 0
 498 682 606 538 606 365 c 0xfa
 606 166 470 -2 312 -2 c 0
345 587 m 0
 242 587 153 466 153 315 c 0
 153 194 220 93 312 93 c 0
 415 93 511 216 511 361 c 0
 511 475 442 587 345 587 c 0
EndSplineSet
EndChar
StartChar: multiply
Encoding: 215 215 173
Width: 467
Flags: MW
HStem: 109 21G<122 143> 110 21G<303.5 322.5> 356 20G
LayerCount: 2
Back
Fore
SplineSet
168 123 m 0x60
 159 114 150 109 136 109 c 0xa0
 108 109 89 134 89 155 c 0
 89 168 95 181 103 189 c 2
 158 243 l 1
 110 290 l 2
 102 298 97 309 97 323 c 0
 97 346 118 370 143 370 c 0
 158 370 168 364 177 356 c 2
 224 310 l 1
 277 363 l 2
 285 371 297 376 308 376 c 0
 341 376 356 354 356 328 c 0
 356 316 351 304 344 297 c 2
 290 243 l 1
 343 190 l 2
 351 182 356 171 356 157 c 0
 356 129 335 110 310 110 c 0
 297 110 286 116 277 124 c 2
 223 177 l 1
 205 159 186 141 168 123 c 0x60
EndSplineSet
EndChar
StartChar: Oslash
Encoding: 216 216 127
Width: 686
Flags: MW
HStem: -30 21G<116 141> -2 95<298.5 363.5 298.5 391> 587 95<293.5 352> 719 20G<497 517>
VStem: 57 96<291.5 390.5 291.5 414.5> 511 95<288.5 390>
LayerCount: 2
Back
Fore
SplineSet
436 664 m 1
 464 714 l 2
 474 732 488 739 506 739 c 0
 528 739 553 721 553 692 c 0
 553 686 553 677 548 668 c 2
 515 610 l 1
 572 551 606 464 606 365 c 0
 606 166 470 -2 312 -2 c 0
 269 -2 228 11 194 33 c 1
 173 -6 l 2
 164 -21 150 -30 132 -30 c 0
 100 -30 84 -9 84 18 c 0
 84 24 86 33 90 40 c 2
 122 100 l 1
 80 156 57 232 57 315 c 0
 57 514 194 682 351 682 c 0
 383 682 408 676 436 664 c 1
312 93 m 0
 415 93 511 216 511 361 c 0
 511 419 495 474 464 517 c 1
 241 115 l 1
 263 100 285 93 312 93 c 0
345 587 m 0
 242 587 153 466 153 315 c 0
 153 268 158 234 176 197 c 1
 250 329 315 444 389 578 c 1
 376 584 359 587 345 587 c 0
EndSplineSet
EndChar
StartChar: Ugrave
Encoding: 217 217 174
Width: 709
Flags: MW
HStem: 0 92<270.5 377.5 270.5 422.5> 896 20G<262 285>
VStem: 63 100<381 633 381 634 381 642> 523 99<633 639>
LayerCount: 2
Back
Fore
SplineSet
345 713 m 2
 238 824 l 2
 228 834 222 846 222 862 c 0
 222 890 248 916 276 916 c 0
 294 916 310 906 320 894 c 2
 415 775 l 2
 424 763 427 755 427 745 c 0
 427 718 403 698 379 698 c 0
 364 698 353 704 345 713 c 2
622 633 m 0
 626 507 631 400 614 270 c 0
 593 110 511 0 334 0 c 0
 165 0 70 151 63 367 c 0
 60 474 62 549 63 634 c 0
 63 650 74 681 115 681 c 0
 155 681 163 649 163 633 c 0
 161 544 160 474 163 381 c 0
 168 236 205 92 336 92 c 0
 419 92 499 139 515 277 c 0
 528 397 523 498 523 631 c 0
 523 647 530 681 573 681 c 0
 616 681 622 648 622 633 c 0
EndSplineSet
EndChar
StartChar: Uacute
Encoding: 218 218 175
Width: 709
Flags: MW
HStem: 0 92<270.5 377.5 270.5 422.5> 882 20G<415.5 439>
VStem: 63 100<381 633 381 634 381 642> 523 99<633 639>
LayerCount: 2
Back
Fore
SplineSet
622 633 m 0
 626 507 631 400 614 270 c 0
 593 110 511 0 334 0 c 0
 165 0 70 151 63 367 c 0
 60 474 62 549 63 634 c 0
 63 650 74 681 115 681 c 0
 155 681 163 649 163 633 c 0
 161 544 160 474 163 381 c 0
 168 236 205 92 336 92 c 0
 419 92 499 139 515 277 c 0
 528 397 523 498 523 631 c 0
 523 647 530 681 573 681 c 0
 616 681 622 648 622 633 c 0
268 790 m 2
 383 883 l 2
 393 891 407 902 424 902 c 0
 454 902 477 878 477 847 c 0
 477 832 472 817 458 807 c 2
 334 722 l 2
 324 715 312 709 301 709 c 0
 277 709 255 730 255 757 c 0
 255 768 257 781 268 790 c 2
EndSplineSet
EndChar
StartChar: Ucircumflex
Encoding: 219 219 176
Width: 709
Flags: MW
HStem: 0 92<270.5 377.5 270.5 422.5> 681 22 878 20G<357.5 368>
VStem: 63 100<381 633 381 634 381 642> 523 99<633 639>
LayerCount: 2
Back
Fore
SplineSet
622 633 m 0
 626 507 631 400 614 270 c 0
 593 110 511 0 334 0 c 0
 165 0 70 151 63 367 c 0
 60 474 62 549 63 634 c 0
 63 650 74 681 115 681 c 0
 155 681 163 649 163 633 c 0
 161 544 160 474 163 381 c 0
 168 236 205 92 336 92 c 0
 419 92 499 139 515 277 c 0
 528 397 523 498 523 631 c 0
 523 647 530 681 573 681 c 0
 616 681 622 648 622 633 c 0
211 786 m 2
 330 886 l 2
 341 895 353 898 362 898 c 0
 374 898 388 892 400 880 c 2
 496 784 l 2
 506 774 510 763 510 750 c 0
 510 725 489 703 464 703 c 0
 452 703 442 705 431 715 c 2
 358 781 l 1
 269 712 l 2
 258 704 250 703 240 703 c 0
 215 703 193 723 193 750 c 0
 193 763 199 776 211 786 c 2
EndSplineSet
EndChar
StartChar: Udieresis
Encoding: 220 220 177
Width: 709
Flags: MW
HStem: 0 92<270.5 377.5 270.5 422.5> 703 124<233.5 268 422 456>
VStem: 63 100<381 633 381 634 381 642> 183 136<749.5 779> 371 136<749.5 779> 523 99<633 639>
LayerCount: 2
Back
Fore
SplineSet
319 767 m 0
 319 732 288 703 248 703 c 0
 212 703 183 727 183 762 c 0
 183 796 214 827 253 827 c 0
 287 827 319 801 319 767 c 0
507 767 m 0
 507 732 476 703 436 703 c 0
 400 703 371 727 371 762 c 0
 371 796 402 827 442 827 c 0
 475 827 507 801 507 767 c 0
622 633 m 0
 626 507 631 400 614 270 c 0
 593 110 511 0 334 0 c 0
 165 0 70 151 63 367 c 0
 60 474 62 549 63 634 c 0
 63 650 74 681 115 681 c 0
 155 681 163 649 163 633 c 0
 161 544 160 474 163 381 c 0
 168 236 205 92 336 92 c 0
 419 92 499 139 515 277 c 0
 528 397 523 498 523 631 c 0
 523 647 530 681 573 681 c 0
 616 681 622 648 622 633 c 0
EndSplineSet
EndChar
StartChar: Yacute
Encoding: 221 221 178
Width: 619
Flags: MW
HStem: 0 21G<189 212> 882 20G<370.5 394>
LayerCount: 2
Back
Fore
SplineSet
307 321 m 1
 506 657 l 2
 515 673 531 681 549 681 c 0
 573 681 598 660 598 632 c 0
 598 621 597 615 588 600 c 2
 246 25 l 2
 237 9 221 0 203 0 c 0
 175 0 154 24 154 49 c 0
 154 59 155 64 162 77 c 2
 249 223 l 1
 27 603 l 2
 21 614 19 623 19 632 c 0
 19 658 41 681 69 681 c 0
 86 681 102 672 111 656 c 2
 307 321 l 1
223 790 m 2
 338 883 l 2
 348 891 362 902 379 902 c 0
 409 902 432 878 432 847 c 0
 432 832 427 817 413 807 c 2
 289 722 l 2
 279 715 267 709 256 709 c 0
 232 709 210 730 210 757 c 0
 210 768 212 781 223 790 c 2
EndSplineSet
EndChar
StartChar: Thorn
Encoding: 222 222 117
Width: 573
Flags: MW
HStem: 0 232 134 98<154 154> 483 96<155 166 155 155> 483 197<95 166 95 155>
VStem: 60 94 393 94<321.5 407.5>
LayerCount: 2
Back
Fore
SplineSet
155 632 m 2x9c
 155 579 l 1
 300 577 487 550 487 373 c 0
 487 198 294 142 154 134 c 1x6c
 154 47 l 2
 154 20 133 0 106 0 c 0
 80 0 59 20 59 48 c 2
 61 633 l 2
 61 660 82 680 108 680 c 0
 133 680 155 660 155 632 c 2x9c
154 232 m 1
 246 238 393 270 393 373 c 0
 393 442 309 483 166 483 c 2
 155 483 l 1
 155 483 154 316 154 232 c 1
EndSplineSet
EndChar
StartChar: germandbls
Encoding: 223 223 126
Width: 551
Flags: MW
HStem: -23 93<264 307.5 264 333> -1 21G<96 120.5> 533 93<211 253.5>
VStem: 62 92<45 455> 196 206<316.5 502.5> 310 92<438 476.5> 387 93<150 210>
LayerCount: 2
Back
Fore
SplineSet
240 378 m 0xb8
 291 383 310 410 310 455 c 0
 310 498 275 533 232 533 c 0
 190 533 154 498 154 455 c 2
 154 45 l 2
 154 21 133 -1 108 -1 c 0
 84 -1 62 21 62 45 c 2
 62 455 l 2
 62 550 138 626 232 626 c 0
 326 626 402 550 402 455 c 0x74
 402 421 393 386 372 360 c 1
 432 337 480 271 480 179 c 0
 480 69 388 -23 278 -23 c 0
 250 -23 228 -4 228 24 c 0
 228 52 250 70 278 70 c 0
 337 70 387 120 387 180 c 0xb2
 387 240 346 299 272 288 c 0
 263 287 254 285 242 285 c 0
 219 285 196 302 196 331 c 0
 196 355 214 375 240 378 c 0xb8
EndSplineSet
EndChar
StartChar: agrave
Encoding: 224 224 135
Width: 531
Flags: MW
HStem: -10 21G<386 413> -3 96<204 259 204 260> 407 95<235.5 299.5> 726 20G<222 245>
VStem: 47 97<191 251.5 191 267.5> 350 97
LayerCount: 2
Back
Fore
SplineSet
447 456 m 1x7c
 447 40 l 2
 447 14 427 -10 399 -10 c 0xbc
 373 -10 357 5 352 25 c 1
 319 10 280 -3 240 -3 c 0
 130 -3 47 85 47 216 c 0
 47 319 112 502 287 502 c 0
 359 502 429 465 447 456 c 1x7c
349 134 m 1
 352 395 l 1
 335 402 310 407 289 407 c 0
 182 407 144 285 144 218 c 0
 144 164 169 93 239 93 c 0x7c
 279 93 324 118 349 134 c 1
305 543 m 2
 198 654 l 2
 188 664 182 676 182 692 c 0
 182 720 208 746 236 746 c 0
 254 746 270 736 280 724 c 2
 375 605 l 2
 384 593 387 585 387 575 c 0
 387 548 363 528 339 528 c 0
 324 528 313 534 305 543 c 2
EndSplineSet
EndChar
StartChar: aacute
Encoding: 225 225 134
Width: 531
Flags: MW
HStem: -10 21G<386 413> -3 96<204 259 204 260> 407 95<235.5 299.5> 702 20G<370.5 394>
VStem: 47 97<191 251.5 191 267.5> 350 97
LayerCount: 2
Back
Fore
SplineSet
447 456 m 1x7c
 447 40 l 2
 447 14 427 -10 399 -10 c 0xbc
 373 -10 357 5 352 25 c 1
 319 10 280 -3 240 -3 c 0
 130 -3 47 85 47 216 c 0
 47 319 112 502 287 502 c 0
 359 502 429 465 447 456 c 1x7c
349 134 m 1
 352 395 l 1
 335 402 310 407 289 407 c 0
 182 407 144 285 144 218 c 0
 144 164 169 93 239 93 c 0x7c
 279 93 324 118 349 134 c 1
223 610 m 2
 338 703 l 2
 348 711 362 722 379 722 c 0
 409 722 432 698 432 667 c 0
 432 652 427 637 413 627 c 2
 289 542 l 2
 279 535 267 529 256 529 c 0
 232 529 210 550 210 577 c 0
 210 588 212 601 223 610 c 2
EndSplineSet
EndChar
StartChar: acircumflex
Encoding: 226 226 131
Width: 531
Flags: MW
HStem: -10 21G<386 413> -3 96<204 259 204 260> 407 95<235.5 299.5> 502 41<167.5 323> 718 20G<297.5 308>
VStem: 47 97<191 251.5 191 267.5> 350 97
LayerCount: 2
Back
Fore
SplineSet
447 456 m 1x6e
 447 40 l 2
 447 14 427 -10 399 -10 c 0xae
 373 -10 357 5 352 25 c 1
 319 10 280 -3 240 -3 c 0
 130 -3 47 85 47 216 c 0
 47 319 112 502 287 502 c 0
 359 502 429 465 447 456 c 1x6e
349 134 m 1
 352 395 l 1
 335 402 310 407 289 407 c 0
 182 407 144 285 144 218 c 0
 144 164 169 93 239 93 c 0x6e
 279 93 324 118 349 134 c 1
151 626 m 2
 270 726 l 2
 281 735 293 738 302 738 c 0
 314 738 328 732 340 720 c 2
 436 624 l 2
 446 614 450 603 450 590 c 0
 450 565 429 543 404 543 c 0
 392 543 382 545 371 555 c 2
 298 621 l 1
 209 552 l 2
 198 544 190 543 180 543 c 0x5e
 155 543 133 563 133 590 c 0
 133 603 139 616 151 626 c 2
EndSplineSet
EndChar
StartChar: atilde
Encoding: 227 227 132
Width: 531
Flags: MW
HStem: -10 21G<386 413> -3 96<204 259 204 260> 407 95<235.5 299.5> 525 88<330.5 348.5 330.5 370.5> 525 188<304 439.5> 608 89<179.5 204.5>
VStem: 47 97<191 251.5 191 267.5> 350 97
LayerCount: 2
Back
Fore
SplineSet
447 456 m 1x73
 447 40 l 2
 447 14 427 -10 399 -10 c 0xb3
 373 -10 357 5 352 25 c 1
 319 10 280 -3 240 -3 c 0
 130 -3 47 85 47 216 c 0
 47 319 112 502 287 502 c 0
 359 502 429 465 447 456 c 1x73
349 134 m 1
 352 395 l 1
 335 402 310 407 289 407 c 0
 182 407 144 285 144 218 c 0
 144 164 169 93 239 93 c 0x73
 279 93 324 118 349 134 c 1
399 691 m 0
 403 706 415 713 430 713 c 0
 449 713 469 703 469 680 c 0
 469 676 469 669 466 658 c 0
 456 627 421 525 320 525 c 0x6b
 288 525 261 542 239 573 c 0
 223 596 212 608 197 608 c 0
 162 608 145 556 140 540 c 0
 135 525 126 518 111 518 c 0
 92 518 72 528 72 551 c 0
 72 555 72 562 75 573 c 0
 92 630 131 697 209 697 c 0x67
 248 697 274 680 296 649 c 0
 312 627 323 613 338 613 c 0
 359 613 385 637 399 691 c 0
EndSplineSet
EndChar
StartChar: adieresis
Encoding: 228 228 133
Width: 531
Flags: MW
HStem: -10 21G<386 413> -3 96<204 259 204 260> 407 95<235.5 299.5> 543 121<174 207.5 358.5 391.5>
VStem: 47 97<191 251.5 191 267.5> 124 133<588.5 617.5> 309 138
LayerCount: 2
Back
Fore
SplineSet
257 606 m 0x76
 257 571 227 543 188 543 c 0
 152 543 124 567 124 601 c 0
 124 634 155 664 193 664 c 0
 226 664 257 639 257 606 c 0x76
441 606 m 0
 441 571 411 543 372 543 c 0
 337 543 309 567 309 601 c 0
 309 634 339 664 378 664 c 0
 410 664 441 639 441 606 c 0
447 456 m 1
 447 40 l 2
 447 14 427 -10 399 -10 c 0xba
 373 -10 357 5 352 25 c 1
 319 10 280 -3 240 -3 c 0
 130 -3 47 85 47 216 c 0x7a
 47 319 112 502 287 502 c 0
 359 502 429 465 447 456 c 1
349 134 m 1
 352 395 l 1
 335 402 310 407 289 407 c 0
 182 407 144 285 144 218 c 0
 144 164 169 93 239 93 c 0x7a
 279 93 324 118 349 134 c 1
EndSplineSet
EndChar
StartChar: aring
Encoding: 229 229 130
Width: 531
Flags: MW
HStem: -10 21G<386 413> -3 96<204 259 204 260> 407 95<235.5 299.5> 531 88<283.5 309 283.5 325> 688 88<288 319>
VStem: 47 97<191 251.5 191 267.5> 163 84<638.5 655.5 638.5 684.5> 350 85 350 97
LayerCount: 2
Back
Fore
SplineSet
289 531 m 0x7f
 220 531 163 582 163 647 c 0
 163 722 236 776 309 776 c 0
 376 776 435 725 435 660 c 0
 435 583 361 531 289 531 c 0x7f
306 688 m 0
 270 688 247 664 247 647 c 0
 247 630 269 619 298 619 c 0
 320 619 351 633 351 658 c 0
 351 672 332 688 306 688 c 0
447 456 m 1x7e80
 447 40 l 2
 447 14 427 -10 399 -10 c 0xbe80
 373 -10 357 5 352 25 c 1
 319 10 280 -3 240 -3 c 0
 130 -3 47 85 47 216 c 0
 47 319 112 502 287 502 c 0
 359 502 429 465 447 456 c 1x7e80
349 134 m 1
 352 395 l 1
 335 402 310 407 289 407 c 0
 182 407 144 285 144 218 c 0
 144 164 169 93 239 93 c 0x7f
 279 93 324 118 349 134 c 1
EndSplineSet
EndChar
StartChar: ae
Encoding: 230 230 121
Width: 858
Flags: MW
HStem: 0 21G<383.5 407 559.5 619> 7 86 7 144 392 92<550 591> 404 94<237.5 299>
VStem: 55 94<187 252.5 187 299.5> 347 86
LayerCount: 2
Back
Fore
SplineSet
752 74 m 0x36
 714 33 650 0 588 0 c 0
 531 0 483 15 443 44 c 1
 441 23 419 0 395 0 c 0x8e
 372 0 354 16 349 34 c 1
 319 20 281 7 244 7 c 0
 136 7 55 86 55 217 c 0
 55 382 162 498 282 498 c 0x4e
 345 498 413 469 432 455 c 1
 432 429 l 1
 472 468 527 484 573 484 c 0
 697 484 756 391 756 344 c 0
 756 327 744 310 724 298 c 2
 464 148 l 1
 493 112 541 93 594 93 c 0x56
 627 93 662 112 683 135 c 0
 692 145 702 151 718 151 c 0
 744 151 764 131 764 104 c 0
 764 92 760 82 752 74 c 0x36
345 140 m 1
 350 392 l 1x56
 334 398 309 404 289 404 c 0
 186 404 149 285 149 220 c 0
 149 154 183 101 240 101 c 0
 276 101 321 123 345 140 c 1
433 234 m 1
 659 359 l 1
 643 381 614 392 568 392 c 0
 491 392 437 322 433 234 c 1
EndSplineSet
EndChar
StartChar: ccedilla
Encoding: 231 231 179
Width: 535
Flags: MW
HStem: -196 87<221.5 305> 0 93 0 172 349 151<222.5 402> 407 93<249 293>
VStem: 47 94<171.5 232 171.5 242.5> 197 184<-164 -85.5>
LayerCount: 2
Back
Fore
SplineSet
267 -126 m 0xb6
 272 -130 278 -132 287 -132 c 0
 303 -132 310 -118 310 -106 c 0
 310 -94 302 -86 286 -83 c 2
 237 -73 l 2
 218 -69 216 -53 221 -35 c 0
 225 -20 228 -7 232 3 c 1
 130 22 47 106 47 219 c 0
 47 266 61 310 71 335 c 0
 96 401 173 500 272 500 c 0
 347 500 384 476 424 430 c 0
 433 419 437 408 437 396 c 0
 437 370 415 349 389 349 c 0xd6
 372 349 364 354 358 361 c 0
 334 389 312 407 274 407 c 0
 224 407 176 346 157 302 c 0
 146 272 141 243 141 221 c 0
 141 122 229 93 263 93 c 0xce
 320 93 352 117 374 147 c 0
 381 156 394 172 417 172 c 0
 443 172 464 151 464 124 c 0
 464 112 459 102 453 94 c 0
 420 50 357 5 288 0 c 1
 289 -9 290 -18 290 -27 c 1
 350 -37 381 -61 381 -110 c 0
 381 -168 334 -196 276 -196 c 0
 238 -196 197 -180 197 -148 c 0
 197 -131 210 -109 233 -109 c 0
 250 -109 257 -118 267 -126 c 0xb6
EndSplineSet
EndChar
StartChar: egrave
Encoding: 232 232 180
Width: 547
Flags: MW
HStem: 0 93<268.5 313.5 268.5 328> 0 151<221 442.5> 405 94<236.5 298> 726 20G<212 235>
VStem: 49 91<247 247 247 307.5>
LayerCount: 2
Back
Fore
SplineSet
396 135 m 0xb8
 405 144 416 151 429 151 c 0x78
 456 151 476 131 476 104 c 0
 476 92 471 81 464 74 c 0
 428 33 359 0 297 0 c 0
 145 0 49 114 49 239 c 0
 49 376 138 499 275 499 c 0
 407 499 467 402 467 355 c 0
 467 338 457 321 436 309 c 2
 168 155 l 1
 197 114 240 93 297 93 c 0
 330 93 374 112 396 135 c 0xb8
140 247 m 1
 366 372 l 1
 350 394 321 405 275 405 c 0
 198 405 144 335 140 247 c 1
295 543 m 2
 188 654 l 2
 178 664 172 676 172 692 c 0
 172 720 198 746 226 746 c 0
 244 746 260 736 270 724 c 2
 365 605 l 2
 374 593 377 585 377 575 c 0
 377 548 353 528 329 528 c 0
 314 528 303 534 295 543 c 2
EndSplineSet
EndChar
StartChar: eacute
Encoding: 233 233 181
Width: 547
Flags: MW
HStem: 0 93<268.5 313.5 268.5 328> 0 151<221 442.5> 405 94<236.5 298> 702 20G<350.5 374>
VStem: 49 91<247 247 247 307.5>
LayerCount: 2
Back
Fore
SplineSet
396 135 m 0xb8
 405 144 416 151 429 151 c 0x78
 456 151 476 131 476 104 c 0
 476 92 471 81 464 74 c 0
 428 33 359 0 297 0 c 0
 145 0 49 114 49 239 c 0
 49 376 138 499 275 499 c 0
 407 499 467 402 467 355 c 0
 467 338 457 321 436 309 c 2
 168 155 l 1
 197 114 240 93 297 93 c 0
 330 93 374 112 396 135 c 0xb8
140 247 m 1
 366 372 l 1
 350 394 321 405 275 405 c 0
 198 405 144 335 140 247 c 1
203 610 m 2
 318 703 l 2
 328 711 342 722 359 722 c 0
 389 722 412 698 412 667 c 0
 412 652 407 637 393 627 c 2
 269 542 l 2
 259 535 247 529 236 529 c 0
 212 529 190 550 190 577 c 0
 190 588 192 601 203 610 c 2
EndSplineSet
EndChar
StartChar: ecircumflex
Encoding: 234 234 182
Width: 547
Flags: MW
HStem: 0 93<268.5 313.5 268.5 328> 405 94<236.5 298> 499 44<167.5 341> 718 20G<297.5 308>
VStem: 49 91<247 247 247 307.5>
LayerCount: 2
Back
Fore
SplineSet
396 135 m 0xd8
 405 144 416 151 429 151 c 0
 456 151 476 131 476 104 c 0
 476 92 471 81 464 74 c 0
 428 33 359 0 297 0 c 0
 145 0 49 114 49 239 c 0
 49 376 138 499 275 499 c 0
 407 499 467 402 467 355 c 0
 467 338 457 321 436 309 c 2
 168 155 l 1
 197 114 240 93 297 93 c 0
 330 93 374 112 396 135 c 0xd8
140 247 m 1
 366 372 l 1
 350 394 321 405 275 405 c 0
 198 405 144 335 140 247 c 1
151 626 m 2
 270 726 l 2
 281 735 293 738 302 738 c 0
 314 738 328 732 340 720 c 2
 436 624 l 2
 446 614 450 603 450 590 c 0
 450 565 429 543 404 543 c 0
 392 543 382 545 371 555 c 2
 298 621 l 1
 209 552 l 2
 198 544 190 543 180 543 c 0xb8
 155 543 133 563 133 590 c 0
 133 603 139 616 151 626 c 2
EndSplineSet
EndChar
StartChar: edieresis
Encoding: 235 235 183
Width: 547
Flags: MW
HStem: 0 93<268.5 313.5 268.5 328> 0 151<221 442.5> 405 94<236.5 298> 543 121<180 213.5 365 397.5>
VStem: 49 91<247 247 247 307.5> 130 133<588.5 617.5> 315 132<588.5 617.5>
LayerCount: 2
Back
Fore
SplineSet
263 606 m 0xb6
 263 571 233 543 194 543 c 0
 158 543 130 567 130 601 c 0
 130 634 161 664 199 664 c 0
 232 664 263 639 263 606 c 0xb6
447 606 m 0
 447 571 417 543 378 543 c 0
 343 543 315 567 315 601 c 0
 315 634 346 664 384 664 c 0
 416 664 447 639 447 606 c 0
396 135 m 0
 405 144 416 151 429 151 c 0
 456 151 476 131 476 104 c 0
 476 92 471 81 464 74 c 0
 428 33 359 0 297 0 c 0
 145 0 49 114 49 239 c 0x7a
 49 376 138 499 275 499 c 0
 407 499 467 402 467 355 c 0
 467 338 457 321 436 309 c 2
 168 155 l 1
 197 114 240 93 297 93 c 0
 330 93 374 112 396 135 c 0
140 247 m 1
 366 372 l 1
 350 394 321 405 275 405 c 0
 198 405 144 335 140 247 c 1
EndSplineSet
EndChar
StartChar: igrave
Encoding: 236 236 184
Width: 245
Flags: MW
HStem: 0 21G<99.5 126.5> 726 20G<57 80>
LayerCount: 2
Back
Fore
SplineSet
168 447 m 2
 162 49 l 2
 162 22 140 0 113 0 c 0
 86 0 64 22 64 49 c 2
 70 447 l 2
 70 474 91 496 119 496 c 0
 146 496 168 474 168 447 c 2
140 543 m 2
 33 654 l 2
 23 664 17 676 17 692 c 0
 17 720 43 746 71 746 c 0
 89 746 105 736 115 724 c 2
 210 605 l 2
 219 593 222 585 222 575 c 0
 222 548 198 528 174 528 c 0
 159 528 148 534 140 543 c 2
EndSplineSet
EndChar
StartChar: iacute
Encoding: 237 237 185
Width: 245
Flags: MW
HStem: 0 21G<99.5 126.5> 702 20G<170.5 194>
LayerCount: 2
Back
Fore
SplineSet
168 447 m 2
 162 49 l 2
 162 22 140 0 113 0 c 0
 86 0 64 22 64 49 c 2
 69 447 l 2
 69 474 91 496 119 496 c 0
 146 496 168 474 168 447 c 2
23 610 m 2
 138 703 l 2
 148 711 162 722 179 722 c 0
 209 722 232 698 232 667 c 0
 232 652 227 637 213 627 c 2
 89 542 l 2
 79 535 67 529 56 529 c 0
 32 529 10 550 10 577 c 0
 10 588 12 601 23 610 c 2
EndSplineSet
EndChar
StartChar: icircumflex
Encoding: 238 238 186
Width: 285
Flags: MW
HStem: 0 21G<122.5 149.5> 718 20G<147.5 158>
VStem: 89 98
LayerCount: 2
Back
Fore
SplineSet
190 447 m 2
 185 49 l 2
 185 22 163 0 136 0 c 0
 109 0 87 22 87 49 c 2
 92 447 l 2
 92 474 114 496 141 496 c 0
 169 496 190 474 190 447 c 2
1 626 m 2
 120 726 l 2
 131 735 143 738 152 738 c 0
 164 738 178 732 190 720 c 2
 286 624 l 2
 296 614 300 603 300 590 c 0
 300 565 279 543 254 543 c 0
 242 543 232 545 221 555 c 2
 148 621 l 1
 59 552 l 2
 48 544 40 543 30 543 c 0
 5 543 -17 563 -17 590 c 0
 -17 603 -11 616 1 626 c 2
EndSplineSet
EndChar
StartChar: idieresis
Encoding: 239 239 187
Width: 309
Flags: MW
HStem: 0 21G<127.5 154.5> 543 121<41 74 225 258.5>
VStem: -9 133<588.5 617.5> 94 98 175 133<588.5 617.5>
LayerCount: 2
Back
Fore
SplineSet
195 447 m 2xd0
 190 49 l 2
 190 22 168 0 141 0 c 0
 114 0 92 22 92 49 c 2
 97 447 l 2
 97 474 119 496 146 496 c 0
 173 496 195 474 195 447 c 2xd0
124 606 m 0xe8
 124 571 94 543 54 543 c 0
 19 543 -9 567 -9 601 c 0
 -9 634 22 664 60 664 c 0
 93 664 124 639 124 606 c 0xe8
308 606 m 0
 308 571 278 543 239 543 c 0
 203 543 175 567 175 601 c 0
 175 634 206 664 244 664 c 0
 277 664 308 639 308 606 c 0
EndSplineSet
EndChar
StartChar: eth
Encoding: 240 240 116
Width: 508
Flags: MW
HStem: 1 92<196 259.5 196 288> 443 208<113.5 192.5> 635 20G<348 367>
VStem: 47 91<155.5 243.5 155.5 255.5> 85 53 347 92<216 273.5>
LayerCount: 2
Back
Fore
SplineSet
212 645 m 0xcc
 216 643 222 639 250 611 c 1
 292 636 339 655 357 655 c 0
 377 655 397 640 397 615 c 0
 397 602 394 589 376 580 c 2
 309 547 l 1
 379 467 439 364 439 255 c 0
 439 129 357 1 219 1 c 0
 122 1 47 74 47 184 c 0xb4
 47 327 140 419 278 438 c 1
 264 459 244 485 228 501 c 1
 196 482 179 472 163 461 c 0
 145 449 136 443 125 443 c 0
 102 443 85 459 85 482 c 0
 85 499 92 510 106 520 c 0
 120 531 136 544 166 561 c 1
 150 575 141 584 141 605 c 0
 141 630 163 651 187 651 c 0
 198 651 202 650 212 645 c 0xcc
219 93 m 0
 300 93 347 174 347 258 c 0
 347 289 339 320 326 351 c 1
 224 349 138 303 138 184 c 0
 138 127 173 93 219 93 c 0
EndSplineSet
EndChar
StartChar: ntilde
Encoding: 241 241 188
Width: 561
Flags: MW
HStem: 0 21G<97 125 415 441.5> 404 95<303 335> 525 88<345.5 363.5 345.5 385.5> 525 188<319 454.5> 608 89<194.5 219.5>
VStem: 62 95<46 50 50 134 36 452> 380 95<161 161 161 178 161 288>
LayerCount: 2
Back
Fore
SplineSet
158 452 m 2xe6
 158 395 l 1
 196 451 255 499 323 499 c 0
 456 499 477 392 475 161 c 2
 474 48 l 2
 474 23 455 0 428 0 c 0
 402 0 380 23 380 47 c 2
 380 178 l 2
 380 398 351 404 319 404 c 0
 287 404 247 387 204 308 c 0
 175 254 157 194 157 134 c 2
 157 50 l 2
 157 22 140 0 110 0 c 0
 84 0 62 22 62 46 c 2
 62 452 l 2
 62 479 86 500 112 500 c 0
 137 500 158 479 158 452 c 2xe6
414 691 m 0
 418 706 430 713 445 713 c 0
 464 713 484 703 484 680 c 0
 484 676 484 669 481 658 c 0
 471 627 436 525 335 525 c 0xd6
 303 525 276 542 254 573 c 0
 238 596 227 608 212 608 c 0
 177 608 160 556 155 540 c 0
 150 525 141 518 126 518 c 0
 107 518 87 528 87 551 c 0
 87 555 87 562 90 573 c 0
 107 630 146 697 224 697 c 0xce
 263 697 289 680 311 649 c 0
 327 627 338 613 353 613 c 0
 374 613 400 637 414 691 c 0
EndSplineSet
EndChar
StartChar: oacute
Encoding: 243 243 190
Width: 561
Flags: MW
HStem: 0 89<221.5 289.5 221.5 317.5> 411 89<242 309> 702 20G<345.5 369>
VStem: 48 97<194 280.5 194 304.5> 390 99<216.5 302.5>
LayerCount: 2
Back
Fore
SplineSet
254 0 m 0
 137 0 48 104 48 232 c 0
 48 377 155 500 282 500 c 0
 399 500 489 392 489 268 c 0
 489 122 381 0 254 0 c 0
278 411 m 0
 206 411 145 328 145 233 c 0
 145 155 189 89 254 89 c 0
 325 89 390 170 390 263 c 0
 390 342 340 411 278 411 c 0
198 610 m 2
 313 703 l 2
 323 711 337 722 354 722 c 0
 384 722 407 698 407 667 c 0
 407 652 402 637 388 627 c 2
 264 542 l 2
 254 535 242 529 231 529 c 0
 207 529 185 550 185 577 c 0
 185 588 187 601 198 610 c 2
EndSplineSet
EndChar
StartChar: ocircumflex
Encoding: 244 244 191
Width: 561
Flags: MW
HStem: 0 89<221.5 289.5 221.5 317.5> 411 89<242 309> 500 43<177.5 340.5> 718 20G<307.5 318>
VStem: 48 97<194 280.5 194 304.5> 390 99<216.5 302.5>
LayerCount: 2
Back
Fore
SplineSet
254 0 m 0xdc
 137 0 48 104 48 232 c 0
 48 377 155 500 282 500 c 0
 399 500 489 392 489 268 c 0
 489 122 381 0 254 0 c 0xdc
278 411 m 0
 206 411 145 328 145 233 c 0
 145 155 189 89 254 89 c 0
 325 89 390 170 390 263 c 0
 390 342 340 411 278 411 c 0
161 626 m 2
 280 726 l 2
 291 735 303 738 312 738 c 0
 324 738 338 732 350 720 c 2
 446 624 l 2
 456 614 460 603 460 590 c 0
 460 565 439 543 414 543 c 0
 402 543 392 545 381 555 c 2
 308 621 l 1
 219 552 l 2
 208 544 200 543 190 543 c 0xbc
 165 543 143 563 143 590 c 0
 143 603 149 616 161 626 c 2
EndSplineSet
EndChar
StartChar: otilde
Encoding: 245 245 192
Width: 561
Flags: MW
HStem: 0 89<221.5 289.5 221.5 317.5> 411 89<242 309> 525 88<360.5 378.5 360.5 400.5> 525 188<334 469.5> 608 89<209.5 234.5>
VStem: 48 97<194 280.5 194 304.5> 390 99<216.5 302.5>
LayerCount: 2
Back
Fore
SplineSet
254 0 m 0xe6
 137 0 48 104 48 232 c 0
 48 377 155 500 282 500 c 0
 399 500 489 392 489 268 c 0
 489 122 381 0 254 0 c 0xe6
278 411 m 0
 206 411 145 328 145 233 c 0
 145 155 189 89 254 89 c 0
 325 89 390 170 390 263 c 0
 390 342 340 411 278 411 c 0
429 691 m 0
 433 706 445 713 460 713 c 0
 479 713 499 703 499 680 c 0
 499 676 499 669 496 658 c 0
 486 627 451 525 350 525 c 0xd6
 318 525 291 542 269 573 c 0
 253 596 242 608 227 608 c 0
 192 608 175 556 170 540 c 0
 165 525 156 518 141 518 c 0
 122 518 102 528 102 551 c 0
 102 555 102 562 105 573 c 0
 122 630 161 697 239 697 c 0xce
 278 697 304 680 326 649 c 0
 342 627 353 613 368 613 c 0
 389 613 415 637 429 691 c 0
EndSplineSet
EndChar
StartChar: odieresis
Encoding: 246 246 193
Width: 561
Flags: MW
HStem: 0 89<221.5 289.5 221.5 317.5> 411 89<242 309> 543 121<189 221.5 373 406.5>
VStem: 48 97<194 280.5 194 304.5> 139 132<588.5 617.5> 323 133<588.5 617.5> 390 99<216.5 302.5>
LayerCount: 2
Back
Fore
SplineSet
254 0 m 0xf2
 137 0 48 104 48 232 c 0
 48 377 155 500 282 500 c 0
 399 500 489 392 489 268 c 0
 489 122 381 0 254 0 c 0xf2
278 411 m 0
 206 411 145 328 145 233 c 0
 145 155 189 89 254 89 c 0
 325 89 390 170 390 263 c 0
 390 342 340 411 278 411 c 0
271 606 m 0xec
 271 571 241 543 202 543 c 0
 167 543 139 567 139 601 c 0
 139 634 170 664 208 664 c 0
 241 664 271 639 271 606 c 0xec
456 606 m 0
 456 571 426 543 387 543 c 0
 351 543 323 567 323 601 c 0
 323 634 354 664 392 664 c 0
 425 664 456 639 456 606 c 0
EndSplineSet
EndChar
StartChar: divide
Encoding: 247 247 194
Width: 469
Flags: MW
HStem: 55 109<214 237.5> 197 93<104.5 350 117 350> 323 109<229 252.5>
VStem: 176 100<98.5 121> 190 100<365.5 388>
CounterMasks: 1 e0
LayerCount: 2
Back
Fore
SplineSet
350 197 m 2xe8
 117 197 l 2
 92 197 70 219 70 243 c 0
 70 270 92 290 117 290 c 2
 350 290 l 2
 377 290 398 270 398 243 c 0
 398 219 377 197 350 197 c 2xe8
238 323 m 0
 209 323 190 345 190 374 c 0
 190 402 214 432 244 432 c 0
 269 432 290 410 290 382 c 0
 290 349 267 323 238 323 c 0
223 55 m 0
 195 55 176 78 176 107 c 0
 176 135 199 164 229 164 c 0
 254 164 276 143 276 115 c 0xf0
 276 82 252 55 223 55 c 0
EndSplineSet
EndChar
StartChar: oslash
Encoding: 248 248 195
Width: 561
Flags: MW
HStem: -32 21G<111.5 132> 0 89<248.5 289.5 248.5 317.5> 411 89<242 281.5> 521 20G<396 416>
VStem: 48 97<220 280.5 220 304.5> 390 99<216.5 278>
LayerCount: 2
Back
Fore
SplineSet
445 471 m 2
 424 437 l 1
 463 394 489 332 489 268 c 0
 489 122 381 0 254 0 c 0
 227 0 201 5 178 15 c 1
 163 -9 l 2
 154 -23 140 -32 124 -32 c 0
 99 -32 77 -8 79 18 c 0
 79 25 82 34 89 46 c 2
 104 71 l 1
 68 113 48 168 48 232 c 0
 48 377 155 500 282 500 c 0
 304 500 327 495 347 488 c 1
 365 518 l 2
 374 533 388 541 404 541 c 0
 428 541 450 522 451 497 c 0
 451 489 451 481 445 471 c 2
254 89 m 0
 325 89 390 170 390 263 c 0
 390 293 383 322 371 345 c 1
 224 94 l 1
 233 90 243 89 254 89 c 0
278 411 m 0
 206 411 145 328 145 233 c 0
 145 207 150 184 159 162 c 1
 301 408 l 1
 295 410 285 411 278 411 c 0
EndSplineSet
EndChar
StartChar: ugrave
Encoding: 249 249 196
Width: 538
Flags: MW
HStem: -3 90<204 247.5> 0 21G<391.5 418> 726 20G<207 230>
VStem: 62 94<287 287> 357 96
LayerCount: 2
Back
Fore
SplineSet
453 454 m 2xb8
 453 48 l 2
 453 23 431 0 405 0 c 0x78
 378 0 359 17 354 40 c 1
 320 16 273 -3 222 -3 c 0
 123 -3 64 22 62 287 c 0
 61 360 68 414 73 449 c 0
 79 492 95 500 120 500 c 0
 145 500 168 485 168 453 c 0
 168 445 167 439 166 431 c 0
 163 401 156 351 156 288 c 0
 156 114 186 87 222 87 c 0
 276 87 333 125 350 144 c 0
 354 148 356 158 356 169 c 2
 358 454 l 2
 358 481 381 500 405 500 c 0
 430 500 453 481 453 454 c 2xb8
290 543 m 2
 183 654 l 2
 173 664 167 676 167 692 c 0
 167 720 193 746 221 746 c 0
 239 746 255 736 265 724 c 2
 360 605 l 2
 369 593 372 585 372 575 c 0
 372 548 348 528 324 528 c 0
 309 528 298 534 290 543 c 2
EndSplineSet
EndChar
StartChar: uacute
Encoding: 250 250 197
Width: 538
Flags: MW
HStem: -3 90<204 247.5> 0 21G<391.5 418> 702 20G<345.5 369>
VStem: 62 94<287 287> 357 96
LayerCount: 2
Back
Fore
SplineSet
453 454 m 2xb8
 453 48 l 2
 453 23 431 0 405 0 c 0x78
 378 0 359 17 354 40 c 1
 320 16 273 -3 222 -3 c 0
 123 -3 64 22 62 287 c 0
 61 360 68 414 73 449 c 0
 79 492 95 500 120 500 c 0
 145 500 168 485 168 453 c 0
 168 445 167 439 166 431 c 0
 163 401 156 351 156 288 c 0
 156 114 186 87 222 87 c 0
 276 87 333 125 350 144 c 0
 354 148 356 158 356 169 c 2
 358 454 l 2
 358 481 381 500 405 500 c 0
 430 500 453 481 453 454 c 2xb8
198 610 m 2
 313 703 l 2
 323 711 337 722 354 722 c 0
 384 722 407 698 407 667 c 0
 407 652 402 637 388 627 c 2
 264 542 l 2
 254 535 242 529 231 529 c 0
 207 529 185 550 185 577 c 0
 185 588 187 601 198 610 c 2
EndSplineSet
EndChar
StartChar: ucircumflex
Encoding: 251 251 198
Width: 538
Flags: MW
HStem: -3 90<204 247.5> 0 21G<391.5 418> 500 43<107.5 175 393 406.5> 718 20G<287.5 298>
VStem: 62 94<287 287> 357 96
LayerCount: 2
Back
Fore
SplineSet
453 454 m 2xbc
 453 48 l 2
 453 23 431 0 405 0 c 0x7c
 378 0 359 17 354 40 c 1
 320 16 273 -3 222 -3 c 0
 123 -3 64 22 62 287 c 0
 61 360 68 414 73 449 c 0
 79 492 95 500 120 500 c 0
 145 500 168 485 168 453 c 0
 168 445 167 439 166 431 c 0
 163 401 156 351 156 288 c 0
 156 114 186 87 222 87 c 0
 276 87 333 125 350 144 c 0
 354 148 356 158 356 169 c 2
 358 454 l 2
 358 481 381 500 405 500 c 0
 430 500 453 481 453 454 c 2xbc
141 626 m 2
 260 726 l 2
 271 735 283 738 292 738 c 0
 304 738 318 732 330 720 c 2
 426 624 l 2
 436 614 440 603 440 590 c 0
 440 565 419 543 394 543 c 0
 382 543 372 545 361 555 c 2
 288 621 l 1
 199 552 l 2
 188 544 180 543 170 543 c 0
 145 543 123 563 123 590 c 0
 123 603 129 616 141 626 c 2
EndSplineSet
EndChar
StartChar: udieresis
Encoding: 252 252 199
Width: 538
Flags: MW
HStem: -3 90<204 247.5> 0 21G<391.5 418> 543 121<164 196.5 348 381.5>
VStem: 62 94<287 287> 114 132<588.5 617.5> 298 133<588.5 617.5> 357 96
LayerCount: 2
Back
Fore
SplineSet
246 606 m 0xac
 246 571 216 543 177 543 c 0
 142 543 114 567 114 601 c 0
 114 634 145 664 183 664 c 0
 215 664 246 639 246 606 c 0xac
431 606 m 0
 431 571 401 543 362 543 c 0
 326 543 298 567 298 601 c 0
 298 634 329 664 367 664 c 0
 400 664 431 639 431 606 c 0
453 454 m 2xb2
 453 48 l 2
 453 23 431 0 405 0 c 0x72
 378 0 359 17 354 40 c 1
 320 16 273 -3 222 -3 c 0
 123 -3 64 22 62 287 c 0
 61 360 68 414 73 449 c 0
 79 492 95 500 120 500 c 0
 145 500 168 485 168 453 c 0
 168 445 167 439 166 431 c 0
 163 401 156 351 156 288 c 0
 156 114 186 87 222 87 c 0
 276 87 333 125 350 144 c 0
 354 148 356 158 356 169 c 2
 358 454 l 2
 358 481 381 500 405 500 c 0
 430 500 453 481 453 454 c 2xb2
EndSplineSet
EndChar
StartChar: yacute
Encoding: 253 253 200
Width: 515
Flags: MW
HStem: -179 21G<144 167.5> 481 20G<414.5 437.5> 702 20G<315.5 339>
LayerCount: 2
Back
Fore
SplineSet
469 432 m 2
 202 -148 l 2
 194 -165 178 -179 157 -179 c 0
 131 -179 109 -157 109 -130 c 0
 109 -124 111 -116 114 -109 c 2
 199 78 l 1
 26 427 l 2
 23 433 20 442 20 451 c 0
 20 478 41 500 68 500 c 0
 89 500 104 485 112 470 c 2
 251 191 l 1
 379 470 l 2
 387 487 404 501 425 501 c 0
 450 501 473 480 473 452 c 0
 473 446 472 439 469 432 c 2
168 610 m 2
 283 703 l 2
 293 711 307 722 324 722 c 0
 354 722 377 698 377 667 c 0
 377 652 372 637 358 627 c 2
 234 542 l 2
 224 535 212 529 201 529 c 0
 177 529 155 550 155 577 c 0
 155 588 157 601 168 610 c 2
EndSplineSet
EndChar
StartChar: thorn
Encoding: 254 254 118
Width: 546
Flags: MW
HStem: -177 21G<97 122.5> 7 97<240 305.5 240 342> 401 90<306 307 306 332.5> 651 20G<96 123.5>
VStem: 62 96<-129 24 128 336 451 622> 384 91<221.5 293>
LayerCount: 2
Back
Fore
SplineSet
306 491 m 2
 307 491 l 1
 423 485 475 375 475 269 c 0
 475 155 431 7 253 7 c 0
 218 7 185 15 158 24 c 1
 158 -129 l 2
 158 -154 135 -177 110 -177 c 0
 84 -177 62 -154 62 -129 c 2
 62 622 l 2
 62 650 82 671 110 671 c 0
 137 671 158 650 158 622 c 2
 158 451 l 1
 194 473 245 491 306 491 c 2
259 104 m 0
 352 104 384 174 384 269 c 0
 384 317 366 401 299 401 c 0
 221 401 176 359 158 336 c 1
 158 128 l 1
 181 119 221 104 259 104 c 0
EndSplineSet
EndChar
StartChar: ydieresis
Encoding: 255 255 201
Width: 515
Flags: MW
HStem: -179 21G<144 167.5> 481 20G<414.5 437.5> 543 121<143 176.5 328 360.5>
VStem: 93 133<588.5 617.5> 278 132<588.5 617.5>
LayerCount: 2
Back
Fore
SplineSet
226 606 m 0
 226 571 196 543 157 543 c 0
 121 543 93 567 93 601 c 0
 93 634 124 664 162 664 c 0
 195 664 226 639 226 606 c 0
410 606 m 0
 410 571 380 543 341 543 c 0
 306 543 278 567 278 601 c 0
 278 634 309 664 347 664 c 0
 379 664 410 639 410 606 c 0
469 432 m 2
 202 -148 l 2
 194 -165 178 -179 157 -179 c 0
 131 -179 109 -157 109 -130 c 0
 109 -124 111 -116 114 -109 c 2
 199 78 l 1
 26 427 l 2
 23 433 20 442 20 451 c 0
 20 478 41 500 68 500 c 0
 89 500 104 485 112 470 c 2
 251 191 l 1
 379 470 l 2
 387 487 404 501 425 501 c 0
 450 501 473 480 473 452 c 0
 473 446 472 439 469 432 c 2
EndSplineSet
EndChar
StartChar: Abreve
Encoding: 258 258 227
Width: 650
Flags: MW
HStem: -1 21G<519 546> 0 21G<82 109> 668 20G<319 339> 709 87<310 342 310 372.5> 709 169<260 451>
LayerCount: 2
Back
Fore
SplineSet
375 655 m 2x70
 578 67 l 2
 580 61 581 53 581 48 c 0
 581 22 561 -1 531 -1 c 0xa8
 507 -1 493 8 484 33 c 2
 412 241 l 1
 208 196 l 1
 143 32 l 2
 136 15 121 0 97 0 c 0
 67 0 47 25 47 49 c 0
 47 56 48 62 50 67 c 2
 94 177 l 1
 73 184 59 201 59 225 c 0
 59 249 75 268 97 273 c 2
 134 281 l 1
 282 657 l 2
 290 677 309 688 329 688 c 0
 349 688 367 679 375 655 c 2x70
250 306 m 1
 379 334 l 1
 325 495 l 1
 250 306 l 1
156 836 m 0
 156 851 158 873 195 873 c 0
 216 873 229 856 235 844 c 0
 252 808 296 796 324 796 c 0x70
 360 796 385 810 399 844 c 0
 407 863 415 878 441 878 c 0
 461 878 479 860 479 840 c 0
 479 791 423 709 322 709 c 0
 198 709 156 810 156 836 c 0
EndSplineSet
EndChar
StartChar: abreve
Encoding: 259 259 243
Width: 531
Flags: MW
HStem: -10 21G<386 413> -3 96<204 259 204 260> 407 95<235.5 299.5> 528 87<271 303 271 333.5> 528 169<221 412>
VStem: 47 97<191 251.5 191 267.5> 350 97
LayerCount: 2
Back
Fore
SplineSet
447 456 m 1x76
 447 40 l 2
 447 14 427 -10 399 -10 c 0xb6
 373 -10 357 5 352 25 c 1
 319 10 280 -3 240 -3 c 0
 130 -3 47 85 47 216 c 0
 47 319 112 502 287 502 c 0
 359 502 429 465 447 456 c 1x76
349 134 m 1
 352 395 l 1
 335 402 310 407 289 407 c 0
 182 407 144 285 144 218 c 0
 144 164 169 93 239 93 c 0x6e
 279 93 324 118 349 134 c 1
117 655 m 0
 117 670 119 692 156 692 c 0
 177 692 190 675 196 663 c 0
 213 627 257 615 285 615 c 0x76
 321 615 346 629 360 663 c 0
 368 682 376 697 402 697 c 0
 422 697 440 679 440 659 c 0
 440 610 384 528 283 528 c 0
 159 528 117 629 117 655 c 0
EndSplineSet
EndChar
StartChar: Aogonek
Encoding: 260 260 202
Width: 650
Flags: MW
HStem: -196 92<516.5 530.5 516.5 543.5> -196 116<490 603.5> 0 21G<82 109> 668 20G<319 339>
VStem: 405 91<-87.5 -67 -87.5 -52.5> 405 232<-147 -52.5>
LayerCount: 2
Back
Fore
SplineSet
524 -196 m 0x74
 456 -196 405 -147 405 -79 c 0
 405 -26 440 18 479 46 c 1
 412 241 l 1
 208 196 l 1
 143 32 l 2
 136 15 121 0 97 0 c 0
 67 0 47 25 47 49 c 0
 47 56 48 62 50 67 c 2
 94 177 l 1
 73 184 59 201 59 225 c 0
 59 249 75 268 97 273 c 2
 134 281 l 1
 282 657 l 2
 290 677 309 688 329 688 c 0
 349 688 367 679 375 655 c 2
 578 67 l 2
 593 22 568 -1 541 -21 c 0
 522 -35 496 -54 496 -80 c 0x78
 496 -95 509 -104 524 -104 c 0xb4
 537 -104 552 -100 564 -90 c 0
 575 -82 583 -80 593 -80 c 0
 614 -80 637 -102 637 -126 c 0
 637 -168 563 -196 524 -196 c 0x74
250 306 m 1
 379 334 l 1
 325 495 l 1
 250 306 l 1
EndSplineSet
EndChar
StartChar: aogonek
Encoding: 261 261 213
Width: 531
Flags: MW
HStem: -196 92<378.5 392.5 378.5 405.5> -196 116<352 465.5> 17 96<204 259 204 260> 417 95<235.5 299.5>
VStem: 47 97<201 261.5 201 277.5> 267 91<-87.5 -67 -87.5 -48.5> 267 232<-147 -48.5> 350 97
LayerCount: 2
Back
Fore
SplineSet
386 -196 m 0x7a
 318 -196 267 -147 267 -79 c 0
 267 -18 313 11 358 37 c 1x7c
 355 44 353 50 352 55 c 1
 319 32 280 17 240 17 c 0
 130 17 47 95 47 226 c 0
 47 329 112 512 287 512 c 0
 359 512 429 475 447 466 c 1
 447 50 l 2xb9
 447 11 426 -4 403 -21 c 0
 384 -35 358 -54 358 -80 c 0x7c
 358 -95 371 -104 386 -104 c 0xbc
 399 -104 414 -100 426 -90 c 0
 437 -82 445 -80 455 -80 c 0
 476 -80 499 -102 499 -126 c 0
 499 -168 425 -196 386 -196 c 0x7a
349 154 m 1
 352 405 l 1
 335 412 310 417 289 417 c 0
 182 417 144 295 144 228 c 0
 144 174 169 113 239 113 c 0
 279 113 324 138 349 154 c 1
EndSplineSet
EndChar
StartChar: Cacute
Encoding: 262 262 229
Width: 658
Flags: MW
HStem: -2 100<301.5 369 301.5 387.5> -2 199<259 551> 501 159<500 519 500 519> 584 76 584 100<299.5 375 276 377> 882 20G<397.5 421>
VStem: 47 100<227.5 370 227.5 400>
LayerCount: 2
Back
Fore
SplineSet
579 117 m 0x66
 521 41 436 -2 339 -2 c 0
 179 -2 47 128 47 299 c 0
 47 501 206 684 346 684 c 0x8e
 404 684 449 669 479 653 c 1
 488 659 495 660 505 660 c 0
 533 660 555 639 555 611 c 2
 555 551 l 2
 555 524 533 501 505 501 c 0xa6
 478 501 457 521 455 547 c 1
 437 564 408 584 346 584 c 0
 253 584 147 441 147 299 c 0
 147 156 264 98 339 98 c 0x96
 399 98 455 119 499 177 c 0
 511 193 523 197 538 197 c 0
 564 197 588 179 588 147 c 0
 588 137 586 127 579 117 c 0x66
250 790 m 2
 365 883 l 2
 375 891 389 902 406 902 c 0
 436 902 459 878 459 847 c 0
 459 832 454 817 440 807 c 2
 316 722 l 2
 306 715 294 709 283 709 c 0
 259 709 237 730 237 757 c 0
 237 768 239 781 250 790 c 2
EndSplineSet
EndChar
StartChar: cacute
Encoding: 263 263 245
Width: 535
Flags: MW
HStem: 0 93<246 291.5 246 312> 0 172<215 430> 349 151<222.5 402> 407 93<249 293> 702 20G<350.5 374>
VStem: 47 94<171.5 232 171.5 242.5>
LayerCount: 2
Back
Fore
SplineSet
374 147 m 0x9c
 381 156 394 172 417 172 c 0
 443 172 464 151 464 124 c 0
 464 112 459 102 453 94 c 0
 418 47 349 0 275 0 c 0
 155 0 47 91 47 219 c 0
 47 266 61 310 71 335 c 0
 96 401 173 500 272 500 c 0
 347 500 384 476 424 430 c 0
 433 419 437 408 437 396 c 0
 437 370 415 349 389 349 c 0x6c
 372 349 364 354 358 361 c 0
 334 389 312 407 274 407 c 0
 224 407 176 346 157 302 c 0
 146 272 141 243 141 221 c 0
 141 122 229 93 263 93 c 0
 320 93 352 117 374 147 c 0x9c
203 610 m 2
 318 703 l 2
 328 711 342 722 359 722 c 0
 389 722 412 698 412 667 c 0
 412 652 407 637 393 627 c 2
 269 542 l 2
 259 535 247 529 236 529 c 0
 212 529 190 550 190 577 c 0
 190 588 192 601 203 610 c 2
EndSplineSet
EndChar
StartChar: Ccaron
Encoding: 268 268 230
Width: 658
Flags: MW
HStem: -2 100<301.5 369 301.5 387.5> -2 199<259 551> 501 159<500 519 500 519> 584 76 584 100<299.5 375 276 377> 884 20G<237.5 256 469 486.5>
VStem: 47 100<227.5 370 227.5 400>
LayerCount: 2
Back
Fore
SplineSet
579 117 m 0x66
 521 41 436 -2 339 -2 c 0
 179 -2 47 128 47 299 c 0
 47 501 206 684 346 684 c 0x8e
 404 684 449 669 479 653 c 1
 488 659 495 660 505 660 c 0
 533 660 555 639 555 611 c 2
 555 551 l 2
 555 524 533 501 505 501 c 0xa6
 478 501 457 521 455 547 c 1
 437 564 408 584 346 584 c 0
 253 584 147 441 147 299 c 0
 147 156 264 98 339 98 c 0x96
 399 98 455 119 499 177 c 0
 511 193 523 197 538 197 c 0
 564 197 588 179 588 147 c 0
 588 137 586 127 579 117 c 0x66
503 821 m 2
 384 721 l 2
 373 712 361 709 352 709 c 0
 340 709 326 715 314 727 c 2
 218 823 l 2
 208 833 204 844 204 857 c 0
 204 882 225 904 250 904 c 0
 262 904 272 902 283 892 c 2
 356 826 l 1
 445 895 l 2
 456 903 464 904 474 904 c 0
 499 904 521 884 521 857 c 0
 521 844 515 831 503 821 c 2
EndSplineSet
EndChar
StartChar: ccaron
Encoding: 269 269 246
Width: 535
Flags: MW
HStem: 0 93<246 291.5 246 312> 0 172<215 430> 349 151<222.5 402> 407 93<249 293> 703 20G<154.5 173 386 403.5>
VStem: 47 94<171.5 232 171.5 242.5>
LayerCount: 2
Back
Fore
SplineSet
374 147 m 0x9c
 381 156 394 172 417 172 c 0
 443 172 464 151 464 124 c 0
 464 112 459 102 453 94 c 0
 418 47 349 0 275 0 c 0
 155 0 47 91 47 219 c 0
 47 266 61 310 71 335 c 0
 96 401 173 500 272 500 c 0
 347 500 384 476 424 430 c 0
 433 419 437 408 437 396 c 0
 437 370 415 349 389 349 c 0x6c
 372 349 364 354 358 361 c 0
 334 389 312 407 274 407 c 0
 224 407 176 346 157 302 c 0
 146 272 141 243 141 221 c 0
 141 122 229 93 263 93 c 0
 320 93 352 117 374 147 c 0x9c
420 640 m 2
 301 540 l 2
 290 531 278 528 269 528 c 0
 257 528 243 534 231 546 c 2
 135 642 l 2
 125 652 121 663 121 676 c 0
 121 701 142 723 167 723 c 0
 179 723 189 721 200 711 c 2
 273 645 l 1
 362 714 l 2
 373 722 381 723 391 723 c 0
 416 723 438 703 438 676 c 0
 438 663 432 650 420 640 c 2
EndSplineSet
EndChar
StartChar: Dcaron
Encoding: 270 270 233
Width: 646
Flags: MW
HStem: -19 100<209 295 209 315.5> 579 102<161 161> 884 20G<157.5 176 389 406.5>
VStem: 61 100<87 579 87 632 87 646> 469 100<228.5 398.5>
LayerCount: 2
Back
Fore
SplineSet
423 821 m 2
 304 721 l 2
 293 712 281 709 272 709 c 0
 260 709 246 715 234 727 c 2
 138 823 l 2
 128 833 124 844 124 857 c 0
 124 882 145 904 170 904 c 0
 182 904 192 902 203 892 c 2
 276 826 l 1
 365 895 l 2
 376 903 384 904 394 904 c 0
 419 904 441 884 441 857 c 0
 441 844 435 831 423 821 c 2
219 -19 m 0
 164 -19 108 -5 99 -2 c 0
 78 4 61 25 61 47 c 2
 61 632 l 2
 61 660 83 681 111 681 c 0
 271 681 569 626 569 303 c 0
 569 79 412 -19 219 -19 c 0
161 579 m 1
 161 87 l 1
 178 84 199 81 219 81 c 0
 371 81 469 154 469 303 c 0
 469 494 328 566 161 579 c 1
EndSplineSet
EndChar
StartChar: dcaron
Encoding: 271 271 249
Width: 571
Flags: MW
HStem: 0 21G<387.5 415.5> 4 90<189.5 249.5> 403 95<210 280 182 280.5> 523 199<542.5 543>
VStem: 43 96<202.5 266 202.5 298.5> 365 93 499 111<660.5 675.5>
LayerCount: 2
Back
Fore
SplineSet
465 628 m 2x7e
 451 46 l 2
 450 20 429 0 402 0 c 0xbe
 373 0 356 22 354 45 c 1
 321 23 277 4 222 4 c 0
 100 4 43 117 43 228 c 0
 43 369 103 498 261 498 c 0
 299 498 335 490 363 481 c 1
 368 630 l 2
 369 657 390 679 417 679 c 0
 442 679 466 655 465 628 c 2x7e
139 231 m 0
 139 174 157 94 222 94 c 0x7e
 303 94 358 148 358 170 c 2
 362 377 l 1
 340 387 299 403 262 403 c 0
 158 403 139 301 139 231 c 0
610 671 m 0
 610 650 592 600 576 562 c 0
 567 541 556 523 530 523 c 0
 505 523 486 542 486 565 c 0
 486 572 487 576 489 581 c 2
 507 628 l 1
 502 637 499 647 499 659 c 0
 499 692 527 722 558 722 c 0
 587 722 610 699 610 671 c 0
EndSplineSet
EndChar
StartChar: Dcroat
Encoding: 272 272 234
Width: 681
Flags: MW
HStem: -19 100<266 352 266 372.5> 262 99<70 118 83 118 218 288> 579 102<218 218>
VStem: 33 185<87 325> 118 100<87 262 87 262 87 262 361 579> 118 220<47 325 262 325 298 632> 526 100<228.5 398.5>
LayerCount: 2
Back
Fore
SplineSet
276 -19 m 0xea
 221 -19 165 -5 156 -2 c 0
 135 4 118 25 118 47 c 2
 118 262 l 1xea
 83 262 l 2
 57 262 33 285 33 311 c 0xf2
 33 339 57 361 83 361 c 2
 118 361 l 1
 118 632 l 2
 118 660 140 681 168 681 c 0
 328 681 626 626 626 303 c 0
 626 79 469 -19 276 -19 c 0xea
218 579 m 1
 218 361 l 1xf2
 288 361 l 2
 315 361 338 339 338 311 c 0xe6
 338 285 315 262 288 262 c 2
 218 262 l 1
 218 87 l 1
 235 84 256 81 276 81 c 0
 428 81 526 154 526 303 c 0
 526 494 385 566 218 579 c 1
EndSplineSet
EndChar
StartChar: dcroat
Encoding: 273 273 250
Width: 583
Flags: MW
HStem: 0 21G<392.5 420.5> 4 90<194.5 254.5> 393 95<215 285 187 285.5> 521 92<317 372 329 369 470 507> 521 158<317 435.5 329 435.5 409.5 507 409.5 467>
VStem: 48 96<197.5 261 197.5 293.5> 283 178 365 96 365 188
LayerCount: 2
Back
Fore
SplineSet
470 628 m 2x6d
 470 613 l 1
 507 613 l 2
 533 613 553 593 553 568 c 0x7480
 553 543 533 521 507 521 c 2
 467 521 l 1
 456 46 l 2
 455 20 434 0 407 0 c 0xb5
 378 0 361 22 359 45 c 1
 326 23 282 4 227 4 c 0
 105 4 48 112 48 223 c 0
 48 364 108 488 266 488 c 0
 304 488 340 480 368 471 c 1
 369 521 l 1
 329 521 l 2
 305 521 283 543 283 568 c 0x76
 283 593 305 613 329 613 c 2
 372 613 l 1x75
 373 630 l 2
 374 657 396 679 423 679 c 0
 448 679 470 659 470 628 c 2x6d
144 226 m 0
 144 169 162 94 227 94 c 0
 308 94 363 148 363 170 c 2
 367 367 l 1
 345 377 304 393 267 393 c 0
 163 393 144 296 144 226 c 0
EndSplineSet
EndChar
StartChar: Eogonek
Encoding: 280 280 231
Width: 636
Flags: MW
HStem: -196 92<453.5 467.5 453.5 480.5> -196 116<427 540.5> 0 100<97 508 160 369> 302 99<160 464 160 464> 582 100<160 510 160 160>
VStem: 61 99<100 302 401 582> 342 91<-85.5 -64> 342 215<-113 64> 342 232<-147 -64>
LayerCount: 2
Back
Fore
SplineSet
461 -196 m 0x7c80
 393 -196 342 -147 342 -79 c 0
 342 -49 353 -22 369 0 c 1
 111 0 l 2
 83 0 61 22 61 50 c 2
 61 632 l 2
 61 660 83 682 111 682 c 2
 510 682 l 2
 538 682 559 660 559 632 c 0
 559 605 538 582 510 582 c 2
 160 582 l 1
 160 401 l 1
 464 401 l 2
 492 401 513 380 513 352 c 0
 513 324 492 302 464 302 c 2
 160 302 l 1
 160 100 l 1
 508 100 l 2
 536 100 557 78 557 50 c 0x7d
 557 4 525 8 478 -21 c 0
 452 -37 433 -51 433 -76 c 0
 433 -95 446 -104 461 -104 c 0xbe
 474 -104 489 -100 501 -90 c 0
 512 -82 520 -80 530 -80 c 0
 551 -80 574 -102 574 -126 c 0
 574 -168 500 -196 461 -196 c 0x7c80
EndSplineSet
EndChar
StartChar: eogonek
Encoding: 281 281 247
Width: 547
Flags: MW
HStem: -196 92<309.5 323.5 309.5 336.5> 405 94<236.5 298>
VStem: 49 91<247 247 247 307.5> 198 91<-85 -62.5> 198 232<-147 -62.5>
LayerCount: 2
Back
Fore
SplineSet
317 -196 m 0xe8
 249 -196 198 -147 198 -79 c 0
 198 -46 211 -17 231 7 c 1
 118 35 49 133 49 239 c 0
 49 376 138 499 275 499 c 0
 407 499 467 402 467 355 c 0
 467 338 457 321 436 309 c 2
 168 155 l 1
 197 114 240 93 297 93 c 0
 330 93 374 112 396 135 c 0
 405 144 416 151 429 151 c 0
 456 151 476 131 476 104 c 0
 476 92 471 81 464 74 c 0
 435 43 401 24 370 7 c 0
 325 -17 289 -36 289 -75 c 0xf0
 289 -95 302 -104 317 -104 c 0
 330 -104 345 -100 357 -90 c 0
 368 -82 376 -80 386 -80 c 0
 407 -80 430 -102 430 -126 c 0
 430 -168 356 -196 317 -196 c 0xe8
140 247 m 1
 366 372 l 1
 350 394 321 405 275 405 c 0
 198 405 144 335 140 247 c 1
EndSplineSet
EndChar
StartChar: Ecaron
Encoding: 282 282 232
Width: 636
Flags: MW
HStem: 0 100<97 508 160 508 160 508> 302 99<160 464 160 464> 582 100<160 510 160 160> 884 20G<189.5 208 421 438.5>
VStem: 61 99<100 100 100 302 401 582>
LayerCount: 2
Back
Fore
SplineSet
455 821 m 2
 336 721 l 2
 325 712 313 709 304 709 c 0
 292 709 278 715 266 727 c 2
 170 823 l 2
 160 833 156 844 156 857 c 0
 156 882 177 904 202 904 c 0
 214 904 224 902 235 892 c 2
 308 826 l 1
 397 895 l 2
 408 903 416 904 426 904 c 0
 451 904 473 884 473 857 c 0
 473 844 467 831 455 821 c 2
160 100 m 1
 508 100 l 2
 536 100 557 78 557 50 c 0
 557 22 536 0 508 0 c 2
 111 0 l 2
 83 0 61 22 61 50 c 2
 61 632 l 2
 61 660 83 682 111 682 c 2
 510 682 l 2
 538 682 559 660 559 632 c 0
 559 605 538 582 510 582 c 2
 160 582 l 1
 160 401 l 1
 464 401 l 2
 492 401 513 380 513 352 c 0
 513 324 492 302 464 302 c 2
 160 302 l 1
 160 100 l 1
EndSplineSet
EndChar
StartChar: ecaron
Encoding: 283 283 248
Width: 547
Flags: MW
HStem: 0 93<268.5 313.5 268.5 328> 0 151<221 442.5> 405 94<236.5 298> 703 20G<169.5 188 401 418.5>
VStem: 49 91<247 247 247 307.5>
LayerCount: 2
Back
Fore
SplineSet
396 135 m 0xb8
 405 144 416 151 429 151 c 0x78
 456 151 476 131 476 104 c 0
 476 92 471 81 464 74 c 0
 428 33 359 0 297 0 c 0
 145 0 49 114 49 239 c 0
 49 376 138 499 275 499 c 0
 407 499 467 402 467 355 c 0
 467 338 457 321 436 309 c 2
 168 155 l 1
 197 114 240 93 297 93 c 0
 330 93 374 112 396 135 c 0xb8
140 247 m 1
 366 372 l 1
 350 394 321 405 275 405 c 0
 198 405 144 335 140 247 c 1
435 640 m 2
 316 540 l 2
 305 531 293 528 284 528 c 0
 272 528 258 534 246 546 c 2
 150 642 l 2
 140 652 136 663 136 676 c 0
 136 701 157 723 182 723 c 0
 194 723 204 721 215 711 c 2
 288 645 l 1
 377 714 l 2
 388 722 396 723 406 723 c 0
 431 723 453 703 453 676 c 0
 453 663 447 650 435 640 c 2
EndSplineSet
EndChar
StartChar: Lacute
Encoding: 313 313 228
Width: 503
Flags: MW
HStem: 11 100 882 20G<300.5 324>
VStem: 59 99<102 632 102 632 102 645>
LayerCount: 2
Back
Fore
SplineSet
434 22 m 2
 111 0 l 2
 84 -2 59 22 59 49 c 2
 59 632 l 2
 59 658 81 681 109 681 c 0
 135 681 158 658 158 632 c 2
 158 102 l 1
 426 121 l 2
 456 123 479 103 479 72 c 0
 479 48 459 24 434 22 c 2
153 790 m 2
 268 883 l 2
 278 891 292 902 309 902 c 0
 339 902 362 878 362 847 c 0
 362 832 357 817 343 807 c 2
 219 722 l 2
 209 715 197 709 186 709 c 0
 162 709 140 730 140 757 c 0
 140 768 142 781 153 790 c 2
EndSplineSet
EndChar
StartChar: lacute
Encoding: 314 314 244
Width: 252
Flags: MW
HStem: 0 21G<109.5 133.5> 882 20G<175.5 199>
LayerCount: 2
Back
Fore
SplineSet
170 625 m 2
 170 45 l 2
 170 20 145 0 122 0 c 0
 97 0 74 20 74 45 c 2
 74 625 l 2
 74 651 94 672 122 672 c 0
 147 672 170 651 170 625 c 2
28 790 m 2
 143 883 l 2
 153 891 167 902 184 902 c 0
 214 902 237 878 237 847 c 0
 237 832 232 817 218 807 c 2
 94 722 l 2
 84 715 72 709 61 709 c 0
 37 709 15 730 15 757 c 0
 15 768 17 781 28 790 c 2
EndSplineSet
EndChar
StartChar: Lcaron
Encoding: 317 317 206
Width: 503
Flags: MW
HStem: 11 100 884 20G<45.5 64 277 294.5>
VStem: 59 99<102 632 102 632 102 645>
LayerCount: 2
Back
Fore
SplineSet
311 821 m 2
 192 721 l 2
 181 712 169 709 160 709 c 0
 148 709 134 715 122 727 c 2
 26 823 l 2
 16 833 12 844 12 857 c 0
 12 882 33 904 58 904 c 0
 70 904 80 902 91 892 c 2
 164 826 l 1
 253 895 l 2
 264 903 272 904 282 904 c 0
 307 904 329 884 329 857 c 0
 329 844 323 831 311 821 c 2
434 22 m 2
 111 0 l 2
 84 -2 59 22 59 49 c 2
 59 632 l 2
 59 658 81 681 109 681 c 0
 135 681 158 658 158 632 c 2
 158 102 l 1
 426 121 l 2
 456 123 479 103 479 72 c 0
 479 48 459 24 434 22 c 2
EndSplineSet
EndChar
StartChar: lcaron
Encoding: 318 318 217
Width: 283
Flags: MW
HStem: 0 21G<99.5 123.5> 473 199<237.5 238>
VStem: 64 96<45 625> 194 111<610.5 625.5>
LayerCount: 2
Back
Fore
SplineSet
160 625 m 2
 160 45 l 2
 160 20 135 0 112 0 c 0
 87 0 64 20 64 45 c 2
 64 625 l 2
 64 651 84 672 112 672 c 0
 137 672 160 651 160 625 c 2
305 621 m 0
 305 600 287 550 271 512 c 0
 262 491 251 473 225 473 c 0
 200 473 181 492 181 515 c 0
 181 522 182 526 184 531 c 2
 202 578 l 1
 197 587 194 597 194 609 c 0
 194 642 222 672 253 672 c 0
 282 672 305 649 305 621 c 0
EndSplineSet
EndChar
StartChar: Lslash
Encoding: 321 321 204
Width: 554
Flags: MW
HStem: 11 100 661 20G<143 170>
VStem: 15 191<269.5 295> 107 99<102 255 255 255 435 632> 107 192<49 417 255 417 394.5 417 394.5 632>
LayerCount: 2
Back
Fore
SplineSet
37 329 m 2xe0
 107 373 l 1
 107 632 l 2xd0
 107 658 129 681 157 681 c 0
 183 681 206 658 206 632 c 2
 206 435 l 1xe0
 221 445 l 2
 232 452 240 453 248 453 c 0
 275 453 299 432 299 402 c 0xc8
 299 387 293 373 276 362 c 2
 206 317 l 1
 206 102 l 1
 474 121 l 2
 504 123 527 103 527 72 c 0
 527 48 507 24 482 22 c 2
 159 0 l 2
 132 -2 107 22 107 49 c 2
 107 255 l 1xd0
 91 245 l 2
 83 240 74 238 64 238 c 0
 41 238 15 253 15 286 c 0
 15 304 22 319 37 329 c 2xe0
EndSplineSet
EndChar
StartChar: lslash
Encoding: 322 322 215
Width: 310
Flags: MW
HStem: 0 21G<143.5 167.5> 652 20G<142 168.5>
VStem: 20 184<261.5 287> 108 96<45 244 244 244 423 625> 108 196<45 409 244 409 386.5 409 386.5 625>
LayerCount: 2
Back
Fore
SplineSet
204 625 m 2xd0
 204 423 l 1xd0
 226 437 l 2
 237 444 245 445 253 445 c 0
 280 445 304 424 304 394 c 0xc8
 304 379 298 365 281 354 c 2
 204 305 l 1
 204 45 l 2
 204 20 179 0 156 0 c 0
 131 0 108 20 108 45 c 2
 108 244 l 1xd0
 96 237 l 2
 88 232 79 230 69 230 c 0
 46 230 20 245 20 278 c 0xe0
 20 296 27 311 42 321 c 2
 108 362 l 1
 108 625 l 2
 108 651 128 672 156 672 c 0
 181 672 204 651 204 625 c 2xd0
EndSplineSet
EndChar
StartChar: Nacute
Encoding: 323 323 235
Width: 645
Flags: MW
HStem: 0 21G<97 124 506.5 527.5> 662 20G<500 527> 882 20G<380.5 404>
VStem: 61 99<36 49> 464 99<207 632>
LayerCount: 2
Back
Fore
SplineSet
473 22 m 2
 161 473 l 1
 160 49 l 2
 160 21 138 0 110 0 c 0
 84 0 61 23 61 49 c 2
 62 632 l 2
 62 658 81 681 110 681 c 0
 125 681 142 673 151 660 c 2
 464 207 l 1
 464 632 l 2
 464 659 486 682 514 682 c 0
 540 682 563 659 563 632 c 2
 563 49 l 2
 563 20 541 0 514 0 c 0
 499 0 483 8 473 22 c 2
233 790 m 2
 348 883 l 2
 358 891 372 902 389 902 c 0
 419 902 442 878 442 847 c 0
 442 832 437 817 423 807 c 2
 299 722 l 2
 289 715 277 709 266 709 c 0
 242 709 220 730 220 757 c 0
 220 768 222 781 233 790 c 2
EndSplineSet
EndChar
StartChar: nacute
Encoding: 324 324 251
Width: 561
Flags: MW
HStem: 0 21G<97 125 415 441.5> 404 95<303 335> 702 20G<360.5 384>
VStem: 62 95<46 50 50 134 36 452> 380 42 380 95<161 161 161 178 161 288>
LayerCount: 2
Back
Fore
SplineSet
158 452 m 2xf4
 158 395 l 1
 196 451 255 499 323 499 c 0
 456 499 477 392 475 161 c 2
 474 48 l 2
 474 23 455 0 428 0 c 0
 402 0 380 23 380 47 c 2
 380 178 l 2
 380 398 351 404 319 404 c 0
 287 404 247 387 204 308 c 0
 175 254 157 194 157 134 c 2
 157 50 l 2
 157 22 140 0 110 0 c 0
 84 0 62 22 62 46 c 2
 62 452 l 2
 62 479 86 500 112 500 c 0
 137 500 158 479 158 452 c 2xf4
213 610 m 2
 328 703 l 2
 338 711 352 722 369 722 c 0
 399 722 422 698 422 667 c 0xf8
 422 652 417 637 403 627 c 2
 279 542 l 2
 269 535 257 529 246 529 c 0
 222 529 200 550 200 577 c 0
 200 588 202 601 213 610 c 2
EndSplineSet
EndChar
StartChar: Ncaron
Encoding: 327 327 236
Width: 645
Flags: MW
HStem: 0 21G<97 124 506.5 527.5> 662 20G<500 527> 884 20G<196.5 215 428 445.5>
VStem: 61 99<36 49> 464 99<207 632>
LayerCount: 2
Back
Fore
SplineSet
462 821 m 2
 343 721 l 2
 332 712 320 709 311 709 c 0
 299 709 285 715 273 727 c 2
 177 823 l 2
 167 833 163 844 163 857 c 0
 163 882 184 904 209 904 c 0
 221 904 231 902 242 892 c 2
 315 826 l 1
 404 895 l 2
 415 903 423 904 433 904 c 0
 458 904 480 884 480 857 c 0
 480 844 474 831 462 821 c 2
473 22 m 2
 161 473 l 1
 160 49 l 2
 160 21 138 0 110 0 c 0
 84 0 61 23 61 49 c 2
 62 632 l 2
 62 658 81 681 110 681 c 0
 125 681 142 673 151 660 c 2
 464 207 l 1
 464 632 l 2
 464 659 486 682 514 682 c 0
 540 682 563 659 563 632 c 2
 563 49 l 2
 563 20 541 0 514 0 c 0
 499 0 483 8 473 22 c 2
EndSplineSet
EndChar
StartChar: ncaron
Encoding: 328 328 252
Width: 561
Flags: MW
HStem: 0 21G<97 125 415 441.5> 404 95<303 335> 703 20G<169.5 188 401 418.5>
VStem: 62 95<46 50 50 134 36 452> 380 73 380 95<161 161 161 178 161 288>
LayerCount: 2
Back
Fore
SplineSet
158 452 m 2xf8
 158 395 l 1
 196 451 255 499 323 499 c 0
 456 499 477 392 475 161 c 2xf4
 474 48 l 2
 474 23 455 0 428 0 c 0
 402 0 380 23 380 47 c 2
 380 178 l 2
 380 398 351 404 319 404 c 0
 287 404 247 387 204 308 c 0
 175 254 157 194 157 134 c 2
 157 50 l 2
 157 22 140 0 110 0 c 0
 84 0 62 22 62 46 c 2
 62 452 l 2
 62 479 86 500 112 500 c 0
 137 500 158 479 158 452 c 2xf8
435 640 m 2
 316 540 l 2
 305 531 293 528 284 528 c 0
 272 528 258 534 246 546 c 2
 150 642 l 2
 140 652 136 663 136 676 c 0
 136 701 157 723 182 723 c 0
 194 723 204 721 215 711 c 2
 288 645 l 1
 377 714 l 2
 388 722 396 723 406 723 c 0
 431 723 453 703 453 676 c 0xf8
 453 663 447 650 435 640 c 2
EndSplineSet
EndChar
StartChar: Ohungarumlaut
Encoding: 336 336 237
Width: 686
Flags: MW
HStem: -2 95<266 363.5 266 391> 587 95<293.5 393.5> 692 193<241 391 368 463.5>
VStem: 57 96<254.5 390.5 254.5 414.5> 412 195 511 96<288.5 418>
LayerCount: 2
Back
Fore
SplineSet
312 -2 m 0xf4
 163 -2 57 144 57 315 c 0
 57 514 194 682 351 682 c 0
 498 682 607 538 607 365 c 0
 607 166 470 -2 312 -2 c 0xf4
345 587 m 0
 242 587 153 466 153 315 c 0
 153 194 220 93 312 93 c 0
 415 93 511 216 511 361 c 0
 511 475 442 587 345 587 c 0
411 790 m 2
 285 704 l 2
 275 697 264 692 253 692 c 0
 229 692 207 713 207 740 c 0
 207 751 210 763 221 772 c 2
 335 866 l 2
 345 875 360 885 376 885 c 0
 406 885 430 861 430 830 c 0
 430 815 425 799 411 790 c 2
616 790 m 2
 490 704 l 2
 480 697 469 692 458 692 c 0
 434 692 412 713 412 740 c 0xf8
 412 751 415 763 426 772 c 2
 540 866 l 2
 550 875 565 885 581 885 c 0
 611 885 635 861 635 830 c 0
 635 815 630 799 616 790 c 2
EndSplineSet
EndChar
StartChar: ohungarumlaut
Encoding: 337 337 253
Width: 561
Flags: MW
HStem: 0 89<221.5 289.5 221.5 317.5> 411 89<242 309> 531 193<127 277 254 349.5>
VStem: 48 97<194 280.5 194 304.5> 298 191 390 99<216.5 302.5>
LayerCount: 2
Back
Fore
SplineSet
254 0 m 0xf4
 137 0 48 104 48 232 c 0
 48 377 155 500 282 500 c 0
 399 500 489 392 489 268 c 0
 489 122 381 0 254 0 c 0xf4
278 411 m 0
 206 411 145 328 145 233 c 0
 145 155 189 89 254 89 c 0
 325 89 390 170 390 263 c 0
 390 342 340 411 278 411 c 0
297 629 m 2
 171 543 l 2
 161 536 150 531 139 531 c 0
 115 531 93 552 93 579 c 0
 93 590 96 602 107 611 c 2
 221 705 l 2
 231 714 246 724 262 724 c 0
 292 724 316 700 316 669 c 0
 316 654 311 638 297 629 c 2
502 629 m 2
 376 543 l 2
 366 536 355 531 344 531 c 0
 320 531 298 552 298 579 c 0xf8
 298 590 301 602 312 611 c 2
 426 705 l 2
 436 714 451 724 467 724 c 0
 497 724 521 700 521 669 c 0
 521 654 516 638 502 629 c 2
EndSplineSet
EndChar
StartChar: OE
Encoding: 338 338 122
Width: 1124
Flags: MW
HStem: 0 100<560 971 623 971 623 971> 302 99<623 927 623 927> 582 100<623 973 623 623> 664 20G<280 388.5>
VStem: 64 96<256.5 392.5 256.5 416.5> 518 105<401 420>
LayerCount: 2
Back
Fore
SplineSet
623 100 m 1xec
 971 100 l 2
 999 100 1020 78 1020 50 c 0
 1020 22 999 0 971 0 c 2
 574 0 l 2
 546 0 524 22 524 50 c 2
 524 106 l 1
 471 40 399 0 320 0 c 0
 171 0 64 146 64 317 c 0
 64 516 201 684 359 684 c 0xdc
 418 684 478 658 524 612 c 1
 524 632 l 2
 524 660 546 682 574 682 c 2
 973 682 l 2
 1001 682 1022 660 1022 632 c 0
 1022 605 1001 582 973 582 c 2
 623 582 l 1
 623 401 l 1
 927 401 l 2
 955 401 976 380 976 352 c 0
 976 324 955 302 927 302 c 2
 623 302 l 1
 623 100 l 1xec
320 95 m 0
 445 95 518 250 518 363 c 0
 518 477 449 589 352 589 c 0
 250 589 160 468 160 317 c 0
 160 196 227 95 320 95 c 0
EndSplineSet
EndChar
StartChar: oe
Encoding: 339 339 123
Width: 903
Flags: MW
HStem: 0 87<227.5 293> 0 151<590 775.5> 397 87 465 20G<216 315.5>
VStem: 56 96<185.5 270.5 185.5 286> 387 93<237 237 237 290.5>
LayerCount: 2
Back
Fore
SplineSet
387 244 m 0xac
 387 337 338 397 279 397 c 0
 210 397 152 315 152 226 c 0
 152 145 198 87 257 87 c 0
 332 87 387 178 387 244 c 0xac
729 135 m 0
 738 144 749 151 762 151 c 0x6c
 789 151 809 131 809 104 c 0
 809 92 804 81 797 74 c 0
 762 33 694 0 633 0 c 0
 547 0 481 32 435 100 c 1
 392 33 329 0 257 0 c 0
 142 0 56 102 56 223 c 0
 56 349 148 485 284 485 c 0x9c
 347 485 408 451 445 396 c 1
 489 457 556 484 617 484 c 0
 742 484 801 391 801 344 c 0
 801 327 789 311 769 298 c 0
 677 245 602 201 509 148 c 1
 538 112 585 93 639 93 c 0
 672 93 708 112 729 135 c 0
480 237 m 1
 706 362 l 1
 690 384 661 395 615 395 c 0
 538 395 484 325 480 237 c 1
EndSplineSet
EndChar
StartChar: Racute
Encoding: 340 340 226
Width: 623
Flags: MW
HStem: 0 21G<96 123 496.5 521> 233 91<159 243.5> 589 98<159 159 159 179> 882 20G<365.5 389>
VStem: 61 98<49 227 324 589> 433 99<421.5 508.5>
LayerCount: 2
Back
Fore
SplineSet
550 72 m 0
 554 64 555 56 555 49 c 0
 555 24 536 0 506 0 c 0
 487 0 472 10 462 26 c 0
 345 225 261 233 226 233 c 0
 207 233 183 231 159 227 c 1
 159 49 l 2
 159 21 136 0 110 0 c 0
 82 0 61 21 61 49 c 2
 61 627 l 2
 61 689 79 687 182 687 c 0
 406 687 532 607 532 469 c 0
 532 368 463 310 384 275 c 1
 431 238 499 171 550 72 c 0
159 589 m 1
 159 324 l 1
 281 332 433 374 433 469 c 0
 433 548 339 589 179 589 c 2
 159 589 l 1
218 790 m 2
 333 883 l 2
 343 891 357 902 374 902 c 0
 404 902 427 878 427 847 c 0
 427 832 422 817 408 807 c 2
 284 722 l 2
 274 715 262 709 251 709 c 0
 227 709 205 730 205 757 c 0
 205 768 207 781 218 790 c 2
EndSplineSet
EndChar
StartChar: racute
Encoding: 341 341 242
Width: 422
Flags: MW
HStem: 0 21G<95.5 120.5> 329 172<322.5 328.5 261.5 353.5> 406 95<263 285 261.5 387> 702 20G<310.5 334>
VStem: 59 97<34 451> 293 94<377 390 390 395>
LayerCount: 2
Back
Fore
SplineSet
387 406 m 2xbc
 387 376 l 2
 387 350 367 329 340 329 c 0xdc
 305 329 293 354 293 377 c 2
 293 390 l 2
 293 400 291 406 279 406 c 0
 247 406 213 373 183 333 c 0
 168 314 157 281 157 250 c 2
 156 46 l 2
 156 22 133 0 108 0 c 0
 83 0 59 22 59 46 c 2
 59 451 l 2
 59 478 82 499 108 499 c 0
 135 499 157 478 157 451 c 2
 157 437 l 1
 188 472 232 501 291 501 c 0
 366 501 387 449 387 406 c 2xbc
163 610 m 2xbc
 278 703 l 2
 288 711 302 722 319 722 c 0
 349 722 372 698 372 667 c 0
 372 652 367 637 353 627 c 2
 229 542 l 2
 219 535 207 529 196 529 c 0
 172 529 150 550 150 577 c 0
 150 588 152 601 163 610 c 2xbc
EndSplineSet
EndChar
StartChar: Rcaron
Encoding: 344 344 238
Width: 623
Flags: MW
HStem: 0 21G<96 123 496.5 521> 233 91<159 243.5> 589 98<159 159 159 179> 884 20G<175.5 194 407 424.5>
VStem: 61 98<49 227 324 589> 433 99<421.5 508.5>
LayerCount: 2
Back
Fore
SplineSet
441 821 m 2
 322 721 l 2
 311 712 299 709 290 709 c 0
 278 709 264 715 252 727 c 2
 156 823 l 2
 146 833 142 844 142 857 c 0
 142 882 163 904 188 904 c 0
 200 904 210 902 221 892 c 2
 294 826 l 1
 383 895 l 2
 394 903 402 904 412 904 c 0
 437 904 459 884 459 857 c 0
 459 844 453 831 441 821 c 2
550 72 m 0
 554 64 555 56 555 49 c 0
 555 24 536 0 506 0 c 0
 487 0 472 10 462 26 c 0
 345 225 261 233 226 233 c 0
 207 233 183 231 159 227 c 1
 159 49 l 2
 159 21 136 0 110 0 c 0
 82 0 61 21 61 49 c 2
 61 627 l 2
 61 689 79 687 182 687 c 0
 406 687 532 607 532 469 c 0
 532 368 463 310 384 275 c 1
 431 238 499 171 550 72 c 0
159 589 m 1
 159 324 l 1
 281 332 433 374 433 469 c 0
 433 548 339 589 179 589 c 2
 159 589 l 1
EndSplineSet
EndChar
StartChar: rcaron
Encoding: 345 345 254
Width: 422
Flags: MW
HStem: 0 21G<95.5 120.5> 329 172<322.5 328.5 261.5 353.5> 406 95<263 285 261.5 387> 703 20G<119.5 138 351 368.5>
VStem: 59 97<34 451> 293 94<377 390 390 395>
LayerCount: 2
Back
Fore
SplineSet
387 406 m 2xbc
 387 376 l 2
 387 350 367 329 340 329 c 0xdc
 305 329 293 354 293 377 c 2
 293 390 l 2
 293 400 291 406 279 406 c 0
 247 406 213 373 183 333 c 0
 168 314 157 281 157 250 c 2
 156 46 l 2
 156 22 133 0 108 0 c 0
 83 0 59 22 59 46 c 2
 59 451 l 2
 59 478 82 499 108 499 c 0
 135 499 157 478 157 451 c 2
 157 437 l 1
 188 472 232 501 291 501 c 0
 366 501 387 449 387 406 c 2xbc
385 640 m 2xbc
 266 540 l 2
 255 531 243 528 234 528 c 0
 222 528 208 534 196 546 c 2
 100 642 l 2
 90 652 86 663 86 676 c 0
 86 701 107 723 132 723 c 0
 144 723 154 721 165 711 c 2
 238 645 l 1
 327 714 l 2
 338 722 346 723 356 723 c 0
 381 723 403 703 403 676 c 0
 403 663 397 650 385 640 c 2xbc
EndSplineSet
EndChar
StartChar: Sacute
Encoding: 346 346 207
Width: 624
Flags: MW
HStem: 0 96<276.5 335 276.5 359.5> 0 220<92.5 359.5> 483 199<269 509> 589 93<290.5 352.5> 882 20G<387.5 411>
VStem: 88 107<482 535 482 570> 441 106<161.5 212.5>
LayerCount: 2
Back
Fore
SplineSet
301 309 m 0xae
 202 335 88 387 88 500 c 0
 88 640 210 682 328 682 c 0
 405 682 544 655 544 535 c 0
 544 505 523 483 495 483 c 0xae
 470 483 451 502 447 525 c 0
 440 567 380 589 325 589 c 0
 256 589 195 566 195 504 c 0
 195 460 239 431 326 407 c 0
 474 366 547 299 547 201 c 0
 547 63 413 0 306 0 c 0
 194 0 97 62 61 145 c 0
 58 152 56 162 56 170 c 0
 56 197 78 220 107 220 c 0x5e
 132 220 149 205 157 183 c 0
 178 123 248 96 305 96 c 0
 365 96 441 127 441 196 c 0
 441 229 432 274 301 309 c 0xae
240 790 m 2
 355 883 l 2
 365 891 379 902 396 902 c 0
 426 902 449 878 449 847 c 0
 449 832 444 817 430 807 c 2
 306 722 l 2
 296 715 284 709 273 709 c 0
 249 709 227 730 227 757 c 0
 227 768 229 781 240 790 c 2
EndSplineSet
EndChar
StartChar: sacute
Encoding: 347 347 218
Width: 484
Flags: MW
HStem: -2 92<211 267 211 289.5> -2 188<81 289.5> 310 189<214 383> 410 89<227.5 277> 702 20G<310.5 334>
VStem: 73 93<349.5 380 349.5 420> 320 93<140.5 164.5>
LayerCount: 2
Back
Fore
SplineSet
139 153 m 0x5e
 152 114 187 90 235 90 c 0
 299 90 320 131 320 150 c 0
 320 179 304 195 229 218 c 0
 121 251 73 292 73 368 c 0
 73 472 177 499 251 499 c 0
 357 499 414 450 414 374 c 0
 414 332 400 310 366 310 c 0xae
 334 310 319 332 319 357 c 0
 319 362 320 367 320 375 c 0
 320 395 301 410 253 410 c 0
 202 410 166 393 166 367 c 0
 166 332 217 318 247 309 c 0
 340 279 413 256 413 149 c 0
 413 77 344 -2 235 -2 c 0
 108 -2 47 102 47 139 c 0
 47 165 68 186 94 186 c 0
 117 186 133 172 139 153 c 0x5e
163 610 m 2
 278 703 l 2
 288 711 302 722 319 722 c 0
 349 722 372 698 372 667 c 0
 372 652 367 637 353 627 c 2
 229 542 l 2
 219 535 207 529 196 529 c 0
 172 529 150 550 150 577 c 0
 150 588 152 601 163 610 c 2
EndSplineSet
EndChar
StartChar: Scedilla
Encoding: 350 350 209
Width: 624
Flags: MW
HStem: -196 87<251.5 335> 0 96 483 199<269 509> 589 93<290.5 352.5>
VStem: 88 107<482 535 482 570> 227 184<-164 -85.5> 441 106<161.5 212.5>
LayerCount: 2
Back
Fore
SplineSet
297 -126 m 0xde
 302 -130 308 -132 317 -132 c 0
 333 -132 340 -118 340 -106 c 0
 340 -94 332 -86 316 -83 c 2
 267 -73 l 2
 248 -69 246 -53 251 -35 c 0
 255 -20 258 -7 262 3 c 1
 169 17 92 73 61 145 c 0
 58 152 56 162 56 170 c 0
 56 197 78 220 107 220 c 0
 132 220 149 205 157 183 c 0
 178 123 248 96 305 96 c 0
 365 96 441 127 441 196 c 0
 441 229 432 274 301 309 c 0
 202 335 88 387 88 500 c 0
 88 640 210 682 328 682 c 0
 405 682 544 655 544 535 c 0
 544 505 523 483 495 483 c 0xee
 470 483 451 502 447 525 c 0
 440 567 380 589 325 589 c 0
 256 589 195 566 195 504 c 0
 195 460 239 431 326 407 c 0
 474 366 547 299 547 201 c 0
 547 68 423 5 318 0 c 1
 319 -9 320 -20 320 -27 c 1
 380 -37 411 -61 411 -110 c 0
 411 -168 364 -196 306 -196 c 0
 268 -196 227 -180 227 -148 c 0
 227 -131 240 -109 263 -109 c 0
 280 -109 287 -118 297 -126 c 0xde
EndSplineSet
EndChar
StartChar: scedilla
Encoding: 351 351 221
Width: 484
Flags: MW
HStem: -196 87<181.5 265> -1 91 310 189<214 383> 410 89<227.5 277>
VStem: 73 93<349.5 380 349.5 420> 157 184<-164 -85.5> 320 93<140.5 164.5>
LayerCount: 2
Back
Fore
SplineSet
227 -126 m 0xe4
 232 -130 238 -132 247 -132 c 0
 263 -132 270 -118 270 -106 c 0
 270 -94 262 -86 246 -83 c 2
 197 -73 l 2
 178 -69 176 -53 181 -35 c 0
 185 -20 188 -8 192 2 c 1
 94 22 47 106 47 139 c 0
 47 165 68 186 94 186 c 0
 117 186 133 172 139 153 c 0
 152 114 187 90 235 90 c 0
 299 90 320 131 320 150 c 0
 320 179 304 195 229 218 c 0
 121 251 73 292 73 368 c 0
 73 472 177 499 251 499 c 0
 357 499 414 450 414 374 c 0
 414 332 400 310 366 310 c 0xea
 334 310 319 332 319 357 c 0
 319 362 320 367 320 375 c 0
 320 395 301 410 253 410 c 0
 202 410 166 393 166 367 c 0
 166 332 217 318 247 309 c 0
 340 279 413 256 413 149 c 0xda
 413 80 349 4 248 -1 c 1
 249 -11 250 -20 250 -27 c 1
 310 -37 341 -61 341 -110 c 0
 341 -168 294 -196 236 -196 c 0
 198 -196 157 -180 157 -148 c 0
 157 -131 170 -109 193 -109 c 0
 210 -109 217 -118 227 -126 c 0xe4
EndSplineSet
EndChar
StartChar: Scaron
Encoding: 352 352 136
Width: 624
Flags: MW
HStem: 0 96<276.5 335 276.5 359.5> 0 220<92.5 359.5> 483 199<269 509> 589 93<290.5 352.5> 884 20G<208.5 227 440 457.5>
VStem: 88 107<482 535 482 570> 441 106<161.5 212.5>
LayerCount: 2
Back
Fore
SplineSet
301 309 m 0xae
 202 335 88 387 88 500 c 0
 88 640 210 682 328 682 c 0
 405 682 544 655 544 535 c 0
 544 505 523 483 495 483 c 0xae
 470 483 451 502 447 525 c 0
 440 567 380 589 325 589 c 0
 256 589 195 566 195 504 c 0
 195 460 239 431 326 407 c 0
 474 366 547 299 547 201 c 0
 547 63 413 0 306 0 c 0
 194 0 97 62 61 145 c 0
 58 152 56 162 56 170 c 0
 56 197 78 220 107 220 c 0x5e
 132 220 149 205 157 183 c 0
 178 123 248 96 305 96 c 0
 365 96 441 127 441 196 c 0
 441 229 432 274 301 309 c 0xae
474 821 m 2
 355 721 l 2
 344 712 332 709 323 709 c 0
 311 709 297 715 285 727 c 2
 189 823 l 2
 179 833 175 844 175 857 c 0
 175 882 196 904 221 904 c 0
 233 904 243 902 254 892 c 2
 327 826 l 1
 416 895 l 2
 427 903 435 904 445 904 c 0
 470 904 492 884 492 857 c 0
 492 844 486 831 474 821 c 2
EndSplineSet
EndChar
StartChar: scaron
Encoding: 353 353 137
Width: 484
Flags: MW
HStem: -2 92<211 267 211 289.5> -2 188<81 289.5> 310 189<214 383> 410 89<227.5 277> 703 20G<147.5 166 379 396.5>
VStem: 73 93<349.5 380 349.5 420> 320 93<140.5 164.5>
LayerCount: 2
Back
Fore
SplineSet
139 153 m 0x5e
 152 114 187 90 235 90 c 0
 299 90 320 131 320 150 c 0
 320 179 304 195 229 218 c 0
 121 251 73 292 73 368 c 0
 73 472 177 499 251 499 c 0
 357 499 414 450 414 374 c 0
 414 332 400 310 366 310 c 0xae
 334 310 319 332 319 357 c 0
 319 362 320 367 320 375 c 0
 320 395 301 410 253 410 c 0
 202 410 166 393 166 367 c 0
 166 332 217 318 247 309 c 0
 340 279 413 256 413 149 c 0
 413 77 344 -2 235 -2 c 0
 108 -2 47 102 47 139 c 0
 47 165 68 186 94 186 c 0
 117 186 133 172 139 153 c 0x5e
413 640 m 2
 294 540 l 2
 283 531 271 528 262 528 c 0
 250 528 236 534 224 546 c 2
 128 642 l 2
 118 652 114 663 114 676 c 0
 114 701 135 723 160 723 c 0
 172 723 182 721 193 711 c 2
 266 645 l 1
 355 714 l 2
 366 722 374 723 384 723 c 0
 409 723 431 703 431 676 c 0
 431 663 425 650 413 640 c 2
EndSplineSet
EndChar
StartChar: uni0162
Encoding: 354 354 241
Width: 548
Flags: MW
HStem: -229 199<253.5 254> 0 21G<245.5 272.5> 582 99<45 472 58 209 308 472 308 308>
VStem: 209 99<49 582> 209 112
LayerCount: 2
Back
Fore
SplineSet
472 681 m 2xe8
 500 681 521 660 521 632 c 0
 521 605 500 582 472 582 c 2
 308 582 l 1
 308 49 l 2xf0
 308 23 286 0 259 0 c 0
 232 0 209 23 209 49 c 2
 209 582 l 1
 58 582 l 2
 32 582 9 605 9 632 c 0
 9 660 32 681 58 681 c 2
 472 681 l 2xe8
321 -81 m 0xe8
 321 -102 303 -152 287 -190 c 0
 278 -211 267 -229 241 -229 c 0
 216 -229 197 -210 197 -187 c 0
 197 -180 198 -176 200 -171 c 2
 218 -124 l 1
 213 -115 210 -105 210 -93 c 0
 210 -60 238 -30 269 -30 c 0
 298 -30 321 -53 321 -81 c 0xe8
EndSplineSet
EndChar
StartChar: uni0163
Encoding: 355 355 257
Width: 413
Flags: MW
HStem: -229 199<192.5 193> -1 21G<184.5 210> 403 97<51.5 149 67 149 67 149 245 330 67 245> 636 20G<183.5 211.5>
VStem: 17 228 149 96<46 403 500 607> 149 229<46 465 403 465 438.5 607 438.5 619.5>
LayerCount: 2
Back
Fore
SplineSet
245 500 m 1xf4
 330 500 l 2
 357 500 378 479 378 451 c 0xf2
 378 426 357 403 330 403 c 2
 245 403 l 1
 245 46 l 2xf8
 245 20 223 -1 197 -1 c 0
 172 -1 149 20 149 46 c 2
 149 403 l 1xf2
 65 403 l 2
 38 403 17 426 17 451 c 0xf8
 17 481 41 500 67 500 c 2
 149 500 l 1
 149 607 l 2
 149 632 170 656 197 656 c 0
 226 656 245 632 245 607 c 2
 245 500 l 1xf4
260 -81 m 0xf8
 260 -102 242 -152 226 -190 c 0
 217 -211 206 -229 180 -229 c 0
 155 -229 136 -210 136 -187 c 0
 136 -180 137 -176 139 -171 c 2
 157 -124 l 1
 152 -115 149 -105 149 -93 c 0
 149 -60 177 -30 208 -30 c 0
 237 -30 260 -53 260 -81 c 0xf8
EndSplineSet
EndChar
StartChar: Tcaron
Encoding: 356 356 210
Width: 548
Flags: MW
HStem: 0 21G<245.5 272.5> 582 99<45 472 58 209 308 472 308 308> 884 20G<148.5 167 380 397.5>
VStem: 209 99<49 582>
LayerCount: 2
Back
Fore
SplineSet
414 821 m 2
 295 721 l 2
 284 712 272 709 263 709 c 0
 251 709 237 715 225 727 c 2
 129 823 l 2
 119 833 115 844 115 857 c 0
 115 882 136 904 161 904 c 0
 173 904 183 902 194 892 c 2
 267 826 l 1
 356 895 l 2
 367 903 375 904 385 904 c 0
 410 904 432 884 432 857 c 0
 432 844 426 831 414 821 c 2
472 681 m 2
 500 681 521 660 521 632 c 0
 521 605 500 582 472 582 c 2
 308 582 l 1
 308 49 l 2
 308 23 286 0 259 0 c 0
 232 0 209 23 209 49 c 2
 209 582 l 1
 58 582 l 2
 32 582 9 605 9 632 c 0
 9 660 32 681 58 681 c 2
 472 681 l 2
EndSplineSet
EndChar
StartChar: tcaron
Encoding: 357 357 222
Width: 436
Flags: MW
HStem: -1 21G<184.5 210> 403 97<51.5 149 67 149 67 149 245 330 67 245> 523 199<337.5 338>
VStem: 17 228 149 96<46 403 500 607> 149 229<46 465 403 465 438.5 607 438.5 619.5> 294 111<660.5 675.5>
LayerCount: 2
Back
Fore
SplineSet
245 500 m 1xea
 330 500 l 2
 357 500 378 479 378 451 c 0xe4
 378 426 357 403 330 403 c 2
 245 403 l 1
 245 46 l 2
 245 20 223 -1 197 -1 c 0
 172 -1 149 20 149 46 c 2
 149 403 l 1xea
 65 403 l 2
 38 403 17 426 17 451 c 0xf2
 17 481 41 500 67 500 c 2
 149 500 l 1
 149 607 l 2
 149 632 170 656 197 656 c 0
 226 656 245 632 245 607 c 2
 245 500 l 1xea
405 671 m 0xf2
 405 650 387 600 371 562 c 0
 362 541 351 523 325 523 c 0
 300 523 281 542 281 565 c 0
 281 572 282 576 284 581 c 2
 302 628 l 1
 297 637 294 647 294 659 c 0
 294 692 322 722 353 722 c 0
 382 722 405 699 405 671 c 0xf2
EndSplineSet
EndChar
StartChar: Uring
Encoding: 366 366 239
Width: 709
Flags: MW
HStem: 0 92<270.5 377.5 270.5 422.5> 712 79<335 361.5 335 378.5> 862 80<340 371.5>
VStem: 63 100<381 633 381 634 381 642> 212 86<811 829 811 858.5> 405 86<818.5 838.5> 523 99<633 639>
LayerCount: 2
Back
Fore
SplineSet
622 633 m 0
 626 507 631 400 614 270 c 0
 593 110 511 0 334 0 c 0
 165 0 70 151 63 367 c 0
 60 474 62 549 63 634 c 0
 63 650 74 681 115 681 c 0
 155 681 163 649 163 633 c 0
 161 544 160 474 163 381 c 0
 168 236 205 92 336 92 c 0
 419 92 499 139 515 277 c 0
 528 397 523 498 523 631 c 0
 523 647 530 681 573 681 c 0
 616 681 622 648 622 633 c 0
342 712 m 0
 271 712 212 754 212 820 c 0
 212 897 287 942 362 942 c 0
 430 942 491 900 491 833 c 0
 491 755 415 712 342 712 c 0
358 862 m 0
 322 862 298 838 298 820 c 0
 298 802 320 791 350 791 c 0
 373 791 405 806 405 831 c 0
 405 846 385 862 358 862 c 0
EndSplineSet
EndChar
